<?xml version="1.0" encoding="UTF-8"?>
<!-- Generator: Adobe Illustrator 25.2.3, SVG Export Plug-In . SVG Version: 6.00 Build 0)  -->
<svg xmlns="http://www.w3.org/2000/svg" xmlns:xlink="http://www.w3.org/1999/xlink" version="1.1" id="Capa_1" x="0px" y="0px" viewBox="0 0 512 512" style="enable-background:new 0 0 512 512;" xml:space="preserve" width="512" height="512">
<g>
	<path style="fill:#9BEFE6;" d="M102.329,52.147c-24.721,13.221-46.653,32.086-64.013,54.337   c-46.024,58.992-51.297,136.95-11.957,201.028c28.463,46.361,75.734,79.485,127.324,96.747   c102.276,34.222,241.272-1.253,286.255-107.885c6.846-16.228,10.803-33.71,10.867-51.354c0.124-33.793-13.611-66.495-33.044-94.142   C367.261,79.033,277.553,34.804,190.499,31.81c-3.325-0.114-6.653-0.166-9.981-0.148C152.916,31.806,126.31,39.321,102.329,52.147z   "/>
	<g>
		<g>
			<g>
				<path style="fill:#FF9C3D;" d="M511.99,141.274c-0.253,4.035-10.174,7.777-20.777,15.554      c-10.408,7.64-21.518,19.199-24.695,38.729c-2.339,14.345-1.443,31.069-2.125,47.48c-0.585,14.209-2.358,28.184-8.498,40.21      c-6.198,12.221-16.879,22.434-35.318,28.827c-57.596,19.998-92.836-25.709-92.836-25.709l19.589,0.955      c0,0,23.116,18.926,50.326,15.71c6.958-0.819,14.189-3.08,21.362-7.485c3.567-2.183,7.114-4.912,10.603-8.225      c24.5-23.272,13.351-51.34,12.416-81.044c-0.39-12.143,0.916-24.559,7.095-37.033c2.183-4.463,4.99-8.927,8.576-13.39      c3.742-4.658,7.27-8.634,10.603-11.987C498.892,113.071,512.419,134.063,511.99,141.274z"/>
				<path style="opacity:0.2;fill:#AE312F;" d="M511.99,141.274c-0.253,4.035-10.174,7.777-20.777,15.554      c-10.408,7.64-21.518,19.199-24.695,38.729c-2.339,14.345-1.443,31.069-2.125,47.48c-0.585,14.209-2.358,28.184-8.498,40.21      c-6.198,12.221-16.879,22.434-35.318,28.827c-57.596,19.998-92.836-25.709-92.836-25.709l19.589,0.955      c0,0,23.116,18.926,50.326,15.71c6.958-0.819,14.189-3.08,21.362-7.485c3.567-2.183,7.114-4.912,10.603-8.225      c24.5-23.272,13.351-51.34,12.416-81.044c-0.39-12.143,0.916-24.559,7.095-37.033c2.183-4.463,4.99-8.927,8.576-13.39      c3.742-4.658,7.27-8.634,10.603-11.987C498.892,113.071,512.419,134.063,511.99,141.274z"/>
			</g>
			<path style="fill:#AE312F;" d="M511.99,141.274c-0.253,4.035-10.174,7.777-20.777,15.554c-0.253-6.296,5.185-12.981,5.185-12.981     c-11.773,4.132-21.616,2.417-28.087,0.019C498.892,113.071,512.419,134.063,511.99,141.274z"/>
			<path style="fill:#AE312F;" d="M442.036,206.277c-0.39-12.143,0.916-24.559,7.095-37.033     C454.589,175.852,462.288,190.45,442.036,206.277z"/>
			<path style="fill:#AE312F;" d="M464.393,243.038c-0.585,14.209-2.358,28.184-8.498,40.21c-4.113-3.197-7.309-8.868-4.99-18.75     C453.576,253.114,459.481,246.624,464.393,243.038z"/>
			<path style="fill:#AE312F;" d="M419.018,295.547c-1.131,5.613-3.665,12.084-9.434,12.767c-5.419,0.643-9.376-2.3-11.929-5.282     C404.614,302.213,411.845,299.951,419.018,295.547z"/>
		</g>
		<g>
			<path style="fill:#FF9C3D;" d="M58.895,193.206c0,0-7.424,82.291-9.909,87.658c-2.485,5.367-39.161,44.727-31.557,55.461     s21.798,0,21.798,0s13.631,6.709,27.896-4.025s29.548-35.781,29.548-35.781l-23.82-109.454L58.895,193.206z"/>
			<path style="opacity:0.2;fill:#AE312F;" d="M58.911,192.944c0,0-7.25,82.214-9.735,87.581c-2.484,5.367-39.35,45.065-31.747,55.8     c7.603,10.734,21.798,0,21.798,0s14.07,6.972,28.508-4.309c14.069-10.991,29.126-35.836,29.126-35.836l-23.82-109.454     L58.911,192.944z"/>
			<path style="fill:#AE312F;" d="M39.227,336.325c-1.151-1.198-1.674-2.909-1.753-4.589c-0.099-1.705,0.342-3.399,1.029-4.928     c0.706-1.538,1.765-2.836,2.936-3.963c0.603-0.544,1.266-1.019,1.92-1.48c0.715-0.391,1.418-0.781,2.182-1.064     c-0.385,0.742-0.832,1.377-1.267,2.01c-0.408,0.653-0.821,1.283-1.241,1.888c-0.741,1.277-1.566,2.454-2.105,3.747     C39.731,330.481,39.032,333.108,39.227,336.325z"/>
		</g>
		<path style="fill:#FF9C3D;" d="M363.712,177.921c0,0,3.684,7.699-5.925,10.467c-9.629,2.768-39.197-0.195-55.121,0    c-1.715,0.02-3.469,0.156-5.204,0.331c1.754,1.306,8.069,6.179,15.963,14.911c4.405,4.873,9.317,10.954,14.189,18.302    c3.235,4.853,6.452,10.272,9.492,16.256c1.93,3.742,3.782,7.699,5.536,11.909c3.996,9.57,7.465,20.31,9.96,32.277    c0.39,1.793,0.741,3.606,1.072,5.438c1.111,6.218,1.735,12.24,1.91,18.029c0.293,8.927-0.448,17.308-1.871,25.085    c-0.994,5.321-2.319,10.35-3.879,15.086c-2.592,7.952-5.847,15.066-9.297,21.323c-3.372,6.081-6.919,11.324-10.233,15.69    c-7.601,10.018-13.975,15.378-13.975,15.378s14.404,2.787,14.872,10.681c0.468,7.894-0.468,24.617,13.936,46.935    c14.404,22.298,5.574,25.553-1.384,24.617c-6.978-0.935-34.382-38.573-43.68-65.042c0,0-24.793,0-42.413-12.396    c-0.916-0.624-1.793-1.306-2.67-2.008c0,0-63.97,35.435-119.851-11.948c-21.557-18.283-37.618-41.691-49.137-66.815    c-18.712-40.737-25.455-85.975-24.383-121.04c0.019-0.351,0.058-0.702,0.078-1.052c-4.249-3.021-8.401-5.964-9.707-6.861    c-6.12-4.249-16.626-13.215-23.916-28.184c-0.448-0.877-0.877-1.793-1.286-2.729c-0.897-2.066-1.754-4.21-2.495-6.471    c-0.039-0.097-0.059-0.175-0.097-0.273c-0.604-1.793-1.17-3.684-1.637-5.633c-0.117-0.409-0.215-0.819-0.312-1.248    c-0.097-0.409-0.195-0.819-0.292-1.228c-0.799-3.703-1.442-7.485-1.852-11.324c-0.098-0.76-0.156-1.501-0.215-2.28    c-0.136-1.657-0.214-3.313-0.234-4.99c-0.02-0.136-0.02-0.293-0.02-0.448c-0.039-3.294,0.136-6.627,0.565-9.96    c0.117-0.819,0.214-1.657,0.37-2.475c2.007-11.909,7.484-23.838,18.672-34.967l-0.37-0.37    c-5.711-6.101-11.071-17.99-11.636-25.514c-0.175-2.105,0.039-3.84,0.702-5.048c0.273-0.468,0.585-0.838,0.994-1.13    c6.549-4.639,14.384-3.353,20.777,0.39c4.385,2.573,8.342,6.374,12.981,8.498c0.371,0.156,3.391,1.579,5.653,2.456l0.526,0.195    c0.409-0.214,0.838-0.409,1.267-0.624c2.281-1.111,4.639-2.222,7.114-3.294c1.072-0.487,2.183-0.955,3.314-1.423    c0.312-0.117,0.643-0.253,0.955-0.39c0.37-0.156,0.741-0.293,1.092-0.448c0.858-0.351,1.715-0.682,2.553-1.013    c0.449-0.195,0.897-0.371,1.345-0.546c8.284-3.255,16.216-6.062,23.779-8.381c0.253-0.078,0.526-0.156,0.779-0.234    c1.033-0.312,2.047-0.624,3.06-0.916c0.799-0.234,1.598-0.468,2.398-0.702h0.02c0.955-0.273,1.91-0.526,2.846-0.78    c3.996-1.072,7.874-2.008,11.636-2.787c0.507-0.117,0.994-0.214,1.481-0.312c0.663-0.136,1.306-0.254,1.949-0.371    c2.554-0.507,5.009-0.896,7.446-1.267c0-0.019,0-0.019,0-0.019c-3.197-13.585,3.391-29.705,8.615-31.712l0.02-0.02    c5.769-2.202,13.391,9.083,21.09,17.016c7.523,7.796,27.151,22.239,27.95,22.863c4.385,2.904,8.167,6.393,11.324,10.584    c0.293,0.39,0.585,0.78,0.877,1.169c0.468,0.663,0.935,1.326,1.384,1.988c0.273,0.39,0.526,0.78,0.779,1.15    c3.469,5.204,6.374,10.505,8.654,15.846l0.039,0.097c0.39,0.877,0.741,1.774,1.092,2.67c0.721,1.871,1.345,3.742,1.91,5.613    c1.949,6.568,2.904,13.195,2.729,19.862c-0.175,6.939-1.618,13.917-4.425,20.855c5.964-0.156,19.16-0.39,35.63-0.078    c7.484,0.136,15.632,0.39,24.071,0.819c7.329,0.37,14.872,0.877,22.395,1.54c3.294,0.312,6.568,0.624,9.843,0.994    c5.009,0.546,9.511,1.384,13.585,2.397c32.784,8.245,36.799,29.51,36.799,29.51s4.21,1.345,4.288,6.354    C370.69,174.549,363.712,177.921,363.712,177.921z"/>
		<g>
			<path style="fill:#FF9C3D;" d="M114.918,342.713c0,0-9.678,54.674,11.124,79.888c22.316,27.049,48.015,30.797,48.015,30.797     s-26.262,41.742-19.031,51.932c5.458,7.692,16.857-17.311,25.251-27.802c8.393-10.492,16.984-22.032,10.59-32.524     c0,0,40.54-11.541,37.531-40.392C225.39,375.761,114.918,342.713,114.918,342.713z"/>
			<path style="opacity:0.2;fill:#AE312F;" d="M114.918,342.713c0,0-9.678,54.674,11.124,79.888     c22.316,27.049,48.015,30.797,48.015,30.797s-26.262,41.742-19.031,51.932c5.458,7.692,16.857-17.311,25.251-27.802     c8.393-10.492,16.984-22.032,10.59-32.524c0,0,40.54-11.541,37.531-40.392C225.39,375.761,114.918,342.713,114.918,342.713z"/>
		</g>
		<path style="fill:#AE312F;" d="M151.899,36.123c-5.735,0.248-9.787,1.074-10.004,1.104c-3.19-13.575,3.39-29.7,8.623-31.712    l0.015-0.007c2.051,2.545,4.481,5.603,5.759,14.005c0.12,0.828,0.291,1.614,0.486,2.372    C159.596,33.141,157.361,35.896,151.899,36.123z"/>
		<path style="fill:#AE312F;" d="M43.532,77.216c-1.758,1.349-3.4,2.644-4.655,3.67c-5.716-6.089-11.075-17.983-11.646-25.512    c-0.164-2.098,0.05-3.841,0.714-5.034c0,0,3.173,0.096,7.903,5.548c1.722,1.991,3.31,3.921,4.954,5.63    C44.697,65.556,49.248,72.788,43.532,77.216z"/>
		<path style="opacity:0.48;fill:#EA4949;" d="M148.57,107.764c-2.183,4.194-0.237,10.498,4.874,12.187    c6.843,2.262,16.33-2.017,18.831-8.918c2.112-5.827-3.521-13.023-8.338-12.937c-4.072,0.073-7.707,1.856-10.711,4.371    C151.831,103.637,149.794,105.414,148.57,107.764z"/>
		<path style="opacity:0.48;fill:#EA4949;" d="M65.223,134.18c4.24,2.133,6.392,8.44,3.263,12.853    c-4.189,5.909-14.376,8.037-20.472,3.879c-5.147-3.51-4.85-12.734-0.909-15.521c3.331-2.355,7.319-3.054,11.23-2.78    C60.154,132.74,62.848,132.984,65.223,134.18z"/>
		<path style="fill:#AE312F;" d="M111.076,44.379c-0.448,2.339-0.819,4.6-1.189,6.685c-0.741,4.074-1.247,8.206-1.618,12.338    c-0.292,3.099-1.618,6.588-4.541,8.147c-3.664,1.988-8.069,0.799-11.207-1.656c-3.918-3.041-5.769-7.738-6.763-12.475    c-0.273-1.286-0.448-2.573-0.585-3.879c0.448-0.195,0.897-0.37,1.345-0.546c8.284-3.255,16.217-6.062,23.779-8.381    C110.549,44.535,110.822,44.456,111.076,44.379z"/>
		<path style="fill:#AE312F;" d="M35.883,148.387c-3.898,2.221-8.729,2.437-13.321,1.799c-0.103-0.411-0.206-0.823-0.302-1.256    c-0.097-0.397-0.199-0.809-0.288-1.227c-0.807-3.707-1.453-7.489-1.862-11.329C30.803,140.624,43.184,144.211,35.883,148.387z"/>
		<path style="fill:#AE312F;" d="M38.348,159.719c-2.131,2.636-6.217,4.414-10.272,5.577c-0.434-0.894-0.86-1.809-1.278-2.746    c-0.903-2.054-1.746-4.207-2.5-6.472c-0.026-0.094-0.06-0.166-0.086-0.26C33.152,155.05,42.106,155.071,38.348,159.719z"/>
		<path style="fill:#AE312F;" d="M27.937,130.026c-2.424,0.527-5.356,0.036-8.269-0.905c-0.017-0.151-0.02-0.309-0.023-0.467    c-0.03-3.292,0.135-6.621,0.565-9.95C27.323,123.543,33.556,128.807,27.937,130.026z"/>
		<path style="fill:#AE312F;" d="M134.467,38.517c-1.774,5.029-3.45,10.135-5.711,11.558c-5.613,3.567-10.291-0.916-9.356-8.089    c3.996-1.072,7.874-2.007,11.636-2.787c0.507-0.117,0.994-0.214,1.481-0.312C133.18,38.751,133.824,38.634,134.467,38.517z"/>
		<path style="fill:#AE312F;" d="M82.62,54.558c-0.857,3.275-1.871,6.14-3.43,7.368c-4.21,3.333-9.219,1.403-9.044-1.812    c2.28-1.111,4.639-2.222,7.114-3.294c1.072-0.487,2.183-0.955,3.313-1.423c0.312-0.117,0.643-0.253,0.955-0.39    C81.899,54.851,82.27,54.714,82.62,54.558z"/>
		<path style="opacity:0.48;fill:#AE312F;" d="M48.072,190.081c1.859,1.435,3.712,2.868,5.627,4.204    c0.946,0.68,1.91,1.334,2.892,1.941c0.976,0.594,2.013,1.169,3.009,1.448l0.291,0.082l0.111,0.316    c0.326,0.923,0.719,1.874,1.214,2.702c0.461,0.815,1.214,1.596,1.684,1.493c0.223-0.042,0.296-0.072,0.392-0.464    c0.066-0.368,0.032-0.842-0.039-1.307c-0.149-0.939-0.468-1.919-0.806-2.829l-1.022-2.747l2.16,1.957    c0.795,0.721,1.665,1.419,2.552,2.04c0.889,0.616,1.823,1.193,2.766,1.523c0.466,0.171,0.949,0.251,1.283,0.157    c0.381-0.108,0.632-0.285,0.638-0.569c0.056-0.711-0.63-1.776-1.28-2.526l-1.011-1.168l1.47,0.326    c1.803,0.4,3.666,0.653,5.519,0.859c1.859,0.202,3.731,0.26,5.61,0.094c-1.838,0.448-3.751,0.53-5.645,0.528    c-1.902-0.024-3.782-0.212-5.679-0.496l0.459-0.842c0.43,0.439,0.796,0.886,1.131,1.403c0.312,0.521,0.641,1.099,0.631,1.907    c-0.018,0.398-0.202,0.861-0.513,1.139c-0.149,0.155-0.309,0.274-0.474,0.349c-0.161,0.097-0.33,0.175-0.522,0.212    c-0.755,0.209-1.432,0.059-2.018-0.121c-1.194-0.373-2.196-0.984-3.152-1.636c-0.958-0.658-1.85-1.357-2.726-2.134l1.138-0.79    c0.405,1.026,0.703,2.04,0.879,3.153c0.073,0.56,0.132,1.133,0.011,1.791c-0.049,0.172-0.093,0.341-0.16,0.512    c-0.105,0.176-0.186,0.36-0.338,0.513c-0.311,0.328-0.739,0.506-1.136,0.531c-0.826,0.071-1.484-0.395-1.902-0.814    c-0.432-0.441-0.733-0.92-1.012-1.402c-0.531-0.977-0.926-1.959-1.224-3.014l0.402,0.398c-1.242-0.438-2.229-1.1-3.215-1.775    c-0.973-0.686-1.908-1.408-2.821-2.153C51.452,193.344,49.706,191.77,48.072,190.081z"/>
		<g>
			<g>
				<path style="fill:#FFFFFF;" d="M168.727,90.876c-5.128,7.248-15.32,12.806-24.242,12.663c-1.906-0.032-3.783-0.342-5.6-0.981      c-7.886-2.816-14.57-10.416-17.485-18.198c-0.081-0.174-0.148-0.355-0.215-0.536c-2.797-7.907-0.93-16.695,4.53-23.002      c6.394-7.378,17.794-13.303,27.559-9.753c3.854,1.406,7.452,4.009,10.449,7.333l0.014-0.006      C171.755,67.23,175.588,81.16,168.727,90.876z"/>
				<path style="fill:#AE312F;" d="M168.727,90.876c-2.902,4.095-6.968,7.245-11.393,9.573c-2.228,1.153-4.588,2.063-7.035,2.668      c-2.441,0.617-4.986,0.935-7.543,0.741c-2.56-0.184-5.067-1.009-7.334-2.181c-2.284-1.165-4.392-2.659-6.302-4.368      c-3.812-3.433-6.854-7.719-8.844-12.529l0.036,0.085c-2.348-5.768-2.289-12.19,0.005-17.863      c1.137-2.814,2.761-5.468,4.845-7.663c2.036-2.207,4.34-4.14,6.853-5.757c5.006-3.173,11.045-5.217,17.123-4.467      c3.03,0.345,5.897,1.533,8.383,3.115c2.513,1.581,4.715,3.575,6.622,5.79l-0.664-0.135l0.014-0.006l0.399-0.173l0.264,0.307      c1.958,2.274,3.602,4.797,4.905,7.476c1.291,2.682,2.262,5.515,2.819,8.426c0.55,2.912,0.627,5.912,0.158,8.83      C171.566,85.66,170.45,88.477,168.727,90.876z M168.727,90.876c1.697-2.417,2.779-5.239,3.221-8.146      c0.462-2.911,0.251-5.894-0.372-8.753c-1.252-5.741-4.292-10.996-8.262-15.198l0.662,0.133l-0.014,0.007l-0.362,0.18      l-0.301-0.315c-1.949-2.04-4.156-3.832-6.587-5.19c-2.432-1.371-5.065-2.292-7.778-2.456      c-5.445-0.347-10.881,1.653-15.432,4.723c-4.584,3.079-8.542,7.177-10.585,12.191c-0.511,1.253-0.901,2.551-1.195,3.872      c-0.247,1.327-0.447,2.67-0.48,4.024c-0.028,1.35,0.022,2.712,0.257,4.048c0.079,0.676,0.268,1.329,0.403,1.995      c0.195,0.619,0.378,1.363,0.584,1.865l0.036,0.085c1.6,4.521,4.264,8.751,7.716,12.19c1.729,1.717,3.66,3.239,5.773,4.459      c2.111,1.23,4.408,2.121,6.838,2.424c4.877,0.605,9.917-0.619,14.386-2.766C161.722,98.097,165.769,94.913,168.727,90.876z"/>
			</g>
			<path style="fill:#AE312F;" d="M151.938,95.167c6.411-1.916,12.05-7.329,13.323-14.032c2.028-10.681-6.242-22.043-17.013-23.115     c-5.783-0.576-12.247,1.727-16.199,6.032c-10.562,11.503-0.242,30.973,14.457,31.796C148.316,95.948,150.154,95.7,151.938,95.167     z"/>
			<path style="opacity:0.21;fill:#AE312F;" d="M163.722,58.402c-32.256-0.221-41.3,22.991-42.323,25.958     c-0.081-0.174-0.148-0.355-0.215-0.536c-2.797-7.907-0.93-16.695,4.53-23.002c6.394-7.378,17.794-13.303,27.559-9.753     C157.127,52.475,160.725,55.078,163.722,58.402z"/>
		</g>
		<g>
			<g>
				<path style="fill:#FFFFFF;" d="M72.813,110.326c-0.509,7.678-7.097,13.574-13.743,16.385c-0.921,0.376-1.862,0.672-2.813,0.868      c-11.502,2.402-24.143-8.806-24.879-20.448c-0.096-1.193-0.04-2.403,0.144-3.602c1.656-10.492,14.007-19.918,24.651-18.014      c2.574,0.48,4.845,2.093,6.732,3.83c1.293,1.183,2.566,2.588,3.748,4.141C70.395,98.336,73.195,104.616,72.813,110.326z"/>
				<path style="fill:#AE312F;" d="M72.813,110.327c-0.181,2.71-1.126,5.345-2.627,7.612c-1.49,2.272-3.411,4.267-5.604,5.892      c-1.092,0.819-2.233,1.58-3.434,2.241c-1.192,0.669-2.44,1.283-3.777,1.694c-2.681,0.766-5.559,0.92-8.323,0.367      c-5.557-1.075-10.494-4.429-14.065-8.812c-1.762-2.223-3.217-4.736-4.115-7.493l-0.54-2.11      c-0.134-0.713-0.204-1.438-0.306-2.158c-0.174-1.442-0.117-2.96,0.123-4.404c1.058-5.87,4.773-10.751,9.339-14.064      c4.577-3.283,10.343-5.249,16.001-4.377c2.917,0.338,5.374,2.097,7.348,3.957c2.013,1.891,3.689,4.076,5.18,6.353      c1.489,2.283,2.722,4.732,3.596,7.305C72.489,104.892,73.004,107.614,72.813,110.327z M72.813,110.327      c0.263-5.47-2.035-10.719-5.131-15.077c-1.573-2.19-3.397-4.199-5.448-5.903c-2.043-1.682-4.375-3.1-6.935-3.209      c-5.194-0.47-10.323,1.714-14.324,4.915c-4.01,3.198-7.19,7.673-8.015,12.567c-0.218,1.223-0.286,2.445-0.15,3.694      c0.084,0.622,0.132,1.25,0.238,1.869l0.443,1.836c0.73,2.421,1.91,4.737,3.439,6.812c3.013,4.151,7.352,7.604,12.43,8.916      c2.524,0.678,5.194,0.711,7.77,0.16c1.282-0.304,2.517-0.813,3.729-1.393c1.211-0.573,2.393-1.227,3.491-2.006      c2.212-1.523,4.22-3.395,5.746-5.629C71.617,115.645,72.596,113.035,72.813,110.327z"/>
			</g>
			<path style="fill:#AE312F;" d="M49.07,120.405c0.583,0.171,6.708,3.319,14.32-3.223c7.613-6.541,1.704-17.445-1.248-20.567     c-2.952-3.122-10.899-8.748-19.744-1.633S39.044,117.467,49.07,120.405z"/>
			<path style="opacity:0.21;fill:#AE312F;" d="M66.652,93.485c-14.823-1.655-28.562,7.94-35.275,13.645     c-0.096-1.193-0.04-2.403,0.144-3.602c1.656-10.492,14.007-19.918,24.651-18.014c2.574,0.48,4.845,2.093,6.732,3.83     C64.198,90.527,65.47,91.932,66.652,93.485z"/>
		</g>
		<path style="fill:#AE312F;" d="M210.906,55.956c-18.446,25.343-33.934,12.349-25.068,5.041    c5.937-4.902,10.522-11.42,13.511-15.781C203.841,48.144,207.698,51.722,210.906,55.956z"/>
		<path style="fill:#AE312F;" d="M222.601,76.106l0.047,0.102c0.165,0.506,0.352,0.985,0.525,1.47    c-7.489,7.605-17.692,14.546-28.07,14.693c-3.915,0.055-8.156-1.877-8.487-5.665c-0.122-1.516,0.439-3.12,1.36-4.521    c2.712-4.161,7.752-6.967,12.083-9.548c4.922-2.946,10.06-8.006,13.903-12.358C217.422,65.473,220.328,70.766,222.601,76.106z"/>
		<path style="fill:#AE312F;" d="M225.643,84.501c1.96,6.564,2.907,13.194,2.735,19.849c-5.722,3.883-13.037,5.521-19.836,4.815    c-3.031-0.321-6.185-1.629-6.954-4.876c-1.026-4.294,4.029-7.143,7.244-8.551C217.556,91.924,222.941,87.278,225.643,84.501z"/>
		<g>
			<path style="fill:#AE312F;" d="M30.024,162.105c3.196-3.169,6.656-5.995,10.18-8.738c3.551-2.708,7.167-5.33,11.051-7.607     c-3.194,3.172-6.654,5.998-10.18,8.738C37.522,157.205,33.905,159.826,30.024,162.105z"/>
			<path style="fill:#AE312F;" d="M23.489,153.084c3.721-2.249,7.617-4.103,11.555-5.86c3.956-1.717,7.955-3.335,12.129-4.553     c-3.72,2.252-7.615,4.105-11.555,5.859C31.661,150.245,27.662,151.862,23.489,153.084z"/>
			<path style="fill:#AE312F;" d="M20.915,139.494c4.331-0.384,8.645-0.335,12.954-0.181c4.308,0.197,8.611,0.503,12.896,1.244     c-4.331,0.387-8.645,0.339-12.954,0.182C29.503,140.539,25.2,140.233,20.915,139.494z"/>
		</g>
		<path style="fill:#FFFFFF;" d="M153.829,31.194c0,0-2.906,1.123-3.966,0.821c-1.074-0.295,3.222-2.419,3.222-2.419    c-2.598,0.078-5.554-1.639-4.833-2.028c0.728-0.41,4.135,0.302,4.135,0.302c-4.422-2.626-5.252-9.31-2.157-10.291    c1.324-0.421,3.967,1.724,6.547,4.306c2.818,11.256,12.558,15.966,14.138,16.398c-6.574-2.048-13.555-2.387-19.017-2.16    C151.651,33.693,153.829,31.194,153.829,31.194z"/>
		<path style="fill:#FFFFFF;" d="M43.532,77.216c-0.682-2.528,0.265-6.911,0.355-7.288c-0.155,0.16-1.761,1.951-2.934,1.861    c-1.23-0.099,1.496-2.976,1.496-2.976s-2.477,1.4-3.039,0.725c-0.569-0.654,2.14-1.668,2.14-1.668    c-2.366-0.26-8.04-3.716-6.36-6.107c1.097-1.553,3.825-0.897,5.613-0.244c3.895,4.038,8.133,6.802,15.531,6.063    C56.334,67.581,49.248,72.788,43.532,77.216z"/>
		<g>
			<path style="fill:#AE312F;" d="M95.624,97.311c0,0-5.743-3.371-7.423-1.725c-1.68,1.646,6.975,6.764,9.489,6.601     c2.514-0.163,4.55-9.827,2.77-10.869C98.681,90.276,95.624,97.311,95.624,97.311z"/>
			<path style="fill:#AE312F;" d="M114.918,126.497c-1.614-1.977-3.144-4.015-4.708-6.03l-4.539-6.155     c-1.514-2.052-2.956-4.155-4.41-6.254c-1.423-2.126-2.845-4.229-4.135-6.5l1.336-0.409c0.492,4.898,1.111,9.8,1.76,14.688     c0.334,2.444,0.692,4.886,1.126,7.313c0.391,2.438,0.879,4.856,1.431,7.271c-0.859-2.326-1.486-4.729-2.107-7.131     c-0.581-2.412-1.056-4.845-1.523-7.28c-0.913-4.876-1.573-9.784-2.105-14.722l-0.372-3.451l1.708,3.043     c1.216,2.165,2.627,4.302,4.011,6.425l4.189,6.379l4.207,6.377C112.155,122.213,113.57,124.331,114.918,126.497z"/>
			<path style="opacity:0.48;fill:#AE312F;" d="M87.94,106.652c-3.446,2.287-6.193,5.977-6.994,10.426     c-1.162,6.448,0.715,13.292,6.523,16.58c3.605,2.041,7.718,2.346,11.61,2.009c7.46-0.646,14.823-1.815,21.024-6.327     c2.249-1.637,4.319-3.646,5.685-6.225c2.092-3.951,2.331-9.144,0.625-13.612c-1.705-4.468-5.315-8.108-9.462-9.541     c-5.102-1.763-11.308-0.609-16.052,1.227C96.673,102.825,91.728,104.137,87.94,106.652z"/>
		</g>
		<g>
			<path style="fill:#AE312F;" d="M174.057,110.538c4.243-1.503,8.578-2.583,12.935-3.558c4.367-0.934,8.757-1.762,13.24-2.164     c-4.242,1.506-8.577,2.585-12.935,3.558C182.93,109.305,178.54,110.133,174.057,110.538z"/>
			<path style="fill:#AE312F;" d="M197.537,94.006c-3.621,2.407-7.434,4.426-11.293,6.35c-3.878,1.885-7.804,3.673-11.923,5.069     c3.62-2.41,7.432-4.429,11.293-6.35C189.493,97.194,193.42,95.406,197.537,94.006z"/>
			<path style="fill:#AE312F;" d="M188.796,83.287c-2.194,3.755-4.73,7.244-7.35,10.67c-2.654,3.398-5.394,6.73-8.479,9.796     c2.191-3.757,4.728-7.246,7.35-10.669C182.973,89.687,185.713,86.355,188.796,83.287z"/>
		</g>
		<path style="opacity:0.48;fill:#AE312F;" d="M190.866,165.886c1.429-1.689,2.879-3.353,4.262-5.071    c1.393-1.706,2.788-3.413,4.027-5.206l0.797-1.153l0.138,1.434c0.059,0.603,0.176,1.247,0.363,1.813    c0.17,0.561,0.512,1.103,0.76,1.164c0.091,0.042,0.307,0.008,0.436-0.071c0.088-0.045,0.232-0.228,0.33-0.474    c0.204-0.495,0.308-1.12,0.37-1.738c0.11-1.253,0.103-2.555,0.018-3.847c-0.088-1.28-0.225-2.618-0.492-3.8l-0.527-2.335    l1.718,1.653c0.702,0.676,1.506,1.334,2.327,1.833c0.816,0.5,1.764,0.83,2.166,0.452c0.516-0.358,0.741-1.395,0.754-2.347    c0.017-0.974-0.092-2.006-0.269-2.976l-0.077-0.425l0.35-0.191c2.052-1.12,4.021-2.544,5.797-4.13    c0.91-0.775,1.764-1.619,2.566-2.512c0.812-0.886,1.525-1.856,2.227-2.844c-1.098,2.161-2.609,4.115-4.305,5.871    c-1.736,1.732-3.628,3.271-5.75,4.587l0.273-0.615c0.272,1.072,0.435,2.129,0.443,3.249c0.001,0.558-0.036,1.129-0.182,1.716    c-0.145,0.576-0.419,1.225-1.011,1.693c-0.284,0.224-0.654,0.391-1.038,0.44c-0.374,0.046-0.716,0.001-1.026-0.072    c-0.619-0.153-1.136-0.416-1.626-0.698c-0.972-0.582-1.804-1.251-2.618-2.017l1.192-0.681c0.315,1.401,0.415,2.709,0.503,4.066    c0.067,1.348,0.092,2.702-0.078,4.081c-0.095,0.69-0.211,1.387-0.529,2.112c-0.167,0.352-0.394,0.764-0.889,1.047    c-0.448,0.235-0.941,0.315-1.479,0.127c-1.014-0.477-1.214-1.33-1.429-1.989c-0.187-0.704-0.27-1.376-0.301-2.091l0.936,0.28    c-1.381,1.762-2.849,3.423-4.379,5.026C194.063,162.829,192.509,164.404,190.866,165.886z"/>
		<path style="fill:#AE312F;" d="M135.141,106.682c0,0,10.444,6.247,19.884,1.998"/>
		<path style="fill:#AE312F;" d="M63.066,130.422c0,0,10.156-2.42,12.193-11.996"/>
		<path style="fill:#AE312F;" d="M163.892,501.84c-1.176-0.587-2.004-1.675-2.537-2.849c-0.557-1.185-0.753-2.509-0.742-3.806    c0.157-2.589,1.237-5.075,3.28-6.641c-0.031,1.306-0.215,2.435-0.337,3.542c-0.112,1.105-0.233,2.154-0.265,3.198    C163.223,497.381,163.348,499.368,163.892,501.84z"/>
		<path style="fill:#AE312F;" d="M352.627,471.879c-1.448-0.31-2.731-0.954-3.92-1.701c-1.201-0.741-2.28-1.641-3.291-2.607    c-1.959-1.986-3.653-4.292-4.452-7.116c1.277,0.748,2.335,1.615,3.372,2.49c1.035,0.874,2,1.794,2.961,2.718    C349.18,467.566,350.992,469.471,352.627,471.879z"/>
		<path style="fill:#AE312F;" d="M336.489,467.201c2.294,2.053,4.015,4.286,5.758,6.509c1.715,2.267,3.322,4.42,5.092,6.926    c-3.039-0.781-5.391-2.977-7.218-5.295C338.352,472.941,336.927,470.271,336.489,467.201z"/>
		<path style="opacity:0.48;fill:#AE312F;" d="M260.806,267.961c-1.923-0.326-3.863-1.12-5.331-2.747    c-0.355-0.415-0.661-0.89-0.898-1.415c-0.095-0.302-0.221-0.466-0.282-0.893c-0.081-0.41,0.028-0.913,0.232-1.277    c0.937-1.381,2.048-1.593,3.026-1.971c2.014-0.587,3.982-0.83,5.956-0.949c1.974-0.144,3.918-0.135,5.904-0.046l-0.759,2.381    c-1.227-0.844-2.257-1.782-3.242-2.91c-0.484-0.567-0.938-1.184-1.276-1.942c-0.295-0.787-0.651-1.622-0.155-2.831    c0.64-1.083,1.592-1.253,2.296-1.411c0.748-0.134,1.467-0.167,2.17-0.12c1.404,0.06,2.763,0.312,4.084,0.684    c-1.366,0.091-2.718,0.213-4.015,0.435c-0.648,0.112-1.275,0.275-1.835,0.473c-0.566,0.18-1.017,0.571-1.005,0.732    c-0.023,0.08,0.075,0.673,0.359,1.072c0.284,0.447,0.681,0.895,1.102,1.329c0.846,0.864,1.938,1.634,2.937,2.318l3.563,2.441    l-4.322-0.059c-1.871-0.025-3.79,0.019-5.67,0.071c-1.874,0.101-3.776,0.176-5.507,0.543c-0.824,0.146-1.759,0.497-1.941,0.741    c-0.036,0.047-0.068,0.04-0.067,0.107c-0.028,0.054,0.053,0.34,0.07,0.506c0.095,0.382,0.248,0.762,0.462,1.128    C257.537,265.824,259.118,267.015,260.806,267.961z"/>
		<path style="fill:#FFC792;" d="M255.596,400.737c0,0-17.549-11.783-27.202-32.645c-19.329-41.776-9.687-73.364,12.942-89.718    c0,0-36.487-57.986-94.629-48.026c-53.523,9.161-66.777,49.585-60.695,92.076c11.519,25.124,27.58,48.533,49.137,66.816    C135.149,389.24,203.895,448.521,255.596,400.737z"/>
		<path style="opacity:0.48;fill:#AE312F;" d="M269.365,267.031c-8.991,1.746-17.695,5.041-25.185,10.19    c-3.771,2.527-7.163,5.558-10.293,8.803c-1.415,1.759-3.023,3.361-4.226,5.276l-1.919,2.779l-1.65,2.946    c-4.353,7.888-6.544,16.837-6.94,25.814c-0.403,9.001,1.003,18.042,3.573,26.702l0.933,3.262l1.146,3.199    c0.76,2.134,1.491,4.281,2.455,6.339c1.767,4.185,3.646,8.31,5.963,12.197c4.532,7.831,10.356,14.879,17.148,20.854    c6.813,5.957,14.707,10.678,23.139,14.081c8.428,3.413,17.419,5.605,26.573,6.121c-18.366-0.054-36.719-6.812-51.048-18.63    c-7.198-5.891-13.159-13.218-17.914-21.185c-2.416-3.976-4.383-8.19-6.218-12.432c-1-2.09-1.769-4.278-2.566-6.454l-1.201-3.264    c-0.354-1.104-0.658-2.226-0.982-3.34c-2.558-8.911-3.933-18.245-3.433-27.569c0.524-9.275,2.766-18.646,7.579-26.692l1.793-3.006    l2.062-2.826c1.299-1.942,3-3.561,4.508-5.328c3.317-3.257,6.871-6.283,10.806-8.74    C251.351,271.245,260.268,268.184,269.365,267.031z"/>
		<path style="opacity:0.48;fill:#AE312F;" d="M152.171,283.692c-1.68-0.375-3.404-0.712-5.014-0.55    c-0.785,0.086-1.542,0.339-1.862,0.783c-0.088,0.112-0.171,0.234-0.123,0.266c-0.04,0.021,0.013,0.115,0.041,0.197    c0.072,0.184,0.261,0.47,0.521,0.726c0.992,1.089,2.497,1.984,3.898,2.849c1.423,0.87,2.944,1.66,4.425,2.402l3.316,1.662    l-3.664,0.754c-1.373,0.283-2.787,0.647-4.113,1.079c-0.658,0.228-1.308,0.457-1.898,0.721c-0.286,0.137-0.552,0.278-0.768,0.422    c-0.182,0.079-0.385,0.426-0.204,0.068c0.032-0.273-0.005-0.507-0.136-0.618c0.061-0.003-0.043-0.006,0.103,0.063    c0.16,0.112,0.454,0.237,0.736,0.35c0.597,0.23,1.273,0.427,1.95,0.605c1.367,0.347,2.809,0.592,4.211,0.843l2.01,0.359    l-1.332,1.429c-0.544,0.583-1.071,1.587-1.372,2.53c-0.336,0.97-0.499,2.017-0.532,3.082c-0.108,2.15,0.402,4.345,1.111,6.497    l-0.876-1.468c-0.229-0.521-0.491-1.036-0.697-1.574c-0.402-1.08-0.75-2.207-0.894-3.391c-0.123-1.181-0.104-2.401,0.138-3.609    c0.283-1.222,0.662-2.337,1.536-3.509l0.677,1.788c-1.523-0.094-2.995-0.309-4.508-0.583c-0.757-0.157-1.514-0.311-2.303-0.583    c-0.402-0.155-0.798-0.299-1.259-0.587c-0.195-0.084-0.523-0.402-0.746-0.635c-0.294-0.433-0.546-1.009-0.344-1.647    c0.383-1.071,0.821-1.205,1.212-1.56c0.392-0.274,0.774-0.482,1.15-0.67c0.747-0.357,1.484-0.629,2.226-0.858    c1.485-0.45,2.935-0.794,4.453-1.077l-0.348,2.417c-1.572-0.848-3.044-1.767-4.51-2.769c-1.441-1.046-2.868-2.071-4.08-3.643    c-0.286-0.397-0.58-0.866-0.707-1.507c-0.208-0.621,0.226-1.581,0.644-1.862c0.898-0.83,2.007-0.857,2.905-0.801    C148.987,282.257,150.638,282.872,152.171,283.692z"/>
		<path style="opacity:0.48;fill:#AE312F;" d="M258.801,198.578c1.887,1.217,3.527,2.713,4.958,4.482    c0.712,0.915,1.374,1.825,1.779,3.259c0.121,0.32,0.116,0.84,0.033,1.345c-0.13,0.49-0.541,1.22-1.012,1.407    c-0.229,0.135-0.51,0.294-0.721,0.349l-0.594,0.097c-0.43,0.076-0.75,0.054-1.061,0.032c-2.578-0.218-4.682-1.383-6.493-2.728    c-1.813-1.359-3.377-2.988-4.568-4.891c1.951,1.086,3.799,2.18,5.672,3.113c1.858,0.9,3.782,1.743,5.562,1.831    c0.231,0.03,0.452,0.046,0.559,0.014l0.214-0.004c0.048-0.009-0.009-0.028,0.004-0.007c0.068,0.016-0.14,0.129-0.071,0.165    c-0.028-0.036,0.038-0.058-0.013-0.265c-0.07-0.69-0.582-1.665-1.028-2.569L258.801,198.578z"/>
		<path style="opacity:0.48;fill:#AE312F;" d="M251.728,312.046c-0.501,2.043-1.027,4.163-0.818,6.092    c0.081,0.976,0.479,1.67,1.042,1.737c0.184,0.147,0.811-0.415,1.275-1.251c0.947-1.634,1.603-3.627,2.22-5.576    c0.631-1.956,1.129-3.996,1.636-5.977l1.807-7.063l0.797,7.226c0.168,1.527,0.603,3.22,1.307,4.452    c0.364,0.616,0.814,1.066,1.317,1.266c0.534,0.224,0.742,0.212,1.199-0.245c0.841-1.011,1.288-2.829,1.607-4.481    c0.349-1.703,0.493-3.457,0.672-5.226c0.365,1.749,0.482,3.528,0.518,5.337c-0.069,1.804-0.045,3.66-1.241,5.575    c-0.323,0.464-0.821,0.948-1.505,1.185c-0.687,0.245-1.403,0.173-1.964-0.008c-1.183-0.358-2.056-1.22-2.642-2.07    c-1.181-1.762-1.619-3.584-1.897-5.533l2.604,0.163c-0.451,2.127-1.072,4.16-1.759,6.212c-0.731,2.036-1.52,4.055-2.857,5.981    c-0.347,0.475-0.751,0.95-1.321,1.375c-0.504,0.424-1.581,0.797-2.407,0.398c-0.711-0.272-1.31-0.926-1.539-1.582    c-0.257-0.657-0.28-1.283-0.256-1.867C249.775,315.854,250.641,313.885,251.728,312.046z"/>
		<path style="fill:#AE312F;" d="M329.466,130.889c-1.832,2.612-4.678,5.009-6.276,6.471c-6.452,5.886-12.786,11.968-19.393,17.679    c-2.651,2.28-11.403,6.549-11.559-0.293c-0.019-0.663,0-1.345,0.059-1.988c0.702-9.278,7.329-18.594,13.741-25.26    c3.294,0.312,6.568,0.624,9.843,0.994C320.89,129.038,325.393,129.876,329.466,130.889z"/>
		<path style="fill:#AE312F;" d="M283.643,125.958c-1.481,2.105-3.235,4.035-4.775,6.101c-4.581,6.218-6.997,13.761-11.168,20.251    c-1.735,2.69-4.288,5.458-7.485,5.263c-2.436-0.156-4.483-2.105-5.418-4.346c-0.936-2.261-0.955-4.795-0.799-7.231    c0.429-7.212,2.222-14.462,5.574-20.855C267.056,125.276,275.203,125.529,283.643,125.958z"/>
		<g>
			<path style="fill:#6CE0C0;" d="M318.794,86.816l-18.185,31.517c-16.587,1.365-32.96,6.12-46.759,15.632     c-7.738,5.36-26.82,32.414-30.991,38.339c-4.171,5.906-9.024,11.305-14.443,16.061c-10.603,9.317-23.506,16.158-37.033,19.667     c-4.152,1.072-12.143,2.631-24.715,3.762c-0.487,0.039-0.974,0.097-1.481,0.136c-0.02,0-0.039,0-0.039,0l5.886-7.816     c0.857-0.098,1.734-0.215,2.67-0.371c9.297-1.364,22.142-4.405,29.334-8.986c16.665-10.642,28.769-27.619,36.331-45.668     c5.731-13.683,10.019-26.839,20.115-38.125c8.868-9.902,20.037-17.503,31.907-23.389c1.988-0.994,6.568-4.19,8.907-3.996     L318.794,86.816z"/>
			<path style="fill:#6CE0C0;" d="M153.704,203.743l-7.036,8.05c-0.487,0.039-0.974,0.097-1.481,0.136c-0.02,0-0.039,0-0.039,0     c-3.528-0.351-13.215-1.54-18.108-4.483c-6.042-3.645-3.025-17.768-3.025-17.768l10.997-2.772l12.61,8.066L153.704,203.743z"/>
			<path style="fill:#FFFFFF;" d="M82.691,195.146c0,0,33.084-2.698,46.482-6.78c0,0-1.367,12.938-2.734,19.877     C126.439,208.243,90.174,199.719,82.691,195.146z"/>
			<path style="fill:#FFFFFF;" d="M129.173,188.366l16.916,13.559c0,0,35.528-21.523,47.449-38.585     C193.538,163.34,155.026,182.633,129.173,188.366z"/>
		</g>
		<path style="fill:#AE312F;" d="M327.615,221.932c-1.403,0.526-2.846,0.975-4.268,1.442c-8.245,2.651-16.607,5.321-25.241,5.847    c-2.709,0.156-5.691,0-7.699-1.793c-2.651-2.378-2.456-6.822-0.526-9.804c1.949-2.982,5.146-4.853,8.284-6.568    c2.69-1.481,8.615-4.717,15.262-7.426C317.83,208.503,322.742,214.584,327.615,221.932z"/>
		<path style="fill:#AE312F;" d="M342.642,250.097c-7.504,3.489-24.169,3.119-27.521,2.787c-1.774-0.176-3.898-0.663-4.463-2.359    c-0.409-1.17,0.136-2.456,0.838-3.45c3.898-5.457,16.529-10.33,25.611-8.888C339.036,241.93,340.888,245.887,342.642,250.097z"/>
		<path style="fill:#AE312F;" d="M355.584,305.842c-7.699,0.156-15.573-0.331-23.253-0.565c-6.003-0.214-13.566-0.429-18.36-4.541    c-4.756-4.074-1.715-10.311,3.001-13.118c2.865-1.734,6.218-2.456,9.512-3.04c8.615-1.52,17.366-2.261,26.118-2.203    c0.39,1.793,0.741,3.606,1.072,5.438C354.785,294.03,355.409,300.053,355.584,305.842z"/>
		<path style="fill:#AE312F;" d="M353.713,330.927c-0.994,5.321-2.319,10.35-3.879,15.086c-5.34-1.189-10.544-3.489-15.554-5.75    c-4.327-1.969-8.673-3.957-12.63-6.588c-2.027-1.345-4.171-3.742-3.021-5.886c0.702-1.325,2.378-1.793,3.879-1.988    c6.121-0.78,12.28,0.702,18.244,2.261C344.358,329.017,349.23,329.738,353.713,330.927z"/>
		<path style="fill:#AE312F;" d="M340.537,367.336c-3.372,6.081-6.919,11.324-10.233,15.69    c-7.719-5.653-15.106-13.917-17.893-17.094c-2.066-2.358-5.321-8.05-0.877-9.96c3.879-1.657,11.753,1.91,14.501,2.963    C331.201,360.943,336.288,363.691,340.537,367.336z"/>
		<g>
			<path style="fill:#AE312F;" d="M420.081,145.527v0.02l-0.058,30.114l-52.353,157.664c-0.078,0-0.136-0.019-0.195-0.019     c-13.078-1.111-23.311-0.409-30.328-13.449l-1.812-3.528c-0.877-1.754-1.774-3.586-2.69-5.438l-0.975-2.027     c-2.398-4.931-4.873-10.116-7.329-15.281c-0.721-1.54-1.442-3.021-2.144-4.424c-1.462-2.982-2.865-5.692-4.171-8.186     l-1.735-3.372c-4.795-9.141-7.952-15.203-8.245-20.816c-0.273-5.009,1.598-10.311,6.413-15.846     c7.094-8.147,18.049-21.421,29.412-35.337c4.834-5.906,9.726-11.909,14.443-17.698c2.105-2.573,4.171-5.126,6.179-7.582     c4.97-6.101,9.57-11.733,13.429-16.411c4.308-5.224,7.699-9.297,9.706-11.578c4.288-4.873,8.615-9.141,16.607-9.882     C411.621,141.785,420.081,145.527,420.081,145.527z"/>
			<path style="fill:#FF5555;" d="M384.509,175.154c-0.604,0.877-1.754,1.189-2.69,0.682c-2.592-1.364-8.537-3.021-16.509,4.093     c-0.273,0.234-0.526,0.468-0.76,0.741c-1.969,1.93-3.411,4.191-4.425,6.53c-1.93,4.405-2.436,9.161-2.417,12.961     c0.019,6.841-7.894,10.798-13.098,6.374c-0.078-0.078-0.137-0.136-0.215-0.195c-0.234-0.195-0.409-0.448-0.526-0.741     c-0.039-0.039-0.058-0.098-0.078-0.156c-1.832-5.146-1.93-10.798-0.702-16.256c3.84,0.156,8.478,0.156,12.474-0.604     c0.955-0.175,1.891-0.409,2.749-0.682c2.105-2.573,4.171-5.126,6.179-7.582c-0.117-0.819-0.409-1.618-0.819-2.397     c1.774-1.17,7.68-5.594,6.081-11.714c-0.175-0.663-0.448-1.306-0.799-1.988h-0.02c-0.214-0.39-0.448-0.78-0.721-1.17     c0.234-0.019,0.448-0.039,0.682-0.058c3.294-0.292,6.393,0.176,9.024,0.916c3.664,1.014,6.432,2.534,7.621,3.235     c0.409,0.253,0.741,0.604,0.877,1.053C387.121,170.632,385.679,173.419,384.509,175.154z"/>
			<path style="fill:#FF5555;" d="M452.749,234.149l-75.295,95.487c-4.619,5.828-13.722,4.892-17.055-1.754l-32.355-64.808     c-1.696-3.391-1.365-7.446,0.877-10.506l77.75-100.184c4.678-6.413,13.8-10.662,16.821-3.313l5.496,13.429l8.303,20.271     l7.835,19.14l8.264,20.212l0.78,1.891C455.556,227.405,455.01,231.264,452.749,234.149z"/>
			<path style="fill:#FF9C3D;" d="M437.293,182.771c-2.573,1.306-8.615,3.586-11.344-1.754c-2.748-5.36,1.208-14.716,3.04-18.516     L437.293,182.771z"/>
			<path style="fill:#FF9C3D;" d="M453.392,222.123c-2.904,0.604-7.192,0.702-9.375-3.08c-2.709-4.697-0.176-13.429,1.111-17.133     L453.392,222.123z"/>
			<path style="fill:#FF9C3D;" d="M368.392,308.566l-11.422,12.435c0,0-16.033-1.33-19.823-1.145l-2.585-5.004l-2.902-5.984     l19.618,0.75l10.583-10.72C371.685,299.912,368.392,308.566,368.392,308.566z"/>
			<path style="fill:#FF9C3D;" d="M353.227,276.854l-11.636,13.351c0,0-14.287-0.897-19.394-1.053l-5.906-11.558l19.433,0.838     l0.565,0.02l11.032-12.338C357.165,267.128,353.227,276.854,353.227,276.854z"/>
			<path style="opacity:0.2;fill:#AE312F;" d="M341.591,290.206c0,0-14.287-0.897-19.394-1.053l-5.906-11.558l19.433,0.838     L341.591,290.206z"/>
			<path style="opacity:0.2;fill:#AE312F;" d="M356.969,321.002c0,0-16.626-1.321-19.823-1.145l-5.487-10.988l19.618,0.75     L356.969,321.002z"/>
		</g>
		<path style="opacity:0.48;fill:#AE312F;" d="M347.281,165.895l2.685,1.106l2.603,1.294c1.742,0.857,3.46,1.769,5.079,2.868    c1.628,1.078,3.197,2.278,4.589,3.714c1.377,1.426,2.606,3.18,2.996,5.334l-0.031-0.128l0.094,0.463l0.007,0.035l0.001,0.036    l0.035,0.908l0.002-0.054c-0.005,2.499-1.599,4.612-3.51,5.819c-1.905,1.265-4.079,1.781-6.156,2.309    c-4.225,0.87-8.493,0.907-12.693,0.761c-8.331-0.309-16.717-0.971-24.97-1.407c-8.24-0.473-16.57-0.471-24.518,1.315    c-3.942,0.998-7.907,2.346-11.88,3.56l-5.97,1.873l-3.014,0.899c-1.059,0.275-1.925,0.596-3.275,0.721l0.466-1.411    c1.648,1.349,3.245,2.677,4.496,4.566c0.29,0.475,0.589,1.052,0.564,1.82c-0.037,0.204-0.087,0.412-0.156,0.6    c-0.121,0.159-0.259,0.317-0.403,0.458c-0.289,0.256-0.605,0.31-0.909,0.45c-1.167,0.232-2.219,0.126-3.283-0.016    c-4.192-0.785-7.88-2.841-11.281-5.145c3.589,1.968,7.409,3.767,11.399,4.245c0.978,0.075,2.01,0.079,2.863-0.15    c0.352-0.192,0.643-0.303,0.564-0.528c-0.016-0.254-0.182-0.66-0.461-1.029c-1.1-1.507-2.742-2.839-4.325-4.013l-1.516-1.124    l1.982-0.288c0.724-0.105,1.847-0.465,2.783-0.771l2.939-1.005l5.88-2.103c3.93-1.418,7.847-2.803,11.974-3.898    c8.331-1.981,16.857-2.084,25.221-1.696c8.383,0.552,16.606,1.314,24.928,1.731c4.113,0.174,8.239,0.208,12.227-0.415    c1.959-0.422,3.933-0.813,5.57-1.821c1.626-0.927,2.84-2.544,2.92-4.304l0.002-0.045v-0.01l-0.004-0.69l0.009,0.07l-0.023-0.238    l-0.031-0.13c-0.224-1.7-1.235-3.306-2.423-4.727c-1.21-1.423-2.651-2.687-4.172-3.84c-1.51-1.175-3.151-2.186-4.819-3.145    l-2.481-1.489L347.281,165.895z"/>
		<path style="opacity:0.48;fill:#AE312F;" d="M363.186,178.233c2.089-1.902,3.933-4.028,4.952-6.391    c0.495-1.179,0.725-2.401,0.674-3.587c-0.029-0.597-0.159-1.178-0.313-1.752l-0.71-1.683l1.167,0.712l-0.019,0l-0.748,0.01    l-0.403-0.69c-0.778-1.334-1.845-2.624-2.988-3.828c-1.167-1.192-2.369-2.396-3.674-3.504c-2.562-2.277-5.272-4.434-7.976-6.711    c3.333,1.209,6.434,2.937,9.357,4.963c1.442,1.038,2.86,2.146,4.145,3.43c1.287,1.284,2.527,2.655,3.436,4.383l-1.15-0.68l0.019,0    l0.897,0.012l0.271,0.701l0.858,2.22c0.168,0.79,0.262,1.595,0.239,2.405c-0.03,1.623-0.563,3.181-1.351,4.492    c-0.789,1.318-1.839,2.403-2.97,3.318C365.76,176.963,364.515,177.712,363.186,178.233z"/>
	</g>
</g>















</svg>
