<?xml version="1.0" encoding="UTF-8"?>
<!-- Generator: Adobe Illustrator 25.3.1, SVG Export Plug-In . SVG Version: 6.00 Build 0)  -->
<svg xmlns="http://www.w3.org/2000/svg" xmlns:xlink="http://www.w3.org/1999/xlink" version="1.1" id="Capa_1" x="0px" y="0px" viewBox="0 0 512 512" style="enable-background:new 0 0 512 512;" xml:space="preserve" width="512" height="512">
<g>
	<g>
		<polygon style="fill:#FF486B;" points="159.969,400.146 332.481,355.436 384.28,405.755 223.083,464.705   "/>
		
			<rect x="197.084" y="389.914" transform="matrix(0.7641 -0.6452 0.6452 0.7641 -231.1013 229.9084)" style="fill:#001B42;" width="3.37" height="81.982"/>
		<polygon style="fill:#001B42;" points="378.3,402.929 227.118,458.234 178.815,398.745 331.912,358.316   "/>
		
			<rect x="212.245" y="385.596" transform="matrix(0.7861 -0.6182 0.6182 0.7861 -217.1293 223.2349)" style="fill:#FF486B;" width="3.372" height="79.393"/>
		
			<rect x="226.008" y="382.658" transform="matrix(0.8167 -0.5771 0.5771 0.8167 -201.0781 208.5391)" style="fill:#FF486B;" width="3.372" height="76.203"/>
		
			<rect x="344.093" y="349.991" transform="matrix(0.7147 -0.6994 0.6994 0.7147 -170.253 351.5164)" style="fill:#FF486B;" width="3.372" height="68.943"/>
		
			<rect x="331.579" y="353.402" transform="matrix(0.7236 -0.6902 0.6902 0.7236 -175.9471 337.3734)" style="fill:#FF486B;" width="3.373" height="69.94"/>
		
			<rect x="237.888" y="380.006" transform="matrix(0.8162 -0.5777 0.5777 0.8162 -196.7607 214.9932)" style="fill:#FF486B;" width="3.375" height="73.572"/>
		
			<rect x="319.696" y="357.096" transform="matrix(0.7338 -0.6794 0.6794 0.7338 -180.7095 322.6586)" style="fill:#FF486B;" width="3.374" height="69.666"/>
		
			<rect x="215.348" y="423.356" transform="matrix(0.9402 -0.3407 0.3407 0.9402 -127.0451 126.6437)" style="fill:#FF486B;" width="163.417" height="3.375"/>
		
			<rect x="210.13" y="415.893" transform="matrix(0.9456 -0.3255 0.3255 0.9456 -120.0548 117.5072)" style="fill:#FF486B;" width="162.108" height="3.375"/>
		
			<rect x="201.694" y="407.544" transform="matrix(0.9477 -0.3191 0.3191 0.9477 -115.8285 111.5789)" style="fill:#FF486B;" width="161.73" height="3.373"/>
		
			<rect x="193.744" y="398.902" transform="matrix(0.9508 -0.3097 0.3097 0.9508 -110.5625 104.6776)" style="fill:#FF486B;" width="161.372" height="3.369"/>
		
			<rect x="187.899" y="391.845" transform="matrix(0.9558 -0.2941 0.2941 0.9558 -103.8663 96.3695)" style="fill:#FF486B;" width="161.176" height="3.372"/>
		
			<rect x="180.878" y="383.788" transform="matrix(0.9583 -0.2856 0.2856 0.9583 -99.2262 90.5943)" style="fill:#FF486B;" width="160.186" height="3.372"/>
		
			<rect x="248.876" y="376.803" transform="matrix(0.8034 -0.5954 0.5954 0.8034 -194.2989 229.5958)" style="fill:#FF486B;" width="3.372" height="64.502"/>
		
			<rect x="261.786" y="374.014" transform="matrix(0.8195 -0.5731 0.5731 0.8195 -184.8265 224.189)" style="fill:#FF486B;" width="3.375" height="62.964"/>
		
			<rect x="274.93" y="371.79" transform="matrix(0.8601 -0.5101 0.5101 0.8601 -166.0943 197.2735)" style="fill:#FF486B;" width="3.372" height="59.331"/>
		
			<rect x="287.316" y="367.413" transform="matrix(0.8486 -0.5291 0.5291 0.8486 -166.3326 213.0499)" style="fill:#FF486B;" width="3.372" height="59.345"/>
		
			<rect x="301.34" y="363.214" transform="matrix(0.8175 -0.576 0.576 0.8175 -170.8459 246.2133)" style="fill:#FF486B;" width="3.37" height="58.869"/>
	</g>
	<g>
		<path style="fill:#FF486B;" d="M361.126,356.474l14.87,8.747l40.339-6.578C416.334,358.643,382.604,320.327,361.126,356.474z"/>
		<path style="fill:#001B42;" d="M368.869,361.338l-1.183-0.74c0.024-0.129,2.614-12.883,16.537-14.036l0.112,1.346    C371.454,348.978,368.96,360.853,368.869,361.338z"/>
		<path style="fill:#001B42;" d="M372.883,363.628l-1.534-0.708c0.116-0.059,12.669-7.436,12.713-13.585    c0.016-2.574-2.023-4.939-6.072-7.035l0.623-1.2c4.532,2.349,6.825,5.122,6.801,8.246    C385.363,356.318,373.382,363.376,372.883,363.628z"/>
	</g>
	<g>
		<g>
			<path style="fill:#001B42;" d="M79.667,358.269c-20.28,4.287-25.688-21.631-25.688-21.631l18.199-4.787     c-0.906-6.976,4.137-11.521,4.531-11.872c-1.488,0.408-73.026,20.28-76.595-0.014c-3.543-20.199,77.027-37.329,79.501-37.845     c-69.578,23.201-68.225,35.371-68.225,35.371l77.285-10.14C88.674,307.351,99.95,353.999,79.667,358.269z"/>
			<path style="fill:#0090BC;" d="M77.832,343.425c-4.482-4.557-6.645-9.219-6.43-13.846c0.288-6.178,4.707-9.971,4.896-10.129     l0.875,1.033c-0.043,0.037-4.166,3.594-4.418,9.175c-0.193,4.234,1.837,8.547,6.041,12.82L77.832,343.425z"/>
			<path style="fill:#0090BC;" d="M71.119,349.334c-9.466,0-13.297-13.814-13.337-13.963l1.305-0.351     c0.041,0.146,4.049,14.579,13.679,12.807l0.247,1.327C72.358,349.278,71.729,349.334,71.119,349.334z"/>
			<path style="fill:#0090BC;" d="M74.592,344.229c-8.218,0-10.659-10.535-10.686-10.64l1.322-0.295     c0.02,0.096,2.232,9.584,9.364,9.584V344.229z"/>
		</g>
		<g>
			<path style="fill:#001B42;" d="M209.579,302.39l12.842,46.647c0,0-45.634-7.775-37.183,18.927l97.69-8.788v-6.423l-49.367-4.392     l2.043-53.747L209.579,302.39z"/>
			<polygon style="fill:#001B42;" points="366.757,287.066 90.933,328.529 48.115,104.534 384.336,47.295    "/>
			<polygon style="fill:#45D895;" points="361.576,279.404 94.537,317.488 59.835,109.943 375.995,55.859    "/>
			<g>
				<path style="fill:#FFFFFF;" d="M195.289,179.633l54.942,2.651c0,0-7.139,35.645-28.296,38.677      C200.777,223.994,195.289,179.633,195.289,179.633z"/>
				
					<rect x="203.464" y="172.522" transform="matrix(1 -0.0057 0.0057 1 -1.1144 1.1701)" style="fill:#45D895;" width="1.898" height="46.542"/>
				
					<rect x="211.364" y="161.213" transform="matrix(0.9993 -0.0367 0.0367 0.9993 -6.9336 7.9276)" style="fill:#45D895;" width="1.899" height="62.951"/>
				
					<rect x="191.994" y="192.139" transform="matrix(0.035 -0.9994 0.9994 0.035 23.0579 410.0573)" style="fill:#45D895;" width="63.746" height="1.899"/>
				
					<rect x="234.636" y="165.591" transform="matrix(0.9995 -0.0305 0.0305 0.9995 -5.8322 7.2737)" style="fill:#45D895;" width="1.898" height="58.565"/>
				
					<rect x="223.825" y="158.864" transform="matrix(0.0821 -0.9966 0.9966 0.0821 10.8457 404.0707)" style="fill:#45D895;" width="1.901" height="74.567"/>
			</g>
			<polygon style="fill:#FFFFFF;" points="149.277,162.749 173.163,157.958 179.925,203.709 159.642,205.226    "/>
			<polygon style="fill:#FFFFFF;" points="263.593,144.619 287.931,143.519 287.653,189.765 267.718,190.034    "/>
			<path style="fill:#FFFFFF;" d="M134.904,152.348c-0.059-0.447-1.358-11.028,6.377-20.713c6.744-8.449,18.021-13.453,33.51-14.874     l0.616,6.735c-13.519,1.238-23.195,5.363-28.763,12.256c-5.969,7.39-5.079,15.387-5.035,15.724L134.904,152.348z"/>
			<path style="fill:#FFFFFF;" d="M297.572,128.58c-16.015-26.895-38.385-14.237-39.329-13.685l-3.412-5.837     c0.292-0.169,29.147-16.522,48.552,16.064L297.572,128.58z"/>
			<polygon style="fill:#FFFFFF;" points="233.084,245.705 237.792,230.891 213.471,236.758 222.961,246.381 215.542,282.815      235.085,295.465 248.762,275.585    "/>
			<polygon style="opacity:0.2;fill:#FFFFFF;" points="155.097,101.831 69.253,116.695 98.145,311.115    "/>
			<polygon style="opacity:0.2;fill:#FFFFFF;" points="284.695,284.814 367.686,142.781 358.621,274.785    "/>
		</g>
		<g>
			<path style="fill:#0090BC;" d="M422.764,221.939c0,0-20.058-17.576-17.126-20.283c2.927-2.702,21.113,13.973,21.113,13.973     s-4.439-34.703,6.152-34.027c10.589,0.676,3.603,40.337,3.603,40.337l-11.04,9.689L422.764,221.939z"/>
			<g>
				<path style="fill:#001B42;" d="M426.752,225.543c0,0,16.516-17.577,25.304-12.392c8.791,5.182-5.631,44.166-5.631,44.166      L426.752,225.543z"/>
				<polygon style="fill:#0090BC;" points="436.307,228.106 435.775,226.862 455.163,218.526 455.163,219.999     "/>
				<polygon style="fill:#0090BC;" points="442.182,233.354 441.74,232.076 454.675,227.61 454.483,229.104     "/>
			</g>
			<path style="fill:#001B42;" d="M369.355,262.05c0,0,19.603,66.027,50.026,15.099l-7.887-6.084     C411.493,271.065,396.848,309.599,369.355,262.05z"/>
			<g>
				<path style="fill:#0090BC;" d="M458.029,233.884c-13.094,0-25.093,3.438-34.44,9.155l-3.628-5.269v7.527l0.112,0.098      c-9.884,7.21-16.015,17.206-16.015,28.264c0,21.965,24.165,39.771,53.972,39.771S512,295.623,512,273.658      C512,251.688,487.835,233.884,458.029,233.884z"/>
				<path style="fill:#FFFFFF;" d="M481.504,283.754c-3.381-11.842-20.568-8.151-21.889-7.853      c1.51-0.475,23.526-7.669,15.466-19.214c-2.282-3.272-6.383-4.405-11.125-4.335l-2.337-7.624l-6.927,1.693l2.683,6.656      c-2.882,0.547-5.804,1.341-8.555,2.232l-2.071-6.86l-6.986,2.702l3.077,6.302c-5.011,1.963-8.539,3.749-8.539,3.749l2.922,5.178      l7.665-2.256l9.259,33.056l-7.228,1.295l2.028,5.993c0,0,3.07-0.69,7.324-1.971l1.759,3.752l5.958-1.781l-1.619-3.986      c2.836-1.026,5.79-2.24,8.52-3.617l1.381,4.144l5.748-2.364l-2.415-4.526C479.895,291.175,482.627,287.687,481.504,283.754z       M475.31,283.281c2.027,6.248-15.211,10.143-15.211,10.143l-3.042-10.143C460.099,280.065,473.283,277.037,475.31,283.281z       M451.31,262.164c3.046-3.221,16.225-6.261,18.252,0c2.031,6.244-15.206,10.14-15.206,10.14L451.31,262.164z"/>
			</g>
			<g>
				<path style="fill:#001B42;" d="M445.067,242.891c-1.975,8.195-10.939,5.585-18.186-1.703c-2.449,1.256-4.744,2.678-6.867,4.234      c-5.181-5.261-15.346-17.187-10.546-25.057c5.164-8.49,27.856,3.26,34.181,14.967      C445.04,237.929,445.636,240.527,445.067,242.891z"/>
				<path style="fill:#0090BC;" d="M439.296,248.634c-0.059,0-0.116,0-0.175-0.002c-7.887-0.166-19.684-11.31-22.203-24.083      l1.328-0.26c2.362,11.985,13.657,22.843,20.906,22.992c2.762,0.076,4.526-1.472,5.264-4.542      c1.789-7.4-9.229-18.032-20.273-22.598c-6.876-2.842-14.674,0.225-14.674,0.225c2.362-3.876,7.529-4.641,15.187-1.474      c11.575,4.78,23.072,15.881,21.075,24.162C444.86,246.662,442.579,248.634,439.296,248.634z"/>
			</g>
		</g>
	</g>
</g>















</svg>
