<?xml version="1.0" encoding="UTF-8"?>
<!-- Generator: Adobe Illustrator 25.2.3, SVG Export Plug-In . SVG Version: 6.00 Build 0)  -->
<svg xmlns="http://www.w3.org/2000/svg" xmlns:xlink="http://www.w3.org/1999/xlink" version="1.1" id="Capa_1" x="0px" y="0px" viewBox="0 0 512 512" style="enable-background:new 0 0 512 512;" xml:space="preserve" width="512" height="512">
<g>
	<path style="fill:#9CF0E7;" d="M318.931,49.762c-59.536,1.396-116.736,28.981-163.813,63.865   C110.417,146.75,63.936,187.384,44.39,240.995C13.738,325.073,84.59,401.23,165.98,410.183   c72.781,8.006,159.107-13.266,222.149-49.677c40.802-23.565,76.179-58.441,94.245-101.959   c13.27-31.966,18.465-69.156,10.51-103.108C475.249,80.175,393.938,48.003,318.931,49.762z"/>
	<g>
		<path style="fill:#AF312F;" d="M473.894,314.786c0.092,29.172-14.577,56.92-32.687,78.966    c-7.483,9.109-15.802,17.519-24.674,25.274c-14.049,12.28-29.568,22.835-45.934,31.776c-17.115,9.35-35.2,16.928-53.883,22.527    c-0.263,0.079-0.525,0.157-0.788,0.235c-10.235,3.025-20.681,5.312-31.225,6.955c-14.121,2.2-28.492,3.011-42.766,2.218    c-0.203-0.011-0.406-0.023-0.61-0.035c-11.819-0.717-23.6-2.672-34.939-6.108c-6.917-2.202-13.872-4.805-20.214-8.372    c-0.13-0.049-0.277-0.13-0.407-0.212c-12.4-6.713-23.592-16.466-30.864-28.646c-4.553-7.626-7.891-15.874-11.682-23.884    c-0.049-0.065-0.081-0.13-0.097-0.195c0.915,0.618,1.818,1.315,2.808,1.701c-0.264-0.103-0.549-9.408-0.655-10.391    c-0.396-3.683-0.772-7.342-0.626-11.051c0.252-6.378,1.693-12.827,3.32-18.98c9.06-34.263,32.805-62.476,59.761-84.527    c22.678-18.551,48.399-32.807,75.716-43.268c38.051-14.573,80.803-20.503,120.844-11.451c19.28,4.359,39.617,14.395,52.471,30    c0.076-1.622,0.227-3.246,0.351-4.867c0.049,0.081,0.098,0.163,0.13,0.244l1.303,2.802c0,0,0.554,1.189,0.554,1.189    c5.277,11.258,11.401,22.228,13.601,34.613C473.499,305.776,473.88,310.284,473.894,314.786z"/>
		<path style="opacity:0.49;fill:#FF9D3D;" d="M473.833,314.787c0.004,1.539-0.034,3.071-0.111,4.593    c-1.014,20.039-8.829,39.213-19.369,56.069c-0.894,1.429-1.81,2.845-2.745,4.248c-5.88,8.823-12.63,17.067-19.903,24.773    c-0.407,0.423-0.814,0.831-1.222,1.254c-3.306,3.453-6.808,6.841-10.457,10.18c-0.423,0.375-0.847,0.766-1.27,1.14    c-3.502,3.144-7.134,6.222-10.913,9.219c-0.44,0.342-0.88,0.684-1.319,1.026c-3.706,2.881-7.475,5.68-11.32,8.372    c-0.44,0.309-0.896,0.635-1.352,0.945c-3.779,2.59-7.672,5.131-11.679,7.574c-0.456,0.293-0.928,0.57-1.401,0.847    c-0.977,0.603-1.955,1.189-2.948,1.759c-4.234,2.43-8.486,4.832-12.825,7.072c-0.924,0.477-1.85,0.949-2.78,1.414    c-13.393,6.698-27.312,12.537-41.651,16.889c-4.324,1.313-8.678,2.603-13.062,3.699c-0.537,0.147-1.075,0.277-1.612,0.407    c-12.639,3.06-25.702,5.391-38.75,6.238c-0.731,0.059-1.47,0.066-2.199,0.147c-15.159,0.884-30.345,0.134-45.267-2.706    c-13.737-2.614-27.257-7.326-39.092-14.861c-9.899-6.302-18.951-14.795-25.132-24.815c-4.68-7.588-8.109-16.078-11.921-24.132    c-0.104-0.22-0.208-0.44-0.312-0.659c-0.049-0.065-0.081-0.13-0.098-0.195c0,0,3.062,2.069,3.062,2.069    c-5.527-24.627,3.31-52.192,15.79-73.313c26.595-45.011,73.097-76.906,121.308-95.119c23.313-8.807,47.909-14.296,72.817-15.597    c18.304-0.956,36.872,0.331,54.428,5.597c17.556,5.266,34.098,14.666,46.328,28.318c0.071-1.396,0.142-2.792,0.213-4.187    c0.022-0.432,1.729,2.983,2.032,3.633l6.108,13.031c0.554,1.026,1.091,2.069,1.596,3.127c0.293,0.635,0.586,1.254,0.863,1.89    C471.952,294.016,473.81,304.532,473.833,314.787z"/>
		<g style="opacity:0.47;">
			<path style="opacity:0.49;fill:#FF9D3D;" d="M368.752,451.727c-0.472,0.42-0.945,0.68-1.434,0.924l-93.707-199.973     c0.489-0.212,0.994-0.423,1.499-0.794L368.752,451.727z"/>
			<path style="opacity:0.49;fill:#FF9D3D;" d="M357.04,457.672c-0.065,0.192-0.147,0.224-0.212,0.257     c-0.423,0.195-0.831,0.391-1.254,0.586l-93.951-200.477c0.489-0.228,0.994-0.472,1.482-0.843L357.04,457.672z"/>
			<path style="opacity:0.49;fill:#FF9D3D;" d="M345.068,463.047c-0.505,0.371-1.01,0.582-1.515,0.794l-93.642-199.875     c0.489-0.261,0.961-0.521,1.45-0.924L345.068,463.047z"/>
			<path style="opacity:0.49;fill:#FF9D3D;" d="M332.836,467.868c-0.521,0.338-1.043,0.534-1.548,0.713l-92.827-198.132     c0.456-0.277,0.928-0.554,1.401-0.99L332.836,467.868z"/>
			<path style="opacity:0.49;fill:#FF9D3D;" d="M320.31,472.246c-0.521,0.163-1.043,0.326-1.58,0.313l-91.459-195.184     c0.456-0.134,0.912-0.444,1.384-0.737L320.31,472.246z"/>
			<path style="opacity:0.49;fill:#FF9D3D;" d="M307.507,475.703c-0.537,0.306-1.075,0.436-1.612,0.566l-89.505-191.03     c0.44-0.342,0.896-0.668,1.352-1.153L307.507,475.703z"/>
			<path style="opacity:0.49;fill:#FF9D3D;" d="M294.395,478.827c-0.554,0.098-1.108,0.212-1.645,0.151l-86.931-185.541     c0.423-0.199,0.847-0.558,1.287-0.9L294.395,478.827z"/>
			<path style="opacity:0.49;fill:#FF9D3D;" d="M280.957,481.058c-0.57,0.081-1.14,0.163-1.694,0.069l-83.69-178.618     c0.423-0.216,0.831-0.607,1.254-0.998L280.957,481.058z"/>
			<path style="opacity:0.49;fill:#FF9D3D;" d="M267.144,482.349c-0.603,0.208-1.189,0.24-1.759,0.273l-79.666-170.051     c0.391-0.424,0.798-0.847,1.205-1.429L267.144,482.349z"/>
			<path style="opacity:0.49;fill:#FF9D3D;" d="M252.908,483.045c-0.603,0.016-1.205,0-1.808-0.175l-74.813-159.642     c0.375-0.297,0.766-0.769,1.157-1.225L252.908,483.045z"/>
			<path style="opacity:0.49;fill:#FF9D3D;" d="M238.135,482.475c-0.635-0.049-1.254-0.098-1.873-0.163l-68.867-146.97     c0.358-0.505,0.717-1.026,1.075-1.531L238.135,482.475z"/>
			<path style="opacity:0.49;fill:#FF9D3D;" d="M222.71,480.505c-0.668-0.114-1.319-0.228-1.971-0.359l-61.554-131.382     c0.326-0.586,0.652-1.173,0.977-1.775L222.71,480.505z"/>
			<path style="opacity:0.49;fill:#FF9D3D;" d="M206.389,476.595c-0.717-0.228-1.417-0.44-2.117-0.668l-52.335-111.706     c0.261-0.684,0.537-1.368,0.83-2.052L206.389,476.595z"/>
			<path style="opacity:0.49;fill:#FF9D3D;" d="M188.553,469.477c-0.798-0.407-1.596-0.814-2.378-1.238l-39.874-85.091     c0.179-0.879,0.358-1.759,0.57-2.639L188.553,469.477z"/>
			<path style="opacity:0.49;fill:#FF9D3D;" d="M167.02,454.443c-1.189-1.14-2.329-2.297-3.437-3.502l-18.373-39.238     c-0.244-1.629-0.407-3.258-0.521-4.919L167.02,454.443z"/>
			<path style="opacity:0.49;fill:#FF9D3D;" d="M382.251,444.134c-0.342,0.253-1.006,0.617-1.479,0.895l-92.746-197.937     c0.521-0.179,1.043-0.358,1.548-0.696L382.251,444.134z"/>
			<path style="opacity:0.49;fill:#FF9D3D;" d="M395.204,435.504c-0.44,0.468-0.896,0.794-1.352,1.104l-91.019-194.272     c0.521-0.163,1.042-0.309,1.58-0.615L395.204,435.504z"/>
			<path style="opacity:0.49;fill:#FF9D3D;" d="M407.844,426.264c-0.44,0.342-0.88,0.684-1.319,0.867l-88.495-188.847     c0.538,0.029,1.091-0.085,1.645-0.199L407.844,426.264z"/>
			<path style="opacity:0.49;fill:#FF9D3D;" d="M420.027,415.746c-0.423,0.534-0.847,0.925-1.27,1.299l-85.074-181.55     c0.57-0.098,1.124-0.179,1.694-0.42L420.027,415.746z"/>
			<path style="opacity:0.49;fill:#FF9D3D;" d="M431.706,404.47c-0.407,0.423-0.814,0.831-1.222,1.095l-80.644-172.119     c0.586,0.11,1.173,0.077,1.743,0.045L431.706,404.47z"/>
			<path style="opacity:0.49;fill:#FF9D3D;" d="M442.766,391.574c-0.358,0.631-0.733,1.104-1.14,1.576l-75.04-160.18     c0.603,0,1.205,0.016,1.792-0.142L442.766,391.574z"/>
			<path style="opacity:0.49;fill:#FF9D3D;" d="M453.093,377.289c-0.326,0.68-0.684,1.218-1.042,1.755l-68.02-145.146     c0.635,0.049,1.27,0.114,1.906,0.037L453.093,377.289z"/>
			<path style="opacity:0.49;fill:#FF9D3D;" d="M462.41,360.805c-0.293,0.778-0.603,1.397-0.928,2.016l-58.997-125.926     c0.684,0.147,1.352,0.31,2.02,0.33L462.41,360.805z"/>
			<path style="opacity:0.49;fill:#FF9D3D;" d="M470.081,340.835c-0.212,0.941-0.44,1.739-0.7,2.521l-46.927-100.157     c0.766,0.293,1.515,0.619,2.264,0.802L470.081,340.835z"/>
			<path style="opacity:0.49;fill:#FF9D3D;" d="M473.877,316.562L445.861,256.8c1.01,0.782,1.987,1.612,2.948,2.284l25.035,53.442     C473.909,313.972,473.909,315.259,473.877,316.562z"/>
		</g>
		<path style="fill:#FF9D3D;" d="M465.078,297.765c-0.077,39.788-28.051,77.431-57.616,102.724    c-8.773,7.505-18.055,14.411-27.685,20.775c-28.721,18.983-61.098,32.511-94.916,39.081c-22.029,4.28-44.88,5.769-67.134,2.337    c-13.811-2.13-28.007-6.143-40.249-13.028c-14.512-7.735-26.914-19.337-34.255-34.173c-0.049-0.065-0.081-0.13-0.098-0.195    c-0.13-0.244-0.261-0.489-0.375-0.749c-10.49-21.973-8.975-47.643,2.134-73.184c16.761-38.604,55.462-76.93,107.845-101.9    c86.117-41.079,176.99-30.655,204.387,22.999c0.049,0.081,0.098,0.163,0.13,0.244c2.091,4.051,3.611,8.393,4.829,12.78    c1.199,4.316,2.045,8.728,2.525,13.181C464.926,291.681,465.084,294.724,465.078,297.765z"/>
		<path style="fill:#AF312F;" d="M428.509,300.476c-0.847-3.128-1.987-6.19-3.404-9.154c-20.523-43.018-92.143-51.65-160.001-19.302    c-58.019,27.658-94.489,76.36-90.987,116.788c-11.663-42.154,25.947-97.193,89.114-127.31    c67.857-32.365,139.477-23.716,160.001,19.302C426.212,287.022,427.939,293.635,428.509,300.476z"/>
		<path style="opacity:0.49;fill:#FF9D3D;" d="M428.629,300.476c-0.847-3.128-1.987-6.19-3.404-9.154    c-20.523-43.018-92.143-51.65-160.001-19.302c-58.019,27.658-94.489,76.36-90.987,116.788    c-11.663-42.154,25.947-97.193,89.114-127.31c67.857-32.365,139.477-23.716,160.001,19.302    C426.333,287.022,428.059,293.635,428.629,300.476z"/>
		<g style="opacity:0.3;">
			<path style="fill:#AF312F;" d="M292.251,335.753c-1.035-4.948-1.824-9.532-2.367-13.759c-0.544-4.225-0.508-8.165,0.111-11.815     c0.616-3.651,1.95-6.999,4.003-10.045c2.049-3.045,5.132-5.785,9.249-8.223c6.361-3.766,12.881-4.972,19.557-3.618     c6.676,1.353,12.968,5.208,18.879,11.563l11.366-6.729c0.685,0.732,1.694,1.902,3.028,3.513c1.331,1.61,2.552,3.352,3.66,5.224     c2.16,3.648,3.217,6.875,3.173,9.681c-0.045,2.805-2.125,5.428-6.24,7.865l-1.824,1.08c2.683,6.243,3.943,11.783,3.775,16.621     c-0.169,4.837-2.218,8.418-6.146,10.744c-2.435,1.441-4.847,2.112-7.241,2.014c-2.396-0.098-4.674-0.582-6.829-1.453     c0.09-2.834-0.397-6.273-1.464-10.314c-1.067-4.043-2.818-8.123-5.255-12.237c-2.492-4.211-4.906-6.951-7.237-8.224     c-2.334-1.271-4.389-1.382-6.164-0.33c-1.404,0.831-2.19,2.117-2.358,3.859c-0.171,1.742,0.091,4.05,0.784,6.926l2.018,8.849     c2.398,10.455,2.822,19.333,1.27,26.632c-1.555,7.298-6.072,13.165-13.557,17.595c-6.362,3.767-12.956,4.952-19.778,3.562     c-6.827-1.393-13.333-5.5-19.519-12.322l-11.226,6.646c-0.685-0.732-1.696-1.904-3.028-3.514     c-1.333-1.612-2.553-3.352-3.66-5.223c-2.16-3.648-3.219-6.877-3.173-9.682c0.044-2.806,2.125-5.427,6.24-7.863l1.403-0.831     c-1.618-3.589-2.826-7.015-3.617-10.271c-0.792-3.259-1.129-6.281-1.009-9.067c0.117-2.788,0.734-5.267,1.848-7.442     c1.111-2.174,2.792-3.927,5.037-5.256c2.712-1.605,5.497-2.183,8.358-1.727c2.857,0.455,5.354,1.312,7.493,2.575     c-0.509,3.838-0.389,8.096,0.358,12.77c0.746,4.675,2.449,9.257,5.107,13.747c2.713,4.583,5.324,7.395,7.836,8.436     c2.511,1.041,4.701,1.008,6.573-0.101c1.87-1.107,2.854-2.701,2.95-4.779c0.096-2.078-0.191-4.75-0.861-8.017L292.251,335.753z"/>
		</g>
	</g>
	<path style="opacity:0.4;fill:#AF312F;" d="M458.566,265.465c0,0-0.006,0.012-0.016,0.032c-0.547,1.167-1.536,3.083-2.221,4.318   c-8.824,15.926-20.925,29.744-33.711,42.593c-8.443,8.443-17.253,16.624-26.55,24.123c0,0,10.783,21.745,3.176,35.02   c-0.309,0.553-0.668,1.107-1.042,1.628c-8.294,11.542-28.251,10.303-40.629,8.182c-6.91-1.184-13.764-4.698-13.791-4.663   c-19.566,24.875-52.852,33.036-82.957,34.287c-6.595,0.274-10.731,0.017-10.798,0.065c-0.417,0.298-1.531,0.968-1.969,1.226   c-6.253,3.687-12.81,6.947-19.776,9.054c-6.051,1.829-13.064,2.847-18.823-0.429c-11.241-6.394-9.316-24.599-7.387-35.125   c0.062-0.339,0.837-2.74,0.62-3.002c-7.037-8.535-17.119-24.27-21.533-31.29c-0.016-0.049-0.033-0.081-0.065-0.114   c-1.336-2.134-2.134-3.437-2.134-3.437c-0.798,0-1.596,0-2.378-0.016h-0.114c-0.472-0.016-0.945-0.016-1.401-0.049   c-0.619-0.016-1.222-0.033-1.824-0.065c-4.691-0.244-8.91-0.782-12.672-1.531c-6.564-1.254-11.76-3.111-15.686-4.919   c16.761-38.604,55.462-76.93,107.845-101.9c86.117-41.079,176.99-30.655,204.387,22.999c0.049,0.081,0.098,0.163,0.13,0.244   c0.261,0.505,0.505,1.01,0.749,1.515C458.191,264.634,458.386,265.042,458.566,265.465z"/>
	<g>
		<path style="fill:#AF312F;" d="M203.669,181.759c-0.196,0.749-0.423,1.482-0.652,2.215c-0.472,1.482-0.977,2.932-1.515,4.365    c-1.108,2.867-2.394,5.652-3.877,8.34c-0.016,0-0.016,0.016-0.016,0.016h0.016v-0.016l3.176-1.482l0.244-0.114l-10.392,11.825    c-0.277,0.358-0.554,0.717-0.847,1.075c-0.277,0.326-0.57,0.635-0.863,0.945l-0.88,0.928l-1.889,2.166v-0.179    c-13.666,13.503-32.463,20.312-52.937,20.572c-26.518,0.358-55.853-10.262-80.481-31.469c-3.567-3.062-6.922-6.271-10.082-9.578    c-4.724-4.952-8.991-10.164-12.754-15.539c-2.525-3.583-4.821-7.232-6.89-10.946l-1.515-2.785    C10.863,141.885,6.71,120.336,9.788,100.953c0.016-0.163,0.049-0.326,0.081-0.505c0.212-1.401,0.489-2.802,0.798-4.17    c0.049-0.195,0.081-0.375,0.13-0.57c0.195-0.831,0.407-1.661,0.619-2.476c0.049-0.212,0.114-0.424,0.179-0.652    c0.391-1.417,0.831-2.818,1.303-4.202c0.342-0.994,0.717-1.987,1.108-2.965c0.391-0.977,0.798-1.938,1.222-2.899    c2.606-5.75,5.994-11.125,10.213-16.028c1.108-1.303,2.28-2.525,3.469-3.714l4.186-4.789l7.33-8.405l-4.105,6.857    c32.511-24.025,85.677-17.771,126.153,17.07c8.91,7.672,16.549,16.158,22.837,25.117c1.254,1.792,2.459,3.6,3.616,5.424    c1.906,3.046,3.681,6.141,5.277,9.268c0.814,1.547,1.563,3.111,2.297,4.675c0.57,1.221,1.108,2.459,1.612,3.681    c0.684,1.612,1.336,3.241,1.922,4.854c0.359,0.945,0.701,1.906,1.01,2.867c0.554,1.629,1.075,3.274,1.531,4.903    c0.147,0.472,0.277,0.961,0.407,1.433c1.466,5.424,2.476,10.864,2.997,16.223C207.008,162.262,206.259,172.344,203.669,181.759z"/>
		<path style="opacity:0.49;fill:#FF9D3D;" d="M203.64,181.751c-1.422,5.175-3.411,10.195-6.014,14.945l3.176-1.499    c0,0,0.244-0.114,0.244-0.114c-9.146,10.423-17.385,21.036-29.763,27.843c-11.606,6.382-24.858,9.322-38.045,9.49    c-34.597,0.44-68.125-16.988-91.4-41.917C22.95,170.27,9.411,143.56,8.825,115.512c-0.34-16.303,4.098-32.716,14.014-45.806    c0.833-1.1,1.701-2.174,2.601-3.22c1.108-1.303,2.28-2.525,3.469-3.714l4.186-4.789l7.33-8.405l-4.105,6.857    c32.511-24.025,85.677-17.771,126.153,17.07c22.953,19.764,40.458,47.881,43.523,78.429    C206.974,161.917,206.291,172.104,203.64,181.751z"/>
		<path style="fill:#FF9D3D;" d="M201.046,194.92c-0.081,0.098-0.163,0.179-0.244,0.277c-17.771,20.409-46.047,27.788-75.546,22.576    c-20.931-3.681-42.464-13.699-61.261-29.873C20.522,150.469,7.475,93.623,33.097,57.984c1.108-1.564,2.313-3.079,3.583-4.561    c30.296-35.199,91.655-32.056,137.034,7.02c26.957,23.195,42.203,53.849,43.816,82.289    C218.638,162.197,213.36,180.619,201.046,194.92z"/>
		<g>
			<path style="fill:#AF312F;" d="M186.153,170.466c10.173-26.597-1.027-62.18-29.534-86.722     c-34.324-29.549-80.703-31.922-103.609-5.311c-1.968,2.286-3.705,4.732-5.195,7.279c2.055-5.441,5.021-10.506,8.914-15.035     c22.907-26.611,69.3-24.224,103.609,5.311C191.724,103.019,202.143,143.42,186.153,170.466z"/>
		</g>
		<g style="opacity:0.49;">
			<path style="fill:#FF9D3D;" d="M186.153,170.466c10.173-26.597-1.027-62.18-29.534-86.722     c-34.324-29.549-80.703-31.922-103.609-5.311c-1.968,2.286-3.705,4.732-5.195,7.279c2.055-5.441,5.021-10.506,8.914-15.035     c22.907-26.611,69.3-24.224,103.609,5.311C191.724,103.019,202.143,143.42,186.153,170.466z"/>
		</g>
		<g style="opacity:0.3;">
			<path style="fill:#AF312F;" d="M119.611,133.784c-3.162,1.151-6.107,2.107-8.841,2.866c-2.732,0.76-5.331,1.11-7.796,1.049     c-2.464-0.059-4.797-0.621-6.998-1.683c-2.202-1.062-4.3-2.832-6.297-5.312c-3.086-3.834-4.5-8.015-4.242-12.542     c0.258-4.528,2.2-9.04,5.825-13.538l-5.514-6.85c0.418-0.521,1.092-1.297,2.028-2.329c0.934-1.031,1.965-2,3.093-2.909     c2.199-1.77,4.225-2.773,6.078-3.01c1.852-0.237,3.777,0.884,5.773,3.365l0.885,1.1c3.858-2.362,7.39-3.718,10.593-4.067     s5.758,0.662,7.663,3.029c1.181,1.467,1.852,2.993,2.015,4.581s0.061,3.134-0.309,4.637c-1.876,0.21-4.095,0.858-6.656,1.945     c-2.562,1.087-5.084,2.629-7.564,4.625c-2.537,2.042-4.113,3.891-4.73,5.549c-0.615,1.659-0.493,3.023,0.368,4.093     c0.681,0.845,1.604,1.242,2.767,1.187c1.164-0.053,2.66-0.445,4.489-1.175l5.64-2.17c6.659-2.573,12.469-3.695,17.426-3.366     c4.957,0.33,9.251,2.75,12.881,7.26c3.087,3.834,4.494,8.066,4.226,12.693c-0.269,4.63-2.356,9.308-6.265,14.032l5.446,6.765     c-0.418,0.521-1.095,1.298-2.028,2.329c-0.936,1.032-1.967,2.001-3.094,2.909c-2.199,1.77-4.226,2.773-6.077,3.009     c-1.854,0.238-3.777-0.884-5.774-3.364l-0.681-0.846c-2.211,1.407-4.354,2.529-6.424,3.359c-2.072,0.831-4.03,1.341-5.878,1.526     c-1.849,0.187-3.54,0.017-5.079-0.51c-1.538-0.526-2.853-1.466-3.941-2.82c-1.315-1.634-1.961-3.415-1.932-5.343     c0.028-1.926,0.356-3.653,0.984-5.183c2.576-0.03,5.371-0.512,8.379-1.45c3.01-0.934,5.867-2.492,8.573-4.67     c2.762-2.223,4.366-4.211,4.814-5.964c0.445-1.754,0.216-3.193-0.692-4.321c-0.906-1.128-2.051-1.624-3.428-1.49     c-1.379,0.135-3.113,0.578-5.201,1.329L119.611,133.784z"/>
		</g>
	</g>
	<path style="opacity:0.4;fill:#AF312F;" d="M201.046,194.92c-0.081,0.098-0.163,0.179-0.244,0.277l0.244-0.114l-10.376,11.825   c-0.293,0.358-0.57,0.717-0.863,1.075c-0.277,0.326-0.57,0.635-0.863,0.945c-0.293,0.31-0.586,0.619-0.863,0.928l-1.906,2.166   v-0.179c-13.666,13.503-32.463,20.312-52.937,20.572c-4.039-3.6-6.548-8.682-7.981-14.643c-4.251-17.608,0.847-42.79,2.997-59.73   c3.241-25.556-17.656-31.42-15.018-43.229c2.639-11.809,20.393-19.22,39.793-7.362c22.201,13.552,23.26,51.814,23.26,51.814   c5.017-1.971,9.496-3.258,13.308-4.056c0.928-0.212,1.808-0.375,2.655-0.505c7.819-1.368,12.281-0.7,12.281-0.7   c0.44-0.717,0.928-1.401,1.45-2.052c0-0.016,0-0.016,0.016-0.016c3.29-4.202,7.818-7.232,11.532-9.203   C218.638,162.197,213.36,180.619,201.046,194.92z"/>
	<g>
		<path style="fill:#AF312F;" d="M398.51,115.987c-0.717,1.792-1.499,3.583-2.394,5.359v0.016c-0.57,1.173-1.189,2.346-1.857,3.518    c-0.342,0.586-0.684,1.189-1.01,1.759c-1.026,1.743-2.134,3.453-3.339,5.147c-0.016,0,0,0.016,0,0.016    c-3.958,5.652-8.779,10.995-14.399,15.849c-1.906,1.645-3.877,3.192-5.864,4.626c0,0,0-0.016-0.016,0    c-1.238,0.912-2.476,1.759-3.746,2.59c-0.261,0.163-0.521,0.326-0.782,0.489c-1.026,0.635-2.052,1.254-3.095,1.857    c-1.026,0.603-2.069,1.173-3.095,1.71c-2.622,1.335-5.277,2.541-7.932,3.583c-1.059,0.423-2.134,0.814-3.192,1.173    c-10.05,3.404-20.214,4.561-29.563,3.372c-3.193-0.407-6.287-1.075-9.252-2.02c-1.482-0.472-2.932-1.01-4.332-1.613l-0.017-0.016    c-1.173-0.489-2.313-1.042-3.421-1.645c-2.932-1.564-5.685-3.453-8.177-5.669c-0.57-0.521-1.14-1.042-1.678-1.58v0.13    l-0.016-0.016l-1.189-1.368c-0.081-0.098-0.179-0.179-0.261-0.277c-0.277-0.293-0.554-0.586-0.831-0.896    c-0.098-0.114-0.195-0.228-0.277-0.342c-0.081-0.114-0.179-0.228-0.261-0.342l-6.532-7.444l0.147,0.065l1.987,0.929    c-10.343-18.797-5.945-44.809,10.701-65.772c3.323-4.219,7.167-8.226,11.467-11.923c25.54-21.989,59.062-25.931,79.585-10.783    l-2.59-4.317l4.577,5.245l2.688,3.079c0.749,0.749,1.482,1.499,2.183,2.329c3.551,4.121,6.173,8.796,7.916,13.813    c0.375,1.091,0.717,2.183,0.994,3.307C404.57,91.098,403.397,103.738,398.51,115.987z"/>
		<path style="opacity:0.49;fill:#FF9D3D;" d="M398.66,116.047c-8.132,20.335-26.093,37.491-45.687,45.674    c-1.705,0.712-3.435,1.366-5.185,1.959c-11.656,3.944-24.785,4.955-36.833,1.624c-12.863-3.556-20.525-11.704-29.005-21.365    l0.033,0.016l0.147,0.065l1.987,0.929c-10.343-18.797-5.945-44.809,10.701-65.772c3.323-4.219,7.167-8.226,11.467-11.923    c25.54-21.989,59.062-25.931,79.585-10.783l-2.59-4.317l4.577,5.245l2.688,3.079c0.749,0.749,1.482,1.515,2.183,2.329    c3.551,4.121,6.173,8.796,7.916,13.813c0.375,1.091,0.717,2.183,0.994,3.307C404.684,92.284,403.212,104.663,398.66,116.047z"/>
		<path style="fill:#FF9D3D;" d="M368.409,139.409c-1.384,1.205-2.801,2.346-4.251,3.421c-28.016,21.305-63.802,22.12-82.028,1.189    c-0.049-0.049-0.114-0.114-0.163-0.179c-17.363-20.165-12.591-53.328,9.871-77.712c2.281-2.476,4.724-4.854,7.362-7.118    c28.635-24.644,67.336-26.632,86.442-4.43c0.782,0.912,1.531,1.857,2.215,2.818C404.097,79.875,395.871,115.759,368.409,139.409z"/>
		<g>
			<path style="fill:#AF312F;" d="M291.354,128.412c-6.417-16.778,0.648-39.225,18.631-54.707c21.653-18.64,50.91-20.137,65.36-3.35     c1.241,1.442,2.337,2.985,3.277,4.592c-1.296-3.432-3.168-6.627-5.623-9.485c-14.45-16.787-43.717-15.281-65.36,3.35     C287.839,85.864,281.267,111.351,291.354,128.412z"/>
		</g>
		<g style="opacity:0.49;">
			<path style="fill:#FF9D3D;" d="M291.354,128.412c-6.417-16.778,0.648-39.225,18.631-54.707c21.653-18.64,50.91-20.137,65.36-3.35     c1.241,1.442,2.337,2.985,3.277,4.592c-1.296-3.432-3.168-6.627-5.623-9.485c-14.45-16.787-43.717-15.281-65.36,3.35     C287.839,85.864,281.267,111.351,291.354,128.412z"/>
		</g>
		<g style="opacity:0.3;">
			<path style="fill:#AF312F;" d="M330.47,103.231c-1.29-1.766-2.418-3.431-3.386-5c-0.969-1.569-1.658-3.128-2.064-4.678     c-0.409-1.549-0.48-3.106-0.216-4.673c0.266-1.566,0.991-3.196,2.18-4.892c1.835-2.619,4.189-4.258,7.062-4.916     c2.872-0.657,6.04-0.26,9.505,1.19l3.279-4.68c0.4,0.166,1.007,0.447,1.82,0.845c0.812,0.397,1.604,0.865,2.375,1.405     c1.503,1.053,2.494,2.136,2.978,3.25c0.482,1.113,0.131,2.519-1.057,4.213l-0.526,0.751c2.171,1.982,3.657,3.941,4.453,5.877     c0.797,1.937,0.628,3.714-0.506,5.332c-0.702,1.002-1.534,1.697-2.495,2.085c-0.962,0.389-1.945,0.604-2.951,0.646     c-0.47-1.133-1.274-2.401-2.416-3.804c-1.143-1.404-2.561-2.699-4.255-3.886c-1.734-1.215-3.174-1.864-4.319-1.949     c-1.147-0.085-1.977,0.237-2.489,0.969c-0.405,0.578-0.485,1.226-0.241,1.942c0.243,0.717,0.759,1.58,1.545,2.59l2.374,3.128     c2.812,3.692,4.561,7.116,5.252,10.271c0.689,3.153-0.044,6.272-2.203,9.354c-1.836,2.62-4.224,4.264-7.161,4.933     c-2.939,0.669-6.236,0.211-9.892-1.374l-3.239,4.622c-0.4-0.167-1.008-0.448-1.82-0.845c-0.813-0.398-1.604-0.866-2.375-1.406     c-1.502-1.053-2.495-2.137-2.979-3.25c-0.483-1.114-0.13-2.518,1.058-4.213l0.405-0.578c-1.279-1.126-2.365-2.26-3.258-3.403     c-0.895-1.144-1.566-2.274-2.017-3.395c-0.451-1.12-0.65-2.207-0.6-3.263c0.051-1.055,0.4-2.046,1.048-2.97     c0.783-1.117,1.777-1.842,2.986-2.172c1.208-0.331,2.345-0.438,3.413-0.322c0.484,1.603,1.291,3.26,2.42,4.969     c1.127,1.709,2.617,3.212,4.466,4.508c1.887,1.322,3.418,1.964,4.594,1.927c1.175-0.038,2.032-0.441,2.573-1.212     c0.539-0.77,0.643-1.574,0.31-2.41s-0.924-1.838-1.77-3.006L330.47,103.231z"/>
		</g>
	</g>
	<path style="opacity:0.4;fill:#AF312F;" d="M365.885,154.867c-0.261,0.163-0.521,0.326-0.782,0.489   c-1.026,0.635-2.052,1.254-3.095,1.857c-1.026,0.603-2.069,1.173-3.095,1.71c-2.622,1.335-5.277,2.541-7.932,3.583   c-1.059,0.423-2.134,0.814-3.192,1.173c-10.05,3.404-20.214,4.561-29.563,3.372c-3.193-0.407-6.287-1.075-9.252-2.02   c-1.482-0.472-2.932-1.01-4.332-1.613l-0.017-0.016c-1.173-0.489-2.313-1.042-3.421-1.645c-2.932-1.564-5.685-3.453-8.177-5.669   c-0.57-0.505-1.14-1.026-1.678-1.564v0.114l-0.016-0.016l-1.189-1.368c-0.081-0.098-0.179-0.179-0.261-0.277   c-0.277-0.293-0.554-0.586-0.831-0.896c-0.098-0.114-0.195-0.228-0.277-0.342c-0.081-0.114-0.179-0.228-0.277-0.342l-6.548-7.46   l0.033,0.016l0.147,0.065c-0.049-0.049-0.114-0.114-0.163-0.179c-17.363-20.165-12.591-53.328,9.871-77.712   c1.433,5.326,2.411,10.017,2.981,13.047c0.423,2.231,0.619,3.567,0.619,3.567h0.017c2.085-0.163,4.088-0.261,6.059-0.277   c43.995-0.358,58.035,35.818,62.645,60.365c0.847,4.496,1.384,8.6,1.71,12.021L365.885,154.867z"/>
	<g>
		<polygon style="fill:#FF5555;" points="311.4,239.764 307.43,237.357 347.429,171.342 390.323,213.119 428.688,130.129     482.104,166.83 505.714,102.093 510.074,103.684 484.411,174.046 430.591,137.068 391.783,221.019 348.371,178.739   "/>
		<polygon style="fill:#FF5555;" points="506.032,107.996 490.909,116.047 512,92.996 511.412,123.865   "/>
		<path style="fill:#FF5555;" d="M353.922,175.796c0,3.002-2.433,5.435-5.435,5.435c-3.001,0-5.435-2.433-5.435-5.435    c0-3.002,2.433-5.435,5.435-5.435C351.488,170.361,353.922,172.794,353.922,175.796z"/>
		<circle style="fill:#FF5555;" cx="310.828" cy="236.706" r="5.435"/>
		<path style="fill:#FF5555;" d="M395.606,215.541c0,3.002-2.433,5.435-5.435,5.435c-3.002,0-5.435-2.433-5.435-5.435    c0-3.002,2.433-5.435,5.435-5.435C393.173,210.106,395.606,212.539,395.606,215.541z"/>
		<path style="fill:#FF5555;" d="M435.074,135.423c0,3.002-2.433,5.435-5.435,5.435c-3.001,0-5.435-2.433-5.435-5.435    c0-3.002,2.433-5.435,5.435-5.435C432.641,129.989,435.074,132.422,435.074,135.423z"/>
		<path style="fill:#FF5555;" d="M487.749,169.757c0,3.002-2.433,5.435-5.435,5.435c-3.002,0-5.435-2.433-5.435-5.435    s2.433-5.435,5.435-5.435C485.316,164.322,487.749,166.756,487.749,169.757z"/>
	</g>
	<polygon style="fill:#6CE1C1;" points="129.618,270.573 138.065,274.877 146.399,270.358 144.916,279.722 151.789,286.252    142.426,287.735 138.339,296.29 134.035,287.843 124.636,286.6 131.34,279.896  "/>
	<polygon style="fill:#6CE1C1;" points="127.004,304.37 124.568,327.27 142.051,342.258 119.52,347.018 110.668,368.278    99.178,348.32 76.224,346.47 91.654,329.376 86.32,306.973 107.346,316.366  "/>
	<g>
		<g>
			<g>
				<path style="fill:#FF9D3D;" d="M193.997,223.765l-19.179,12.603c-8.446-1.342-15.626-0.831-21.786,0.964      c-9.089,2.664-15.948,8.144-21.333,14.625c-8.843,10.619-13.718,23.978-18.026,32.065c-6.33,11.923-19.481,29.987-44.404,31.083      c-6.689,0.302-14.209-0.624-22.674-3.212c-2.815-0.869-5.536-1.852-8.125-2.929c-10.449-4.365-19.009-10.355-25.358-16.647      c-14.474-14.323-17.648-30.327-6.084-32.821c6.991-1.512,13.623,2.267,21.181,7.652c11.81,8.408,25.887,20.766,47.144,23.052      c5.007,0.548,9.202-0.321,12.811-2.211h0.019c5.102-2.664,9.032-7.388,12.433-13.189v-0.019      c10.941-18.65,16.344-48.24,37.28-55.004C169.924,209.423,193.997,223.765,193.997,223.765z"/>
				<path style="opacity:0.2;fill:#AF312F;" d="M193.997,223.765l-19.179,12.603c-8.446-1.342-15.626-0.831-21.786,0.964      c-9.089,2.664-15.948,8.144-21.333,14.625c-8.843,10.619-13.718,23.978-18.026,32.065c-6.33,11.923-19.481,29.987-44.404,31.083      c-6.689,0.302-14.209-0.624-22.674-3.212c-2.815-0.869-5.536-1.852-8.125-2.929c-10.449-4.365-19.009-10.355-25.358-16.647      c-14.474-14.323-17.648-30.327-6.084-32.821c6.991-1.512,13.623,2.267,21.181,7.652c11.81,8.408,25.887,20.766,47.144,23.052      c5.007,0.548,9.202-0.321,12.811-2.211h0.019c5.102-2.664,9.032-7.388,12.433-13.189v-0.019      c10.941-18.65,16.344-48.24,37.28-55.004C169.924,209.423,193.997,223.765,193.997,223.765z"/>
			</g>
			<path style="fill:#AF312F;" d="M28.21,267.148c-0.756,7.237-11.526,2.607-11.526,2.607c4.837,9.864,0.756,17.705-3.571,22.561     c-14.474-14.323-17.648-30.327-6.084-32.821C14.019,257.984,20.652,261.763,28.21,267.148z"/>
			<path style="fill:#AF312F;" d="M69.269,315.104c-6.689,0.302-14.209-0.624-22.674-3.212c-2.815-0.869-5.536-1.852-8.125-2.929     c2.607-3.288,8.049-7.312,18.253-7.029C65.225,302.18,68.287,308.85,69.269,315.104z"/>
			<path style="fill:#AF312F;" d="M100.654,290.125c-3.741,2.192-8.522,0.359-12.471-2.135c5.102-2.664,9.032-7.388,12.433-13.189     C103.129,280.243,105.227,287.442,100.654,290.125z"/>
			<path style="fill:#AF312F;" d="M153.032,237.332c-9.089,2.664-15.948,8.144-21.333,14.625c-3.08-6.273-6.802-16.817,2.211-21.559     C141.487,226.41,148.516,232.022,153.032,237.332z"/>
		</g>
		<path style="fill:#FF9D3D;" d="M425.727,244.266c-1.247,5.121-2.57,9.693-3.741,13.189c-0.605,1.833-1.172,3.363-1.644,4.535    c-1.077,2.627-3.099,7.161-6.254,12.792c-2.135,3.874-4.818,8.276-8.087,12.943c-2.589,3.704-5.555,7.577-8.937,11.47    c-5.442,6.349-11.961,12.773-19.651,18.687c-4.157,3.212-8.635,6.273-13.491,9.07c-6.141,3.571-12.868,6.764-20.218,9.372    c-9.032,3.212-18.99,5.574-29.949,6.708c-72.388,7.52-121.628-81.042-121.628-81.042s-7.728-2.702-13.85-11.81    c-2.286-3.344-4.327-7.539-5.687-12.773c-1.795-6.764-2.456-15.286-1.039-25.924c0,0-29.212-6.764-27.322-21.937    c1.908-15.154,0-35.636-11.413-56.119c-11.432-20.464,4.762-21.408,16.174-8.087c11.432,13.34,18.196,49.052,18.196,49.052    s22.504-19.046,40.719-6.67c0,0,0.113-0.113,0.359-0.359c2.91-3.042,24.961-24.904,50.148-23.751c0,0-1.285-2.23-2.4-6.103    c-1.871-6.481-3.307-17.629,2.4-30.743c0,0-2.74-27.133-15.607-46.652s-1.852-23.959,11.262-18.102    c16.817,6.198,30.629,49.997,30.629,49.997s43.988-8.408,53.322,28.569c4.459,17.686,6.802,26.926,8.012,31.725    c1.323,5.253,1.323,5.253,1.323,5.253s2.041-1.077,5.423-2.437c7.501-3.004,21.597-7.407,34.295-4.44    c21.559,5.026,11.942,20.256,5.177,24.809c-1.663,1.115-3.647,2.362-5.687,3.609c-6.236,3.798-13.057,7.596-13.057,7.596    s9.183,12.811,13.396,24.243c1.342,3.628,2.173,7.123,2.06,10.014c0,0,6.991-32.103,27.927-31.404    C434.835,190.15,431.075,222.272,425.727,244.266z"/>
		<path style="fill:#FF9D3D;" d="M196.035,250.205c3.748-2.404,7.733-4.259,11.922-5.526c14.511-4.386,31.593-1.382,51.116,12.166    c35.591,24.655,59.507,95.612,59.507,95.612s-0.237,1.699-1.029,4.482c-1.61,5.683-5.606,15.83-14.83,25.033    c-0.542,0.554-1.13,1.098-1.709,1.656c-1.294,1.185-2.666,2.34-4.155,3.471c-0.056,0.037-0.103,0.087-0.16,0.124    c-1.029,0.791-2.113,1.558-3.253,2.302l-0.492,0.321c-0.282,0.183-0.563,0.367-0.854,0.536c-0.268,0.174-0.549,0.358-0.84,0.527    c-2.528,1.507-5.157,2.92-7.887,4.178c-0.538,0.251-1.072,0.478-1.629,0.701c-1.175,0.505-2.391,0.978-3.622,1.398    c-0.094,0.041-0.216,0.1-0.332,0.136c-2.418,0.814-4.918,1.502-7.472,1.983c-0.635,0.134-1.28,0.252-1.928,0.335    c-9.274,1.373-19.44,0.117-30.426-5.658c-6.717-3.504-13.734-8.697-21.055-16.02c-0.101-0.094-0.189-0.197-0.291-0.292    c-0.092-0.08-0.194-0.174-0.272-0.264c-0.29-0.292-0.6-0.612-0.9-0.918c-1.632-1.704-3.305-3.501-4.977-5.42    c-0.253-0.296-0.53-0.597-0.769-0.903c-0.373-0.419-0.723-0.832-1.092-1.274c-0.166-0.193-0.35-0.414-0.534-0.635    c-0.069-0.075-0.115-0.145-0.184-0.221c-5.253-6.303-9.972-12.434-14.106-18.344c-0.179-0.244-0.345-0.498-0.524-0.742    c-0.533-0.756-1.043-1.507-1.543-2.244c-0.464-0.68-0.927-1.361-1.368-2.036l-0.009-0.014c-1.987-3.017-3.807-5.962-5.478-8.864    c-0.261-0.432-0.513-0.849-0.751-1.276c-0.206-0.347-0.407-0.717-0.604-1.05c-11.63-20.699-15.489-38.341-11.962-52.315    c1.054-4.137,2.728-7.937,5.061-11.403c0.213-0.319,0.426-0.639,0.639-0.958c0.388-0.513,0.752-1.031,1.125-1.536    c0.222-0.305,0.439-0.587,0.657-0.869c2.972-3.903,6.149-7.398,9.53-10.425l0.061-0.06c0.556-0.502,1.134-0.999,1.698-1.488    c1.217-0.994,2.425-1.942,3.678-2.819C194.664,251.119,195.345,250.655,196.035,250.205z"/>
		<path style="fill:#FF9D3D;" d="M189.046,255.635l0.063-0.061c0.559-0.502,1.127-0.995,1.703-1.478    c1.207-1.001,2.421-1.937,3.668-2.819c4.354-3.09,9.008-5.427,13.96-6.92c14.526-4.392,31.602-1.384,51.128,12.156    c35.587,24.673,62.742,77.129,62.742,77.129s-1.848,16.576-4.262,22.971c-2.089,5.531-5.612,15.844-14.834,25.042    c-0.551,0.548-1.12,1.094-1.707,1.641c-1.29,1.187-2.669,2.353-4.152,3.478c-0.063,0.043-0.108,0.086-0.171,0.129    c-1.178,0.902-2.426,1.784-3.743,2.626c-0.278,0.179-0.556,0.358-0.851,0.536c-0.269,0.17-0.547,0.349-0.833,0.518    c-2.534,1.517-5.162,2.931-7.893,4.178c-0.535,0.25-1.071,0.482-1.623,0.713c-1.186,0.504-2.388,0.972-3.616,1.393    c-0.107,0.05-0.223,0.09-0.339,0.131c-2.42,0.825-4.916,1.512-7.479,1.997c-0.639,0.119-1.277,0.238-1.923,0.33    c-9.273,1.374-19.446,0.117-30.428-5.658c-6.808-3.555-13.928-8.84-21.348-16.308c-0.086-0.094-0.181-0.179-0.267-0.273    c-0.302-0.292-0.604-0.603-0.896-0.922c-1.645-1.703-3.306-3.496-4.981-5.417c-0.619-0.694-1.237-1.424-1.863-2.164    c-0.172-0.206-0.352-0.421-0.532-0.636c-5.56-6.661-10.498-13.107-14.816-19.321c-0.998-1.441-1.97-2.873-2.907-4.285    l-0.009-0.009c-2.283-3.455-4.356-6.83-6.236-10.142c-0.212-0.343-0.407-0.704-0.601-1.046    c-11.632-20.703-15.491-38.337-11.954-52.311c1.043-4.127,2.722-7.93,5.047-11.4c0.21-0.326,0.43-0.643,0.65-0.959    c0.374-0.519,0.748-1.037,1.122-1.538c0.219-0.299,0.437-0.579,0.656-0.878C182.491,262.163,185.673,258.665,189.046,255.635z"/>
		<path style="fill:#FF9D3D;" d="M215.295,374.925c0.429,0.135,7.376,2.32,13.672,5.503c2.145,1.098,4.217,2.303,5.924,3.592    c2.775,2.082,4.6,4.371,4.226,6.689c-0.165,1.006-0.562,2.111-1.155,3.282c-0.056,0.124-0.121,0.257-0.185,0.372    c-3.069,5.827-10.508,12.799-15.92,15.07c-1.506,0.636-2.845,0.899-3.891,0.685c-0.413-0.08-0.762-0.238-1.083-0.478    c-5.045-3.837-6.051-10.107-4.881-15.875c0.801-3.965,2.624-7.888,3.039-11.941c0.025-0.306,0.318-2.953,0.399-4.885l0.011-0.452    C215.48,375.646,215.434,375.02,215.295,374.925z"/>
		<path style="fill:#FF9D3D;" d="M171.611,280.923c0.305,0.537,20.024,35.923,11.089,43.803c-0.856,0.753-1.782,1.43-2.749,2.024    c-9.218,5.735-22.749,4.669-25.534,1.184l-0.009-0.009c-3.067-3.848,3.358-12.39,7.304-20.171    C165.611,300.088,171.421,281.494,171.611,280.923z"/>
		<path style="fill:#AF312F;" d="M176.649,319.42c1.609,4.296,3.226,7.173,3.302,7.33c-9.218,5.735-22.749,4.669-25.534,1.184    l-0.009-0.009c1.367-2.179,3.018-4.771,8.897-7.791c0.581-0.293,1.118-0.615,1.629-0.948    C172.535,314.3,175.123,315.326,176.649,319.42z"/>
		<path style="fill:#AF312F;" d="M233.913,391.72c1.432,1.007,2.796,1.939,3.864,2.642c-3.069,5.827-10.508,12.799-15.92,15.07    c-1.506,0.636-2.845,0.899-3.891,0.685c0,0-0.718-2.434,2.126-7.357c1.04-1.794,2.068-3.471,2.92-5.137    C225.023,393.679,229.225,388.458,233.913,391.72z"/>
		<path style="opacity:0.48;fill:#EB4949;" d="M235.857,308.298c4.008,1.226,8.078-1.472,7.454-6.183    c-0.835-6.307-7.637-13.865-13.824-14.935c-5.223-0.903-8.596,5.14-6.73,9.312c1.577,3.526,4.292,6.399,7.329,8.607    C231.499,306.125,233.612,307.611,235.857,308.298z"/>
		<path style="opacity:0.48;fill:#EB4949;" d="M268.544,358.608c0.061-4.523,4.031-7.862,8.498-5.719    c5.981,2.87,11.302,12.292,10.391,19.013c-0.768,5.674-7.829,7.228-11.367,3.975c-2.991-2.749-4.972-6.464-6.191-10.3    C269.308,363.795,268.51,361.143,268.544,358.608z"/>
		<path style="fill:#AF312F;" d="M193.784,349.696c0.233-0.012,0.457-0.037,0.681-0.063c3.306-0.25,6.495-0.744,9.286-1.14    c3.202-0.443,6.377-1.049,9.516-1.771c2.373-0.544,5.256-0.398,7.139,1.443c2.376,2.322,2.586,5.936,1.567,8.927    c-1.268,3.716-4.272,6.276-7.526,8.177c-1.88,1.085-3.874,1.964-5.95,2.595c-0.206,0.054-0.402,0.122-0.607,0.176    C202.637,361.736,197.918,355.606,193.784,349.696z"/>
		<path style="fill:#AF312F;" d="M288.307,380.171c2.608,2.419,3.968,6.036,4.64,9.68c-0.278,0.179-0.556,0.358-0.851,0.536    c-0.269,0.17-0.547,0.349-0.833,0.518c-2.534,1.517-5.162,2.931-7.893,4.178C283.845,385.924,283.411,375.644,288.307,380.171z"/>
		<path style="fill:#AF312F;" d="M296.052,375.535c2.474,0.976,4.802,3.646,6.668,6.443c-0.552,0.548-1.121,1.095-1.707,1.641    c-1.29,1.187-2.669,2.353-4.152,3.478c-0.063,0.043-0.108,0.086-0.171,0.129C293.9,380.621,291.689,373.814,296.052,375.535z"/>
		<path style="fill:#AF312F;" d="M276.742,390.686c0.992,1.712,1.359,4.06,1.389,6.503c-0.107,0.05-0.223,0.09-0.339,0.131    c-2.42,0.825-4.917,1.512-7.479,1.997C272.112,392.734,274.445,386.714,276.742,390.686z"/>
		<path style="fill:#AF312F;" d="M184.862,335.796c0.223,0.035,0.443,0.032,0.694,0.049c4.682,0.197,9.931,0.004,11.775,1.57    c4.306,3.651,1.523,8.735-4.891,9.266c-0.014,0.009-0.023-0.005-0.037,0.004c-0.233,0.012-0.466,0.023-0.685,0.025    c-0.464-0.68-0.927-1.361-1.368-2.036l-0.009-0.014C188.353,341.643,186.533,338.698,184.862,335.796z"/>
		<path style="fill:#AF312F;" d="M209.699,370.169c0.233-0.011,0.48-0.032,0.713-0.044c3.689-0.279,7.519-0.589,9.291,0.622    c3.8,2.598,3.247,7.411,0.222,7.417c-0.727-0.008-1.425-0.033-2.105-0.091c-0.307-0.041-0.605-0.067-0.913-0.108    c-0.101-0.094-0.189-0.197-0.291-0.292c-0.092-0.08-0.194-0.174-0.272-0.264c-0.29-0.292-0.6-0.612-0.9-0.918    c-1.632-1.704-3.305-3.501-4.977-5.42C210.215,370.776,209.938,370.475,209.699,370.169z"/>
		<g>
			<g>
				<path style="fill:#FFFFFF;" d="M213.807,297.027c6.621,2.128,13.255,8.515,15.37,15.327c0.451,1.456,0.688,2.958,0.669,4.494      c-0.115,6.678-4.058,13.609-9.072,17.722c-0.108,0.104-0.225,0.199-0.342,0.294c-5.136,4.053-12.082,4.779-18.091,2.169      c-7.031-3.057-14.237-10.272-14.048-18.557c0.078-3.27,1.103-6.638,2.809-9.726l-0.009-0.01      C195.614,300.494,204.935,294.185,213.807,297.027z"/>
				<path style="fill:#AF312F;" d="M213.807,297.027c3.783,1.221,7.116,3.56,9.926,6.347c1.4,1.408,2.649,2.972,3.699,4.669      c1.058,1.691,1.916,3.528,2.415,5.495c0.507,1.966,0.533,4.053,0.25,6.054c-0.28,2.011-0.846,3.977-1.625,5.852      c-1.563,3.751-3.981,7.148-7.081,9.878l0.058-0.051c-3.722,3.245-8.599,4.759-13.425,4.355c-2.394-0.2-4.773-0.841-6.904-1.91      c-2.133-1.032-4.125-2.323-5.918-3.855c-3.535-3.067-6.467-7.126-7.371-11.863c-0.475-2.355-0.298-4.789,0.249-7.046      c0.541-2.276,1.462-4.43,2.625-6.421l0.062,0.525l-0.008-0.01l-0.22-0.255l0.157-0.269c1.183-2.023,2.625-3.88,4.271-5.522      c1.653-1.633,3.497-3.071,5.512-4.211c2.016-1.135,4.22-1.935,6.499-2.295C209.255,296.141,211.618,296.305,213.807,297.027z       M213.807,297.027c-2.197-0.698-4.555-0.835-6.819-0.458c-2.272,0.362-4.43,1.257-6.386,2.435      c-3.931,2.365-7.025,5.957-9.113,9.955l-0.063-0.523l0.009,0.009l0.217,0.225l-0.154,0.3c-1.019,1.979-1.784,4.084-2.178,6.245      c-0.401,2.165-0.435,4.365,0.103,6.442c1.063,4.177,3.839,7.784,7.185,10.527c3.379,2.735,7.373,4.806,11.609,5.185      c2.118,0.186,4.263-0.027,6.304-0.617c1.018-0.3,2.019-0.677,2.957-1.182c0.483-0.227,0.924-0.529,1.385-0.798      c0.41-0.299,0.924-0.625,1.236-0.903l0.055-0.049l0.003-0.003c2.97-2.348,5.447-5.435,7.111-8.912      c0.833-1.738,1.469-3.577,1.836-5.473c0.369-1.898,0.45-3.844,0.067-5.745c-0.767-3.813-2.887-7.316-5.57-10.185      C220.914,300.621,217.558,298.305,213.807,297.027z"/>
			</g>
			<path style="fill:#AF312F;" d="M221.148,308.735c-3.008-4.404-8.402-7.367-13.663-6.698     c-8.382,1.066-14.705,10.119-12.817,18.563c1.014,4.534,4.32,8.882,8.478,10.835c11.111,5.218,22.904-7.371,19.855-18.738     C222.625,311.296,221.985,309.96,221.148,308.735z"/>
			<path style="opacity:0.21;fill:#AF312F;" d="M191.101,308.751c7.86,24.558,27.229,25.767,29.673,25.82     c-0.108,0.104-0.225,0.199-0.342,0.294c-5.136,4.053-12.082,4.779-18.091,2.169c-7.031-3.057-14.237-10.272-14.048-18.557     C188.37,315.206,189.395,311.838,191.101,308.751z"/>
		</g>
		<g>
			<g>
				<path style="fill:#FFFFFF;" d="M251.83,364.376c5.79-1.486,11.777,2.081,15.503,6.444c0.506,0.608,0.958,1.25,1.339,1.925      c4.633,8.152-0.489,20.489-8.893,23.887c-0.856,0.364-1.762,0.617-2.692,0.769c-8.151,1.301-18.175-5.783-19.418-14.332      c-0.286-2.073,0.338-4.191,1.15-6.049c0.551-1.271,1.271-2.581,2.122-3.858C243.588,369.137,247.523,365.479,251.83,364.376z"/>
				<path style="fill:#AF312F;" d="M251.83,364.376c1.039-0.249,2.106-0.383,3.177-0.353c1.068,0.052,2.133,0.21,3.163,0.509      c2.058,0.596,4.004,1.579,5.739,2.85c0.868,0.634,1.713,1.309,2.491,2.058c0.783,0.739,1.541,1.531,2.167,2.439      c1.214,1.831,2.036,3.94,2.325,6.142c0.611,4.415-0.592,8.951-2.902,12.767c-1.192,1.893-2.671,3.649-4.51,5.023      c-0.469,0.328-0.958,0.632-1.438,0.947c-0.491,0.297-1.025,0.52-1.538,0.781c-1.033,0.499-2.194,0.836-3.339,1.012      c-4.688,0.636-9.244-1.043-12.801-3.707c-3.542-2.689-6.355-6.548-7.121-10.983c-0.486-2.254,0.166-4.543,1.037-6.497      c0.879-1.991,2.071-3.807,3.379-5.507c1.309-1.704,2.817-3.252,4.509-4.565C247.85,365.978,249.752,364.899,251.83,364.376z       M251.83,364.376c-4.161,1.154-7.481,4.238-9.91,7.673c-1.22,1.738-2.237,3.619-2.964,5.589      c-0.716,1.96-1.146,4.054-0.575,5.997c0.958,3.996,3.797,7.323,7.141,9.588c1.673,1.157,3.534,2.026,5.456,2.581      c1.917,0.561,3.932,0.763,5.838,0.468c3.823-0.591,7.268-3.221,9.517-6.567c2.282-3.327,3.725-7.441,3.418-11.564      c-0.132-2.056-0.761-4.061-1.786-5.867c-0.53-0.893-1.204-1.701-1.924-2.477c-0.714-0.779-1.485-1.511-2.323-2.16      c-1.662-1.31-3.535-2.39-5.571-3.021c-1.02-0.312-2.077-0.483-3.14-0.55C253.938,364.023,252.872,364.142,251.83,364.376z"/>
			</g>
			<path style="fill:#AF312F;" d="M265.17,379.954c-0.019-0.484,0.779-5.904-5.939-10.092c-6.718-4.188-13.291,2.961-14.859,5.965     c-1.568,3.004-3.741,10.414,3.706,15.397C255.526,396.207,265.496,388.288,265.17,379.954z"/>
			<path style="opacity:0.21;fill:#AF312F;" d="M240.941,373.164c2.466,11.664,12.961,19.762,18.838,23.469     c-0.856,0.364-1.762,0.617-2.692,0.769c-8.151,1.301-18.175-5.783-19.418-14.332c-0.286-2.073,0.338-4.191,1.15-6.049     C239.37,375.75,240.09,374.441,240.941,373.164z"/>
		</g>
		<path style="fill:#AF312F;" d="M176.6,269.756c23.28,7.832,17.549,22.767,9.953,17.815c-5.092-3.315-11.04-5.208-15-6.415    C172.595,277.029,174.275,273.226,176.6,269.756z"/>
		<path style="fill:#AF312F;" d="M188.552,255.957l0.063-0.061c0.332-0.249,0.639-0.507,0.953-0.757    c7.472,3.835,15.129,9.892,17.819,17.74c1.015,2.961,0.644,6.654-2.067,7.829c-1.088,0.463-2.411,0.428-3.673,0.07    c-3.744-1.045-7.066-4.189-10.048-6.85c-3.396-3.021-8.408-5.69-12.573-7.548C181.998,262.485,185.179,258.987,188.552,255.957z"/>
		<path style="fill:#AF312F;" d="M193.987,251.599c4.354-3.09,9.008-5.427,13.96-6.92c4.288,3.4,7.315,8.558,8.485,13.894    c0.517,2.381,0.337,5.096-1.867,6.472c-2.912,1.828-6.27-1.318-8.108-3.417C201.474,255.931,196.708,252.973,193.987,251.599z"/>
		<g>
			<path style="fill:#AF312F;" d="M302.833,382.557c-3.149-1.651-6.099-3.59-8.999-5.598c-2.88-2.037-5.71-4.146-8.338-6.543     c3.151,1.649,6.1,3.588,8.999,5.598C297.375,378.053,300.205,380.162,302.833,382.557z"/>
			<path style="fill:#AF312F;" d="M297.805,389.723c-2.602-2.276-4.943-4.783-7.218-7.346c-2.25-2.586-4.433-5.23-6.352-8.107     c2.605,2.274,4.945,4.781,7.219,7.346C293.701,384.204,295.884,386.848,297.805,389.723z"/>
			<path style="fill:#AF312F;" d="M288.422,394.993c-1.377-3.192-2.419-6.48-3.377-9.791c-0.925-3.321-1.766-6.665-2.268-10.106     c1.38,3.192,2.421,6.479,3.377,9.791C287.077,388.208,287.918,391.553,288.422,394.993z"/>
		</g>
		<path style="fill:#FFFFFF;" d="M172.534,319.156c0,0,1.551,1.934,1.593,2.812c0.049,0.888-2.586-1.858-2.586-1.858    c0.704,1.954,0.172,4.619-0.293,4.166c-0.484-0.453-0.806-3.215-0.806-3.215c-0.837,4-5.559,6.261-7.053,4.149    c-0.64-0.903,0.285-3.434,1.547-6.024c7.601-4.886,8.652-13.434,8.577-14.74c0.125,5.494,1.611,10.879,3.137,14.974    C174.918,320.201,172.534,319.156,172.534,319.156z"/>
		<path style="fill:#FFFFFF;" d="M233.913,391.72c-1.695,1.135-5.163,1.484-5.464,1.509c0.157,0.079,1.877,0.862,2.102,1.775    c0.233,0.959-2.567-0.41-2.567-0.41s1.649,1.54,1.291,2.132c-0.341,0.592-1.763-1.219-1.763-1.219    c0.397,1.86-0.741,7.014-2.922,6.321c-1.419-0.455-1.613-2.687-1.577-4.204c2.01-3.943,2.994-7.838,0.608-13.277    C223.622,384.346,229.225,388.458,233.913,391.72z"/>
		<g>
			<path style="fill:#AF312F;" d="M231.432,354.511c0,0-1.058,5.184,0.574,6.059c1.632,0.875,3.254-6.949,2.508-8.819     c-0.746-1.871-8.379-1.06-8.705,0.546C225.483,353.905,231.432,354.511,231.432,354.511z"/>
			<path style="fill:#AF312F;" d="M248.16,332.735c-1.051,1.707-2.171,3.365-3.264,5.043l-3.404,4.947     c-1.135,1.649-2.327,3.258-3.513,4.874c-1.216,1.599-2.41,3.194-3.771,4.732l-0.658-0.915c3.492-1.569,6.956-3.235,10.402-4.92     c1.72-0.849,3.432-1.718,5.115-2.639c1.701-0.891,3.363-1.85,5.006-2.857c-1.496,1.217-3.111,2.28-4.726,3.337     c-1.633,1.031-3.309,1.984-4.988,2.934c-3.369,1.885-6.827,3.585-10.34,5.195l-2.486,1.14l1.829-2.055     c1.295-1.455,2.523-3.047,3.743-4.619l3.665-4.739l3.662-4.751C245.682,335.879,246.892,334.287,248.16,332.735z"/>
			<path style="opacity:0.48;fill:#AF312F;" d="M240.233,358.07c2.544,2.06,5.949,3.247,9.429,2.771     c5.045-0.69,9.626-3.785,10.606-9c0.609-3.236-0.189-6.435-1.406-9.31c-2.332-5.509-5.026-10.818-9.896-14.429     c-1.767-1.309-3.764-2.392-6.005-2.8c-3.435-0.626-7.324,0.46-10.195,2.845c-2.872,2.385-4.658,6.015-4.683,9.515     c-0.031,4.305,2.363,8.739,4.898,11.895C235.238,352.37,237.436,355.806,240.233,358.07z"/>
		</g>
		<g>
			<path style="fill:#AF312F;" d="M228.021,291.156c-2.181-2.854-4.06-5.883-5.864-8.955c-1.774-3.09-3.473-6.223-4.867-9.534     c2.183,2.852,4.061,5.881,5.865,8.955C224.927,284.713,226.626,287.847,228.021,291.156z"/>
			<path style="fill:#AF312F;" d="M209.989,277.352c2.694,2.161,5.136,4.565,7.515,7.027c2.354,2.487,4.645,5.033,6.682,7.824     c-2.696-2.159-5.137-4.563-7.516-7.027C214.318,282.687,212.027,280.141,209.989,277.352z"/>
			<path style="fill:#AF312F;" d="M204.257,286.607c3.329,0.746,6.537,1.821,9.716,2.975c3.167,1.188,6.302,2.457,9.316,4.058     c-3.33-0.744-6.538-1.819-9.716-2.976C210.408,289.475,207.272,288.205,204.257,286.607z"/>
		</g>
		<path style="opacity:0.48;fill:#AF312F;" d="M258.412,258.688c-1.568-0.764-3.121-1.55-4.702-2.274    c-1.574-0.735-3.148-1.471-4.758-2.071l-1.039-0.388l1.068-0.401c0.44-0.165,0.901-0.384,1.284-0.641    c0.385-0.244,0.709-0.608,0.701-0.804c0.01-0.081-0.052-0.231-0.142-0.323c-0.05-0.056-0.204-0.129-0.404-0.158    c-0.403-0.063-0.894-0.021-1.371,0.054c-0.964,0.162-1.942,0.427-2.898,0.75c-0.945,0.323-1.926,0.698-2.756,1.137l-1.68,0.891    l0.893-1.67c0.36-0.673,0.685-1.422,0.888-2.149c0.205-0.72,0.255-1.514-0.094-1.758c-0.346-0.336-1.168-0.314-1.892-0.137    c-0.739,0.178-1.5,0.471-2.198,0.803l-0.32,0.152l-0.222-0.239c-1.259-1.353-2.73-2.586-4.287-3.642    c-0.769-0.549-1.58-1.04-2.418-1.485c-0.836-0.451-1.716-0.813-2.608-1.16c1.87,0.418,3.659,1.202,5.334,2.16    c1.663,0.996,3.209,2.146,4.633,3.513l-0.542-0.086c0.759-0.43,1.529-0.77,2.384-1c0.426-0.112,0.871-0.197,1.354-0.194    c0.471,0,1.033,0.103,1.492,0.485c0.219,0.178,0.415,0.436,0.516,0.716c0.103,0.273,0.136,0.538,0.144,0.787    c0.012,0.499-0.079,0.945-0.188,1.376c-0.234,0.859-0.562,1.632-0.967,2.413l-0.787-0.779c0.995-0.527,1.961-0.864,2.967-1.204    c1.004-0.321,2.021-0.612,3.1-0.752c0.542-0.064,1.094-0.113,1.711-0.002c0.302,0.062,0.664,0.168,0.967,0.495    c0.252,0.289,0.41,0.65,0.381,1.088c-0.14,0.867-0.746,1.209-1.2,1.506c-0.494,0.287-0.984,0.487-1.52,0.655l0.029-0.788    c1.614,0.717,3.167,1.521,4.687,2.383C255.461,256.829,256.963,257.714,258.412,258.688z"/>
		<path style="opacity:0.48;fill:#AF312F;" d="M321.2,342.195c0.268-1.842,0.538-3.68,0.718-5.522    c0.103-0.918,0.181-1.838,0.22-2.753c0.033-0.906,0.028-1.844-0.161-2.643l-0.056-0.237l0.179-0.203    c0.506-0.572,1.006-1.204,1.38-1.858c0.378-0.628,0.617-1.428,0.374-1.725c-0.119-0.146-0.15-0.18-0.439-0.113    c-0.267,0.082-0.58,0.281-0.87,0.502c-0.585,0.453-1.135,1.044-1.625,1.621l-1.53,1.8l0.523-2.291    c0.189-0.827,0.335-1.697,0.421-2.548c0.082-0.851,0.12-1.718-0.01-2.499c-0.057-0.391-0.187-0.754-0.372-0.965    c-0.068-0.109-0.23-0.219-0.323-0.251c-0.108-0.06-0.178-0.033-0.286-0.011c-0.49,0.208-0.973,1.098-1.234,1.833l-0.431,1.212    l-0.35-1.206c-0.412-1.418-0.945-2.822-1.508-4.202c-0.566-1.383-1.235-2.722-2.059-3.984c1.01,1.125,1.796,2.437,2.519,3.767    c0.708,1.344,1.297,2.735,1.827,4.173l-0.781,0.006c0.136-0.468,0.301-0.894,0.531-1.327c0.242-0.417,0.513-0.877,1.103-1.173    c0.3-0.126,0.706-0.164,1.006-0.031c0.319,0.115,0.541,0.274,0.746,0.508c0.407,0.453,0.565,0.973,0.659,1.448    c0.197,0.968,0.158,1.895,0.079,2.807c-0.084,0.916-0.221,1.801-0.418,2.707l-1.006-0.491c0.55-0.669,1.132-1.26,1.833-1.804    c0.359-0.262,0.735-0.521,1.248-0.678c0.261-0.069,0.579-0.113,0.914-0.011c0.342,0.103,0.612,0.346,0.769,0.609    c0.344,0.542,0.28,1.163,0.154,1.613c-0.136,0.465-0.348,0.857-0.571,1.234c-0.466,0.739-0.987,1.385-1.598,1.992l0.124-0.439    c0.172,1.029,0.097,1.968,0.01,2.911c-0.098,0.938-0.236,1.865-0.397,2.785C322.15,338.593,321.736,340.41,321.2,342.195z"/>
		<path style="opacity:0.48;fill:#AF312F;" d="M370.479,258.688c3.868-7.134,7.579-14.347,10.921-21.725    c3.428-7.347,6.469-14.814,8.934-22.54c1.306-3.855,2.699-7.706,4.521-11.414c1.807-3.689,4.055-7.337,7.34-10.129    c3.272-2.823,7.627-4.248,11.84-4.407c2.115-0.104,4.216,0.045,6.276,0.338c2.248,0.241,4.482,1.496,5.928,3.2    c2.911,3.485,3.873,7.752,4.532,11.816c0.597,4.115,0.676,8.245,0.519,12.343c-0.372,8.195-1.611,16.309-3.587,24.227    c-3.96,15.774-9.984,31.29-19.684,44.381c4.472-6.776,8.055-14.076,10.947-21.62c2.947-7.524,5.276-15.284,7.003-23.164    c1.681-7.883,2.954-15.874,3.213-23.899c0.12-4.004,0.003-8.022-0.601-11.936c-0.63-3.855-1.682-7.839-4.084-10.615    c-1.192-1.38-2.711-2.259-4.511-2.488c-1.951-0.295-3.915-0.449-5.854-0.369c-3.876,0.128-7.647,1.339-10.587,3.815    c-2.952,2.458-5.121,5.844-6.893,9.396c-1.766,3.573-3.231,7.334-4.638,11.12C386.641,230.414,378.991,244.89,370.479,258.688z"/>
		<path style="fill:#AF312F;" d="M240.956,57.131c0.862-1.417,2.363-2.393,3.968-2.932c1.621-0.563,3.385-0.603,5.053-0.349    c1.685,0.261,3.231,0.944,4.652,1.76c0.692,0.439,1.344,0.939,1.975,1.441c0.584,0.575,1.163,1.14,1.667,1.78    c-0.803-0.221-1.531-0.517-2.255-0.804c-0.738-0.254-1.46-0.51-2.161-0.781c-1.445-0.42-2.831-0.932-4.26-1.109    C246.765,55.652,243.917,55.818,240.956,57.131z"/>
		<path style="fill:#AF312F;" d="M130.404,128.463c1.012-0.893,2.407-1.226,3.737-1.279c1.352-0.061,2.68,0.253,3.918,0.713    c1.238,0.483,2.353,1.189,3.351,2.016c0.983,0.844,1.835,1.83,2.462,2.992c-1.26-0.432-2.357-0.963-3.443-1.47    c-1.106-0.458-2.135-1.002-3.216-1.379C135.07,129.21,132.989,128.567,130.404,128.463z"/>
		<path style="fill:#FFC893;" d="M423.776,199.235c-1.509-0.057-2.898,1.287-2.985,2.795s1.057,2.963,2.521,3.331    c0.258,0.065,0.525,0.1,0.789,0.072c0.713-0.077,1.31-0.616,1.648-1.249C426.781,202.255,426.556,199.34,423.776,199.235z"/>
		<path style="fill:#FFC893;" d="M410.806,203.179c-3.196-0.4-6.557,1.15-8.327,3.841c-0.788,1.198-1.277,2.68-0.942,4.074    c0.436,1.811,2.229,3.086,4.079,3.303c1.85,0.217,3.71-0.466,5.273-1.479c0.786,0.697,1.629,1.329,2.517,1.89    c1.027,0.649,2.172,1.215,3.387,1.199c1.636-0.022,3.163-1.196,3.713-2.737c0.995-2.786-0.851-5.25-2.673-6.986    C415.925,204.463,413.48,203.513,410.806,203.179z"/>
		<path style="fill:#FFC893;" d="M412.808,194.003c-2.834,2.344,2.019,7.814,4.367,4.235c0.616-0.938,1.07-2.336,0.675-3.437    C417.178,192.933,414.118,192.92,412.808,194.003z"/>
		<path style="fill:#FFC893;" d="M402.846,198.282c-0.506,0.617-0.581,1.506-0.267,2.232c0.313,0.725,0.978,1.284,1.738,1.577    c0.36,0.139,0.744,0.223,1.131,0.244c0.274,0.015,0.556-0.004,0.805-0.114c0.405-0.18,0.661-0.576,0.808-0.98    C407.915,198.907,404.857,195.828,402.846,198.282z"/>
		<path style="fill:#AF312F;" d="M400.386,163.278c-1.574-0.173-3.041-0.279-4.5-0.317c-1.453-0.016-2.882-0.013-4.296,0.169    c-1.414,0.14-2.826,0.361-4.24,0.7c-1.433,0.298-2.831,0.761-4.394,1.117c2.091-2.383,5.208-3.791,8.403-4.125    c1.603-0.156,3.233-0.051,4.782,0.353C397.684,161.566,399.185,162.217,400.386,163.278z"/>
		<path style="fill:#AF312F;" d="M394.404,152.799c-3.673,0.351-7.082,0.822-10.431,1.712c-1.674,0.417-3.325,0.934-4.96,1.545    c-1.661,0.575-3.25,1.326-5.007,1.982c1.176-1.431,2.601-2.683,4.221-3.613c1.589-0.999,3.363-1.669,5.171-2.161    c1.82-0.458,3.697-0.689,5.566-0.613C390.823,151.714,392.699,152.021,394.404,152.799z"/>
		<path style="fill:#AF312F;" d="M185.758,235.215c-0.737,4.365-2.475,8.559-5.045,12.168c-0.718,1.001-1.512,1.984-2.437,2.796    c-2.286-3.344-4.327-7.539-5.687-12.773c0.472-0.718,0.926-1.36,1.341-1.871c1.946-2.475,4.497-4.591,7.539-5.347    c1.02-0.265,2.192-0.34,3.099,0.245C186.042,231.38,186.061,233.496,185.758,235.215z"/>
		<path style="fill:#FFC893;" d="M334.086,164.453c-9.844,5.895-20.369,13.964-31.253,24.828    c-21.73-15.078-74.372-3.628-74.372-3.628c-4.1-6.764-12.49-13.283-20.199-18.291c0.435-0.454,1.266-1.285,2.456-2.419    c0.057-0.057,0.094-0.094,0.151-0.132c3.023-2.815,8.219-7.256,14.852-11.356c0.075-0.038,0.151-0.094,0.227-0.132    c7.804-4.799,17.554-9.07,28.04-9.674c1.455-0.094,2.929-0.113,4.421-0.038c0,0-0.094-0.151-0.245-0.435    C294.16,140.002,327.68,160.315,334.086,164.453z"/>
		<path style="fill:#FFC893;" d="M379.226,183.424c-2.437,1.417-4.403,2.532-5.253,3.005    C375.693,185.351,377.45,184.349,379.226,183.424z"/>
		<path style="fill:#FFC893;" d="M386.898,210.935c-11.129,16.911-29.117,13.076-46.52,3.779    c8.427-8.994,20.142-20.029,33.123-28.021C373.501,186.693,382.684,199.503,386.898,210.935z"/>
		<path style="opacity:0.48;fill:#AF312F;" d="M210.719,164.944l0.146-0.139l-0.001,0.001c4.316-4.523,9.215-8.524,14.547-11.876    l0.038-0.021c8.208-5.046,17.568-8.65,27.227-10.112c9.665-1.438,19.548-1.367,29.157,0.286    c9.611,1.591,19.021,4.304,27.935,8.145c8.947,3.736,17.538,8.345,25.413,13.943c-8.306-4.92-17.036-9.043-26.008-12.452    c-8.986-3.356-18.229-6.05-27.686-7.459c-9.438-1.393-19.056-1.728-28.498-0.412c-9.424,1.43-18.581,4.384-26.995,9.154    l0.037-0.02c-2.695,1.527-5.336,3.169-7.857,4.993c-2.522,1.821-4.949,3.784-7.299,5.843l-0.002,0.001L210.719,164.944z"/>
		<path style="opacity:0.48;fill:#AF312F;" d="M207.906,167.717c4.47,2.027,8.562,4.837,12.365,7.97    c3.815,3.134,7.204,6.785,10.194,10.734c1.513,1.967,2.801,4.09,4.084,6.211c0.612,1.077,1.119,2.215,1.681,3.318l0.82,1.667    l0.643,1.746c1.929,4.571,2.823,9.5,3.263,14.354c-0.815-2.33-1.184-4.734-2.16-6.968l-1.225-3.402    c-0.478-1.105-1.015-2.186-1.516-3.276c-2.092-4.315-4.513-8.47-7.448-12.263c-2.847-3.853-6.075-7.425-9.521-10.798    c-1.739-1.67-3.532-3.294-5.414-4.819C211.844,170.59,209.89,169.151,207.906,167.717z"/>
		<path style="fill:#AF312F;" d="M366.226,167.854c-0.057,1.606-0.359,3.288-1.379,4.535c-1.247,1.493-3.401,2.06-5.328,1.757    c-1.927-0.284-3.666-1.323-5.196-2.532c-2.948-2.343-5.234-5.385-7.634-8.238c-1.134-1.341-2.438-2.551-3.722-3.76    c1.474-0.756,2.948-1.436,4.384-2.06c0,0,0,0,0-0.019c0,0,3.911-1.625,5.706-2.286c2.57-0.945,5.064-1.757,7.483-2.419    c0.34,0.51,0.68,1.02,1.02,1.531c1.304,1.965,2.57,3.987,3.42,6.179C365.886,162.866,366.302,165.36,366.226,167.854z"/>
		<path style="fill:#AF312F;" d="M358.99,197.16c-5.499,4.497-10.543,9.259-14.908,13.699c-2.249-1.908-4.27-4.195-6.085-6.481    c-3.363-4.233-6.387-8.786-8.389-13.794c-0.831-2.135-1.436-4.743-0.057-6.576c2.683-3.552,9.448-0.982,12.603,0.491    c4.856,2.249,8.994,5.782,13.019,9.259C356.458,194.874,357.761,195.989,358.99,197.16z"/>
		<path style="opacity:0.48;fill:#AF312F;" d="M293.593,199.088c3.846-4.206,7.533-8.583,11.594-12.606    c4.057-4.022,8.261-7.915,12.709-11.521c8.886-7.214,18.56-13.549,29.06-18.31l-0.593,0.905l0-0.019v-0.666l0.608-0.246    l5.77-2.333l5.941-1.944c3.962-1.29,8.068-2.148,12.208-2.731c4.144-0.565,8.354-0.786,12.561-0.483    c4.181,0.328,8.462,1.061,12.365,3.08c1.934,1.007,3.768,2.401,5.084,4.319c1.324,1.9,1.899,4.389,1.531,6.664    c-0.304,2.301-1.363,4.323-2.581,6.106c-1.242,1.784-2.712,3.351-4.274,4.783c-3.162,2.822-6.654,5.175-10.281,7.231    c-1.792,1.037-3.702,1.993-5.484,2.927l-5.325,3.004l-0.076,0.043l-0.005,0.003l-0.252,0.131l-0.575,0.192    c0.201,0.022,0.472-0.089,0.601-0.243l-0.175,0.138c-9.076,5.483-17.401,12.229-25.176,19.508    c-7.771,7.3-15.115,15.085-21.866,23.38c3.143-4.329,6.535-8.476,10.048-12.516c3.529-4.027,7.161-7.971,10.977-11.739    c7.662-7.495,15.894-14.481,25.01-20.267l-0.174,0.137c0.178-0.179,0.5-0.315,0.751-0.318l-0.574,0.192l0.541-0.322l-0.08,0.045    l5.413-3.127c1.861-0.992,3.633-1.894,5.403-2.934c3.526-2.031,6.889-4.343,9.861-7.034c2.869-2.697,5.57-5.952,6.094-9.619    c0.268-1.805-0.169-3.602-1.202-5.086c-1.035-1.489-2.568-2.676-4.288-3.551c-3.45-1.778-7.457-2.562-11.459-2.889    c-4.016-0.319-8.086-0.138-12.109,0.381c-4.02,0.537-8.027,1.341-11.911,2.577l-5.825,1.859l-5.71,2.261l0.608-0.911v0.019v0.64    l-0.594,0.265c-5.141,2.294-10.242,4.841-15.062,7.81c-4.857,2.926-9.507,6.199-14.002,9.674    c-4.467,3.511-8.834,7.165-13.002,11.046c-2.1,1.924-4.092,3.959-6.072,6.009L293.593,199.088z"/>
		<path style="fill:#AF312F;" d="M343.703,336.324c0.756-3.061,0.435-6.368-0.359-9.391c-1.266-4.818-3.666-9.259-5.196-14.001    c-0.888-2.74-1.323-6.122,0.699-8.182c1.304-1.361,3.401-1.738,5.253-1.361c1.852,0.378,3.496,1.417,4.988,2.589    c5.933,4.648,9.901,11.356,13.378,18.045c0.491,0.945,0.982,1.927,1.455,2.929C357.78,330.523,351.054,333.716,343.703,336.324z"/>
		<path style="fill:#AF312F;" d="M397.063,299.195c-5.442,6.349-11.961,12.773-19.651,18.687c-0.094-0.208-0.189-0.397-0.283-0.605    c-2.532-5.158-6.406-10.128-7.105-16.004c-0.132-1.096-0.132-2.097,0-3.004c1.342-9.334,15.759-7.861,22.221-3.552    C394.078,295.926,395.703,297.456,397.063,299.195z"/>
		<path style="fill:#AF312F;" d="M414.088,274.782c-2.135,3.874-4.818,8.276-8.087,12.943c-7.218-5.555-17.138-7.69-22.637-14.946    c-1.02-1.36-1.89-3.004-1.568-4.686c0.321-1.738,1.927-3.042,3.647-3.496c1.738-0.472,3.552-0.246,5.31,0.075    c6.934,1.266,13.604,3.892,19.538,7.671C411.462,273.1,412.765,273.894,414.088,274.782z"/>
		<path style="fill:#AF312F;" d="M425.727,244.266c-1.247,5.121-2.57,9.693-3.741,13.189c-3.855-1.757-7.539-3.911-10.921-6.443    c-0.661-0.472-1.323-1.002-1.719-1.719c-0.926-1.738,0.132-4.025,1.814-5.045c1.682-1.039,3.76-1.134,5.725-1.096    C419.927,243.189,422.893,243.567,425.727,244.266z"/>
		<polygon style="fill:#FF5555;" points="289.191,277.352 294.165,265.556 302.833,264.327 310.958,272.667 307.24,282.952     292.948,281.593   "/>
		<path style="fill:#FFFFFF;" d="M257.863,251.957c-1.484-0.131,17.858,12.371,32.607,27.2l6.785-17.13    C297.256,262.026,272.779,253.272,257.863,251.957z"/>
		<path style="fill:#FFFFFF;" d="M290.471,279.156c0,0,15.47,19.03,22.741,34.456v-37.585    C313.211,276.026,301.279,276.894,290.471,279.156z"/>
		<g>
			<path style="fill:#FF5555;" d="M375.44,367.085l-3.968-0.945l-1.871-0.435l-6.519-1.549l-1.833-0.435l-8.257-1.946l-0.869-0.208     c0,0-0.265-0.359-0.699-1.115c-1.115-1.946-3.344-6.613-4.837-14.908c-0.208-1.115-0.397-2.286-0.567-3.533     c-0.567-4.1-0.945-8.918-0.983-14.549c-0.019-1.871,0.019-3.76,0.076-5.65c0.019-1.304,0.076-2.608,0.132-3.911     c0.227-5.612,0.624-11.167,0.85-16.439c0.057-1.209,0.094-2.4,0.132-3.552c0.113-4.327,0.076-8.408-0.34-12.055     c-0.094-0.964-0.227-1.89-0.397-2.778c-0.491-2.853-1.266-5.404-2.438-7.558c-0.321-0.605-0.68-1.19-1.096-1.719     c-1.096-1.549-2.494-2.834-4.195-3.798c-0.416-0.246-0.869-0.453-1.323-0.661c-0.132-0.057-0.246-0.113-0.378-0.151     c-2.022-0.85-3.987-1.417-5.914-1.738c-0.662-0.113-1.323-0.208-1.965-0.265c-2.532-0.227-4.951-0.076-7.199,0.321     c-0.737,0.113-1.436,0.284-2.135,0.453c-2.683,0.68-5.102,1.701-7.161,2.759c-0.775,0.416-1.512,0.813-2.192,1.228     c-3.307,2.003-5.253,3.874-5.253,3.874l-4.875-9.391c0,0,5.026-3.382,12.527-5.99c0.661-0.246,1.36-0.472,2.079-0.68     c2.475-0.775,5.158-1.417,7.993-1.833c0.68-0.094,1.36-0.189,2.059-0.246c2.721-0.283,5.574-0.321,8.465,0     c0.642,0.076,1.304,0.151,1.965,0.265c2.362,0.397,4.743,1.02,7.105,1.984c0.567,0.208,1.153,0.472,1.738,0.756     c0.227,0.094,0.435,0.189,0.661,0.302c1.682,0.831,3.212,1.852,4.611,3.023c0.491,0.416,0.963,0.85,1.398,1.304     c1.55,1.512,2.891,3.231,4.081,5.121c0.378,0.586,0.737,1.171,1.077,1.795c1.285,2.324,2.381,4.894,3.326,7.634     c0.265,0.737,0.51,1.493,0.737,2.267c0.85,2.778,1.549,5.706,2.135,8.73c0.189,0.926,0.359,1.871,0.529,2.815     c0.416,2.494,0.794,5.007,1.115,7.558c0.17,1.266,0.321,2.551,0.454,3.836c0.416,3.59,0.775,7.199,1.115,10.714     c0.17,1.701,0.34,3.382,0.491,5.026c0.529,4.988,1.096,9.712,1.908,13.907c0.302,1.606,0.643,3.137,1.02,4.572     c0.926,3.42,2.097,6.292,3.666,8.427c0.51,0.737,1.077,1.379,1.701,1.908c0.265,0.246,0.529,0.453,0.794,0.642L375.44,367.085z"/>
			<path style="fill:#9CF0E7;" d="M373.324,349.626l-1.852,16.514l-1.871-0.435l2.022-17.988     C372.134,348.455,372.701,349.097,373.324,349.626z"/>
			<path style="fill:#9CF0E7;" d="M367.958,339.29l-4.875,24.866l-1.833-0.435l5.687-29.004     C367.24,336.324,367.58,337.854,367.958,339.29z"/>
			<path style="fill:#9CF0E7;" d="M365.029,320.811l-12.036,40.965l-0.869-0.208c0,0-0.265-0.359-0.699-1.115l13.113-44.668     C364.708,317.486,364.878,319.167,365.029,320.811z"/>
			<path style="fill:#9CF0E7;" d="M363.423,305.071l-16.836,40.473c-0.208-1.115-0.397-2.286-0.567-3.533l16.949-40.776     C363.14,302.502,363.291,303.786,363.423,305.071z"/>
			<path style="fill:#9CF0E7;" d="M361.855,293.677l-16.741,28.135c0.019-1.304,0.076-2.608,0.132-3.911l16.08-27.039     C361.514,291.788,361.685,292.733,361.855,293.677z"/>
			<path style="fill:#9CF0E7;" d="M359.191,282.132l-13.094,19.33c0.057-1.209,0.094-2.4,0.132-3.552l12.225-18.045     C358.718,280.602,358.964,281.358,359.191,282.132z"/>
			<path style="fill:#9CF0E7;" d="M355.128,272.231l-9.24,13.624c-0.094-0.964-0.227-1.89-0.397-2.778l8.559-12.641     C354.429,271.022,354.788,271.608,355.128,272.231z"/>
			<path style="fill:#9CF0E7;" d="M349.97,265.316l-6.916,10.204c-0.321-0.605-0.68-1.19-1.096-1.719l6.613-9.788     C349.062,264.427,349.535,264.862,349.97,265.316z"/>
			<path style="fill:#9CF0E7;" d="M343.3,260.686l-5.536,9.315c-0.416-0.246-0.869-0.453-1.323-0.661     c-0.132-0.057-0.246-0.113-0.378-0.151l5.499-9.259C342.128,260.138,342.714,260.403,343.3,260.686z"/>
			<path style="fill:#9CF0E7;" d="M334.457,257.946l-4.308,9.504c-0.662-0.113-1.323-0.208-1.965-0.265l4.308-9.504     C333.134,257.758,333.795,257.833,334.457,257.946z"/>
			<path style="fill:#9CF0E7;" d="M324.026,257.682l-3.042,9.826c-0.737,0.113-1.436,0.284-2.135,0.453l3.118-10.033     C322.647,257.833,323.327,257.739,324.026,257.682z"/>
			<path style="fill:#9CF0E7;" d="M313.974,259.761l-2.287,10.959c-0.775,0.416-1.512,0.813-2.192,1.228l2.4-11.507     C312.557,260.195,313.256,259.968,313.974,259.761z"/>
		</g>
	</g>
	<g>
		<path style="fill:#FFFFFF;" d="M76.561,66.674c0,0-0.908,16.078,11.367,19.463c0,0-11.506,2.523-11.367,21.055    c0,0-2.04-18.96-11.646-21.055C64.915,86.138,76.422,82.151,76.561,66.674z"/>
		<path style="fill:#FFFFFF;" d="M90.938,41.159c0,0-0.618,10.947,7.739,13.251c0,0-7.834,1.718-7.739,14.334    c0,0-1.389-12.908-7.929-14.334C83.009,54.41,90.843,51.696,90.938,41.159z"/>
	</g>
	<g>
		<path style="fill:#FFFFFF;" d="M417.219,291.643c0,0-0.908,16.078,11.367,19.463c0,0-11.507,2.523-11.367,21.055    c0,0-2.04-18.96-11.646-21.055C405.574,311.106,417.08,307.12,417.219,291.643z"/>
		<path style="fill:#FFFFFF;" d="M431.596,266.128c0,0-0.618,10.947,7.739,13.251c0,0-7.834,1.718-7.739,14.334    c0,0-1.389-12.908-7.929-14.334C423.667,279.379,431.501,276.665,431.596,266.128z"/>
	</g>
</g>















</svg>
