<?xml version="1.0" encoding="UTF-8"?>
<!-- Generator: Adobe Illustrator 25.3.1, SVG Export Plug-In . SVG Version: 6.00 Build 0)  -->
<svg xmlns="http://www.w3.org/2000/svg" xmlns:xlink="http://www.w3.org/1999/xlink" version="1.1" id="Capa_1" x="0px" y="0px" viewBox="0 0 512 512" style="enable-background:new 0 0 512 512;" xml:space="preserve" width="512" height="512">
<g>
	<g>
		<g>
			<g>
				<path style="fill:#FF8EDE;" d="M253.876,396.308c0.323,1.067,0.204,1.279-0.85,1.873c-21.67,12.234-41.686,5.138-47.605-7.995      c-3.517-7.809-5.164-21.521-5.021-27.378c0.018-0.521,0.399-0.485,0.712-0.295c12.511,7.997,28.701,14.839,45.454,18.175      C249.749,381.321,248.661,379.138,253.876,396.308z"/>
				<path style="fill:#FF8EDE;" d="M412.717,351.537c-1.544,3.721-5.341,7.64-10.009,11.256      c-10.31,8.033-24.822,14.654-28.319,14.583c-6.381-0.123-11.006-3.425-14.839-7.991c-3.003-3.567-5.514-7.894-8.007-12.082      c-1.523-2.546,0.034-1.188,10.974-12.55c1.422-1.489,2.89-2.006,5.217-2.819c2.391-0.839,4.863-1.985,7.344-3.391      c6.847-3.913,13.713-9.853,18.81-17.178c1.355-1.941,1.731-3.005,2.631-2.199c1.49,1.329,6.718,6.839,9.177,9.479      c0.428,0.438,0.777,0.817,1.001,1.06C412.66,336.25,416.113,343.332,412.717,351.537z"/>
				<path style="fill:#FF8EDE;" d="M390.279,253.753c1.503,14.521-1.369-3.046-27.203-7.216      c-51.532-8.321-87.635,55.255-49.338,88.146c18.993,16.304,42.115,10.205,42.505,10.879      c0.634,1.111-13.074,12.155-22.694,17.716c-6.719,3.864-6.077,3.062-7.477,3.754c-3.061,1.522-1.508,3.249-0.329,7.36      c4.67,16.244,6.534,26.881-0.543,35.013c-3.32,3.825-8.591,7.07-16.484,10.087c-8.254,3.176-17.184,4.945-26.029,4.147      c-9.335-0.827-15.371-7.142-19.728-15.504c-4.304-8.274-8.343-17.899-10.001-27.11c-1.139-6.275-9.973-0.488-40.166-15.811      c-36.058-18.271-64.089-55.673-67.605-101.349c-0.246-3.227-0.355-6.433-0.333-9.58      c0.623-80.364,87.768-133.813,156.147-107.343c2.446,0.957-0.152-0.014-7.555,18.836c-0.664,1.691-3.732,10.41-3.755,12.236      c-0.037,1.226,1.943,1.832,2.474,0.743c1.575-3.311,11.358-41.039,32.547-49.323c19.012-7.418,30.806,17.746,34.819,38.339      c3.375,17.299,1.404,17.755,3.465,20.219C377.551,205.348,387.587,228.02,390.279,253.753z"/>
				<path style="fill:#FF8EDE;" d="M364.699,339.462c-48.041,16.257-80.746-31.458-53.689-67.815      c20.633-27.726,63.926-30.717,82.448-2.042C409.99,295.201,392.951,329.898,364.699,339.462z"/>
			</g>
			<g>
				<path style="fill:#FC09B2;" d="M341.976,276.434c-16.554,10.194-24.877,26.41-23.574,24.249c-1.049,1.739-3.73,0.536-3.13-1.404      c7.269-23.449,35.848-42.076,59.372-34.722c1.817,0.569,1.327,3.281-0.575,3.175      C368.332,267.413,351.615,270.347,341.976,276.434z"/>
				<path style="fill:#FC09B2;" d="M317.519,370.289c1.936-0.461,3.001,2.201,1.252,3.197c-16.596,9.335-41.981,13.366-60.527,7.344      c-1.776-0.576-1.331-3.226,0.543-3.18C282.232,378.22,294.64,375.62,317.519,370.289z"/>
				<path style="fill:#FC09B2;" d="M331.841,387.42c4.214,20.496-13.784,41.268-52.675,37.224      c-10.539-1.093-15.82-11.831-15.927-11.918c-1.447-1.125-1.321-2.404-0.656-3.948c0.108-0.244,0.215-0.487,0.344-0.721      c5.318-11.046,19.161-13.258,30.932-9.139c7.969,2.79,7.85,3.663,8.474,1.492c0.486-1.676,1.142-3.289,1.935-4.791      C311.367,382.026,329.392,375.469,331.841,387.42z"/>
				<path style="fill:#FC09B2;" d="M406.31,364.126c-3.335,3.74-7.458,7.106-11.966,9.907c-15.059,9.367-30.556,5.157-34.055-0.108      c-0.773-1.186-0.92-2.836-0.739-4.54c0.173-1.866,0.734-3.773,1.23-5.141c1.248-3.441,3.601-6.357,6.399-8.695      c8.443-7.031,15.457-3.722,18.339-3.816c0.753,0.001,1.212-0.233,1.356-0.95c0.217-1.094,0.295-2.262,0.647-3.336      c1.823-5.5,4.137-10.733,8.439-14.867c2.648-2.535,5.884-4.878,9.447-4.025c0.098,0.017,0.202,0.05,0.291,0.089      c1.964,0.52,3.7,1.441,4.913,3.19C418.227,342.913,414.737,354.697,406.31,364.126z"/>
				<path style="fill:#FC09B2;" d="M233.455,216.895c-5.654,6.399-14.722,20.778-16.563,24.172      c-2.02,3.724-3.698,7.637-5.751,11.338c-4.713,8.492-11.848-10.252-13.16-13.901c-7.48-20.801-5.532-33.099,16.011-31.174      C222.109,208.055,238.853,210.785,233.455,216.895z"/>
				<path style="fill:#FC09B2;" d="M313.894,177.667c-1.305,0.036-2.617,0.037-3.919-0.046c-3.686-0.234-4.6-3.079-3.845-5.701      c2.041-7.092,6.878-16.439,13.078-23.345c13.611-15.161,28.322,13.506,31.324,24.361      C354.189,186.16,340.077,176.947,313.894,177.667z"/>
				<path style="fill:#FC09B2;" d="M256.236,395.124c0.87,2.63,0.193,4.124-1.323,5.115c-11.706,7.648-28.091,8.868-45.585-1.484      c-3.178-1.881-4.795-3.45-3.301-6.566c2.141-4.464,6.294-7.896,10.637-10.104c5.283-2.685,15.242-2.75,22.522,2.974      c2.746,2.159,0.182-0.334,9.36-5.804c1.274-0.759,1.774-0.611,2.423,0.81C252.271,382.916,254.713,390.522,256.236,395.124z"/>
			</g>
			<g style="opacity:0.5;">
				<path style="fill:#FC09B2;" d="M304.268,395.619c-0.792,1.501-1.449,3.115-1.935,4.791c-0.624,2.171-0.505,1.298-8.474-1.492      c-11.771-4.12-25.614-1.907-30.932,9.139c-4.298-8.258-8.324-17.85-9.97-27.03c-1.139-6.275-9.973-0.488-40.166-15.811      c-36.058-18.271-64.089-55.673-67.605-101.349c-0.246-3.227-0.355-6.433-0.333-9.58c6.068,14.599,13.561,28.569,23.876,40.451      c11.458,13.216,23.848,25.998,37.792,36.595c6.782,5.162,14.249,10.294,22.466,12.823c21.934,6.789,48.237-4.623,60.386,21.357      c3.301,7.066,5.17,14.746,8.82,21.622C299.777,390.116,301.841,392.965,304.268,395.619z"/>
				<path style="fill:#FC09B2;" d="M385.518,351.734c-2.882,0.094-9.897-3.215-18.339,3.816c-2.798,2.338-5.15,5.254-6.399,8.695      c-0.496,1.368-1.057,3.275-1.23,5.141c-3.003-3.567-5.514-7.894-8.007-12.082c-1.523-2.546,0.034-1.188,10.974-12.55      c1.422-1.489,2.89-2.006,5.217-2.819c2.391-0.839,4.863-1.985,7.344-3.391C377.818,343.46,381.379,347.893,385.518,351.734z"/>
			</g>
			<g style="opacity:0.25;">
				<path style="fill:#000E3F;" d="M325.2,409.407c-3.32,3.825-8.591,7.07-16.484,10.087c-8.254,3.176-17.184,4.945-26.029,4.147      c-9.335-0.827-15.371-7.142-19.728-15.504l-0.031-0.08c5.318-11.046,19.161-13.258,30.932-9.139      c7.969,2.79,7.85,3.663,8.474,1.492c0.486-1.676,1.142-3.289,1.935-4.791C309.822,401.681,317.266,406.658,325.2,409.407z"/>
				<path style="fill:#000E3F;" d="M406.31,364.126c-3.335,3.74-7.458,7.106-11.966,9.907c-15.059,9.367-30.556,5.157-34.055-0.108      c-0.773-1.186-0.92-2.836-0.739-4.54c0.173-1.866,0.734-3.773,1.23-5.141c1.248-3.441,3.601-6.357,6.399-8.695      c8.443-7.031,15.457-3.722,18.339-3.816c5.007,4.659,10.864,8.437,17.19,11.059C403.884,363.271,405.094,363.736,406.31,364.126      z"/>
			</g>
		</g>
		<g>
			<path style="fill:#000E3F;" d="M399.389,317.058c-1.758-1.83-1.815-1.881-0.691-4.228c5.43-11.328,6.553-25.514,1.436-38.188     c-3.667-9.091-5.967-8.544-5.956-11.485c0.074-18.862-4.939-37.872-12.778-53.25c-10.572-20.702-16.106-22.421-16.346-26.622     c-2.464-42.691-27.47-77.323-55.037-46.567c-6.648,7.396-4.821,7.989-7.427,7.094c-82.754-28.786-174.329,39.455-159.657,131.433     c3.355,21.069,10.207,32.922,11.481,36.005c0.64,1.55,0.628,1.849-0.655,3.173c-1.313,1.392-2.772,2.639-4.326,3.74     c-6.89,4.793-15.688,5.959-23.677,3.544c-16.845-5.082-21.072-23.297-20.6-23.407c2.047-0.448,3.389,1.398,10.64,1.255     c11.199-0.229,18.265-7.824,17.715-15.98c-0.88-13.205-18.216-15.818-28.193-1.601c-5.534,7.899-1.865,11.995-6.341,7.24     c-11.789-12.556-5.517-34.453,4.031-38.5c0.785-0.342,1.355-1.188,1.005-2.135c-0.948-2.531-7.72-0.593-12.471,10.544     c-5.479,12.852-2.342,26.995,7.835,35.222c3.796,3.056,0.206,4.82,6.282,15.763c8.432,15.202,30.014,21.56,46.027,11.106     c4.081-2.671,4.691-6.103,6.014-3.975c1.559,2.495,3.154,4.94,4.795,7.367c17.774,26.049,30.582,30.846,33.536,34.524     c1.259,1.584,0.25,2.105,1.239,10.586c1.174,9.95,2.213,20.211,8.67,27.793c7.045,8.29,17.818,11.163,28.731,10.294     c15.828-1.259,20.339-8.485,21.329-5.989c1.872,4.76,5.67,11.927,9.519,16.486c14.867,17.543,48.591,5.904,59.468-3.689     c11.899-10.505,9.588-25.685,4.236-40.709c-1.953-5.536-0.289-2.77,13.862-12.536c4.153-2.865,4.559-3.757,5.34-2.409     c9.376,16.12,17.797,26.627,37.967,20.061c6.694-2.183,16.789-8.553,24.035-17.193     C426.841,342.221,412.342,330.39,399.389,317.058z M128.574,279.721c6.345,12.144-10.776,20.512-22.686,14.659     c-0.712-0.366-1.032-0.81-0.954-1.648C106.259,278.517,123.96,270.89,128.574,279.721z M364.699,339.462     c-48.042,16.257-80.746-31.458-53.69-67.815c20.633-27.726,63.927-30.718,82.448-2.042     C409.99,295.201,392.951,329.898,364.699,339.462z M253.025,398.181c-21.67,12.234-41.686,5.138-47.605-7.996     c-3.517-7.809-5.164-21.521-5.021-27.378c0.018-0.52,0.399-0.485,0.712-0.295c12.511,7.997,28.701,14.839,45.455,18.175     c3.183,0.633,2.096-1.55,7.31,15.62C254.199,397.375,254.08,397.587,253.025,398.181z M333.55,363.279     c-6.719,3.864-6.077,3.062-7.477,3.754c-3.061,1.522-1.508,3.249-0.33,7.36c6.861,23.854,7.672,35.652-17.028,45.1     c-8.254,3.176-17.184,4.945-26.029,4.147c-9.335-0.827-15.371-7.142-19.728-15.504c-4.304-8.274-8.343-17.899-10.001-27.11     c-1.139-6.275-9.973-0.488-40.166-15.811c-36.058-18.271-64.089-55.673-67.605-101.349     c-6.579-85.619,84.752-144.441,155.815-116.924c2.446,0.957-0.152-0.014-7.555,18.837c-0.664,1.691-3.732,10.41-3.755,12.236     c-0.037,1.226,1.943,1.832,2.474,0.743c1.575-3.311,11.358-41.039,32.547-49.323c19.012-7.418,30.806,17.746,34.819,38.339     c3.375,17.299,1.404,17.755,3.465,20.219c14.555,17.353,24.591,40.025,27.283,65.758c1.503,14.521-1.369-3.046-27.203-7.216     c-51.532-8.322-87.636,55.255-49.339,88.146c18.993,16.304,42.115,10.205,42.505,10.879     C356.877,346.673,343.169,357.717,333.55,363.279z M373.623,377.931c-11.219-1.78-16.41-11.106-22.08-20.628     c-1.523-2.546,0.034-1.189,10.974-12.55c1.422-1.489,2.89-2.006,5.217-2.819c9.023-3.182,19.216-10.618,26.154-20.569     c1.355-1.941,1.731-3.005,2.631-2.199c1.746,1.56,8.587,8.809,10.178,10.54c5.961,6.545,9.415,13.626,6.019,21.831     C407.768,363.485,385.077,379.749,373.623,377.931z"/>
			<path style="fill:#000E3F;" d="M250.66,199.404c-16.831-5.99-45.715-14.737-62.836-5.331c-4.145,2.278-7.572,5.664-9.762,9.867     c-10.665,20.458,7.689,52.628,20.452,71.863c1.733,2.611,3.743,1.269,3.604-0.579c-0.048-0.64-0.425-1.121-0.764-1.635     c-13.204-20.018-34.146-57.775-15.992-73.421c6.815-5.873,16.689-6.826,25.31-6.462c12.506,0.528,24.867,3.909,36.571,8.177     c3.218,1.173,4.435,1.71,5.17,0.166C253.025,200.757,252.018,199.888,250.66,199.404z"/>
			<path style="fill:#000E3F;" d="M344.624,291.732c-3.76-0.969-6.526,0.863-7.752,4.361c-1.635,4.664,1.698,11.04,7.525,11.912     C353.337,309.341,355.069,294.423,344.624,291.732z"/>
			<path style="fill:#000E3F;" d="M366.402,293.393c2.794,1.379,6.106,0.445,7.92-2.096c5.8-8.126-4.339-19.145-10.75-12.354     C359.831,282.907,360.579,290.518,366.402,293.393z"/>
			<path style="fill:#000E3F;" d="M278.578,259.854c-4.899,1.856-7.41,7.308-5.61,12.183c1.501,4.832,7.584,7.608,12.354,5.717     c4.823-1.912,7.404-7.389,5.624-12.211C289.102,260.545,283.525,257.98,278.578,259.854z"/>
			<path style="fill:#000E3F;" d="M361.178,236.871c4.243-1.531,7.49-7.541,5.341-12.586c-4.825-11.326-22.334-4.75-17.73,7.315     C350.629,236.422,356.265,238.644,361.178,236.871z"/>
			<path style="fill:#000E3F;" d="M374.254,300.057c1.217,5.205-1.207,11.01-5.763,13.803c-4.562,2.801-10.831,2.319-14.918-1.124     c-1.726-1.46-3.938,1.157-2.205,2.615c5.156,4.345,13.094,4.986,18.911,1.427c5.775-3.542,8.848-10.901,7.306-17.501     C377.073,297.075,373.743,297.85,374.254,300.057z"/>
			<path style="fill:#000E3F;" d="M274.18,178.187c-15.748-14.639-37.085-21.212-58.539-18.032     c-0.944,0.133-1.581,1.008-1.442,1.941c0.139,0.936,1.008,1.581,1.943,1.441c20.421-3.025,40.726,3.227,55.708,17.155     C273.509,182.233,275.835,179.727,274.18,178.187z"/>
		</g>
	</g>
	<g>
		<g>
			<g>
				<path style="fill:#FFCF00;" d="M473.267,334.336c-15.17,0-29.679-8.873-37.868-23.156      c-11.996-20.933-6.451-46.739,12.366-57.527c5.426-3.108,11.658-4.753,18.021-4.753c15.17,0,29.679,8.873,37.868,23.159      c11.999,20.931,6.45,46.737-12.366,57.525C485.862,332.693,479.63,334.336,473.267,334.336z"/>
				<path style="fill:#FD8A02;" d="M490.285,327.834c-17.882,10.25-41.674,2.348-53.142-17.657      c-11.464-20-6.259-44.524,11.623-54.774c1.697-0.973,3.445-1.779,5.234-2.435c-13.97,11.575-17.245,33.387-6.871,51.484      c10.377,18.104,30.854,26.3,47.902,20.095C493.561,325.76,491.982,326.861,490.285,327.834z"/>
				
					<ellipse transform="matrix(0.8676 -0.4973 0.4973 0.8676 -81.0015 273.9809)" style="fill:#FD8A02;" cx="473.945" cy="289.085" rx="21.427" ry="29.889"/>
				<g style="opacity:0.18;">
					<path style="fill:#000E3F;" d="M435.283,269.688l9.98-5.721c0.709-1.392,1.505-2.734,2.386-4.018       c-0.448-0.246-1.007-0.265-1.483,0.008l-7.459,4.275C437.403,265.94,436.262,267.768,435.283,269.688z"/>
					<path style="fill:#000E3F;" d="M432.005,278.902c-0.278,1.27-0.496,2.56-0.652,3.866l9.992-5.728       c0.155-1.304,0.369-2.594,0.645-3.862L432.005,278.902z"/>
					<path style="fill:#000E3F;" d="M441.443,287.81c-0.149-1.105-0.257-2.209-0.32-3.309l-9.986,5.724       c0.064,1.1,0.173,2.203,0.322,3.308L441.443,287.81z"/>
					<path style="fill:#000E3F;" d="M443.792,297.289c-0.358-0.975-0.677-1.956-0.964-2.94l-9.984,5.723       c0.287,0.983,0.609,1.963,0.967,2.938L443.792,297.289z"/>
					<path style="fill:#000E3F;" d="M437.928,311.477l9.983-5.722c-0.265-0.43-0.529-0.86-0.782-1.302       c-0.252-0.44-0.489-0.883-0.725-1.327l-9.983,5.723c0.236,0.444,0.47,0.889,0.722,1.329       C437.396,310.619,437.663,311.047,437.928,311.477z"/>
					<path style="fill:#000E3F;" d="M453.677,313.275c-0.704-0.745-1.388-1.516-2.049-2.318l-9.981,5.721       c0.661,0.801,1.343,1.574,2.047,2.319L453.677,313.275z"/>
					<path style="fill:#000E3F;" d="M461.314,319.724c-0.917-0.611-1.815-1.261-2.693-1.949l-9.984,5.723       c0.878,0.687,1.775,1.339,2.691,1.95L461.314,319.724z"/>
					<path style="fill:#000E3F;" d="M471.523,324.698c-1.235-0.402-2.455-0.87-3.659-1.395l-9.992,5.727       c1.206,0.526,2.429,0.989,3.665,1.391L471.523,324.698z"/>
					<path style="fill:#000E3F;" d="M471.144,332.249c2.152,0.126,4.305,0.066,6.438-0.198l9.986-5.724       c-2.134,0.263-4.289,0.328-6.444,0.201L471.144,332.249z"/>
				</g>
				<path style="opacity:0.75;fill:#FFFFFF;" d="M465.794,255.19c7.779-0.525,16.926,2.089,24.029,8.132      c7.33,6.385,10.24,13.399,11.577,22.536c0.094,0.647-0.353,1.247-1,1.342c-3.068,0.447-3.069-17.427-23.379-26.389      c-9.546-4.126-12.641-2.565-12.248-4.71C464.866,255.59,465.297,255.224,465.794,255.19z"/>
			</g>
			<g>
				<path style="fill:#000E3F;" d="M485.199,290.7c0.72,1.777,0.695,3.618-0.499,5.788c-0.172,0.406-1.762,2.544-1.971,2.629      c0.151,0.373,0.998,2.58,1.149,2.953l0.068,0.168c0.268,0.662,0.038,1.283-1.121,1.753c-0.538,0.218-1.099,0.492-1.721,0.744      l-1.159,0.469c-3.018,1.222-1.39-3.673-4.497-3.377c-4.549,0.301-5.911-1.991-7.402-5.673c-0.67-1.653-0.855-2.11,1.047-2.881      c0.622-0.252,1.153-0.369,1.666-0.53c1.374-0.412,2.719-1.485,3.407,0.212c0.184,0.454,0.375,0.81,0.559,1.264      c0.353,0.87,1.03,1.703,2.478,1.116c0.867-0.351,1.65-1.392,1.299-2.259c-1.425-3.518-7.471-3.815-10.943-5.491      c-1.866-0.927-3.671-2.652-4.476-4.638c-0.554-1.367-0.636-2.875-0.021-4.329c0.566-1.336,1.72-2.765,2.852-3.658      c0.239-0.241,0.007-0.339-0.11-0.628c-0.084-0.208-1.365-2.772-1.448-2.977c-0.336-0.83,1.14-1.232,2.131-1.634      c-0.205,0.083,3.179-1.432,3.776-0.903l1.373,3.391c0.151,0.373,0.383,0.471,0.773,0.363c2.153-0.633,4.513,0.675,5.655,1.707      c1.137,1.03,1.533,2.125,2.136,3.614c0.335,0.827-0.102,1.293-0.972,1.645l-0.662,0.268c-0.827,0.335-1.455,0.687-2.281,1.022      c-3.559,1.441-2.269-2.985-4.917-1.912c-0.87,0.352-1.593,1.658-1.192,2.649c0.972,2.399,5.876,2.967,8.861,3.683      C481.811,285.908,484.278,288.425,485.199,290.7z"/>
				<path style="fill:#000E3F;" d="M465.785,250.913c13.908-0.001,28.059,8.082,36.12,22.144      c11.466,20.002,6.264,44.527-11.618,54.778c-5.311,3.045-11.145,4.488-17.021,4.488c-13.908,0-28.059-8.083-36.119-22.145      c-11.466-20.002-6.265-44.527,11.618-54.778C454.077,252.356,459.909,250.913,465.785,250.913 M465.786,246.886L465.786,246.886      c-6.716,0-13.293,1.737-19.022,5.021c-19.781,11.338-25.661,38.377-13.109,60.273c8.545,14.908,23.724,24.169,39.612,24.169      c6.715,0,13.293-1.736,19.023-5.021c19.78-11.339,25.661-38.377,13.109-60.273C496.852,256.147,481.674,246.886,465.786,246.886      L465.786,246.886z"/>
			</g>
		</g>
		<g>
			<g>
				<path style="fill:#FFCF00;" d="M252.994,154.225c-1.527,0-3.071-0.111-4.592-0.328c-9.517-1.352-17.864-6.754-23.501-15.21      c-5.592-8.381-7.848-18.777-6.354-29.271c2.813-19.792,18.499-34.718,36.485-34.718c1.527,0,3.071,0.112,4.592,0.328      c9.515,1.352,17.861,6.754,23.499,15.208c5.592,8.386,7.851,18.781,6.357,29.273      C286.663,139.299,270.978,154.225,252.994,154.225z"/>
				<path style="fill:#FD8A02;" d="M248.686,151.903c-18.487-2.63-31.092-21.523-28.15-42.205      c2.941-20.676,20.314-35.306,38.801-32.676c1.755,0.249,3.453,0.647,5.096,1.174c-16.429,0.496-30.913,14.261-33.574,32.97      c-2.662,18.716,7.409,35.974,23.048,41.031C252.182,152.245,250.441,152.153,248.686,151.903z"/>
				<path style="fill:#FD8A02;" d="M254.768,141.92c-10.614-1.51-17.512-14.736-15.406-29.542      c2.106-14.806,12.418-25.584,23.032-24.074c10.614,1.51,17.511,14.736,15.405,29.542      C275.694,132.652,265.383,143.43,254.768,141.92z"/>
				<g style="opacity:0.18;">
					<path style="fill:#000E3F;" d="M241.748,79.725l10.318,1.468c1.282-0.6,2.598-1.116,3.942-1.543       c-0.183-0.425-0.572-0.75-1.064-0.82l-7.711-1.097C245.35,78.226,243.517,78.897,241.748,79.725z"/>
					<path style="fill:#000E3F;" d="M234.276,84.485c-0.905,0.753-1.78,1.553-2.618,2.4l10.33,1.469       c0.837-0.845,1.707-1.648,2.612-2.401L234.276,84.485z"/>
					<path style="fill:#000E3F;" d="M236.061,96.106c0.509-0.873,1.046-1.721,1.613-2.543l-10.323-1.468       c-0.567,0.821-1.103,1.671-1.611,2.543L236.061,96.106z"/>
					<path style="fill:#000E3F;" d="M232.463,104.189c0.287-0.896,0.605-1.775,0.948-2.638l-10.322-1.468       c-0.343,0.863-0.658,1.742-0.945,2.638L232.463,104.189z"/>
					<path style="fill:#000E3F;" d="M220.373,111.064l10.32,1.468c0.05-0.454,0.101-0.909,0.166-1.366       c0.065-0.455,0.142-0.903,0.221-1.352l-10.32-1.468c-0.079,0.449-0.159,0.897-0.224,1.352       C220.471,110.154,220.423,110.609,220.373,111.064z"/>
					<path style="fill:#000E3F;" d="M230.628,121.117c-0.088-0.924-0.148-1.856-0.174-2.797l-10.319-1.468       c0.026,0.941,0.083,1.873,0.172,2.797L230.628,121.117z"/>
					<path style="fill:#000E3F;" d="M232.495,129.978c-0.315-0.947-0.595-1.912-0.84-2.892l-10.322-1.468       c0.245,0.98,0.523,1.945,0.838,2.892L232.495,129.978z"/>
					<path style="fill:#000E3F;" d="M237.023,139.217c-0.659-0.975-1.27-1.988-1.838-3.034l-10.33-1.47       c0.569,1.047,1.186,2.059,1.845,3.035L237.023,139.217z"/>
					<path style="fill:#000E3F;" d="M232.548,144.402c1.468,1.288,3.04,2.444,4.711,3.443l10.324,1.468       c-1.672-1-3.248-2.154-4.717-3.443L232.548,144.402z"/>
				</g>
				<path style="opacity:0.75;fill:#FFFFFF;" d="M271.626,86.35c5.853,3.955,10.934,10.916,12.646,19.19      c1.684,8.645-0.141,15.278-4.273,22.552c-0.293,0.515-0.947,0.695-1.462,0.403c-2.441-1.389,7.508-14.164-2.018-31.876      c-4.525-8.263-7.606-8.871-6.131-10.185C270.74,86.118,271.252,86.097,271.626,86.35z"/>
			</g>
			<g>
				<path style="fill:#000E3F;" d="M265.725,122.532c-0.475,1.671-1.518,2.973-3.579,3.859c-0.349,0.195-2.676,0.837-2.872,0.782      c-0.1,0.351-0.723,2.4-0.823,2.75l-0.045,0.158c-0.177,0.622-0.687,0.939-1.777,0.629c-0.506-0.144-1.06-0.26-1.644-0.426      l-1.09-0.31c-2.837-0.807,1.051-3.399-1.334-4.917c-3.418-2.317-3.116-4.713-2.132-8.176c0.442-1.555,0.564-1.984,2.352-1.476      c0.584,0.166,1.029,0.378,1.486,0.549c1.211,0.471,2.77,0.453,2.317,2.048c-0.121,0.426-0.183,0.788-0.304,1.215      c-0.233,0.818-0.212,1.79,1.15,2.177c0.815,0.232,1.954-0.076,2.186-0.891c0.94-3.308-3.215-6.886-4.763-10.017      c-0.818-1.701-1.148-3.939-0.617-5.806c0.366-1.286,1.146-2.409,2.395-3.105c1.148-0.64,2.769-1.019,4.075-1.027      c0.305-0.04,0.194-0.239,0.271-0.51c0.056-0.196,0.568-2.741,0.622-2.934c0.222-0.78,1.501-0.246,2.433,0.019      c-0.193-0.055,3.069,0.746,3.202,1.457l-0.906,3.188c-0.099,0.351,0.011,0.55,0.35,0.69c1.891,0.746,2.85,2.995,3.091,4.368      c0.239,1.369-0.087,2.372-0.485,3.772c-0.221,0.777-0.793,0.867-1.611,0.635l-0.622-0.177c-0.777-0.221-1.422-0.319-2.199-0.54      c-3.345-0.951,0.04-3.396-2.449-4.104c-0.818-0.233-2.062,0.298-2.327,1.23c-0.641,2.256,2.547,5.392,4.282,7.565      C265.972,117.221,266.333,120.394,265.725,122.532z"/>
				<path style="fill:#000E3F;" d="M255.032,76.713c1.425,0,2.861,0.101,4.306,0.306c18.488,2.63,31.09,21.526,28.149,42.205      c-2.711,19.063-17.686,32.987-34.492,32.987c-1.425,0-2.863-0.101-4.309-0.306c-18.487-2.63-31.09-21.525-28.149-42.204      C223.249,90.638,238.225,76.715,255.032,76.713 M255.034,72.687v4.026V72.687c0,0-0.002,0-0.003,0      c-18.981,0.002-35.523,15.671-38.48,36.447c-3.248,22.843,10.913,43.818,31.568,46.757c1.613,0.229,3.254,0.345,4.876,0.345      c18.981,0,35.523-15.668,38.478-36.446c3.249-22.844-10.912-43.819-31.568-46.758C258.293,72.803,256.654,72.687,255.034,72.687      L255.034,72.687z"/>
			</g>
		</g>
		<g>
			<g>
				<path style="fill:#FFCF00;" d="M126.31,161.11c-5.762,0-11.516-0.937-17.101-2.783c-12.525-4.137-22.866-12.403-29.12-23.268      c-6.295-10.941-7.7-23.204-3.956-34.533c5.83-17.641,23.471-29.493,43.901-29.493c5.762,0,11.516,0.937,17.101,2.783      c12.525,4.137,22.866,12.401,29.12,23.268c6.295,10.939,7.7,23.204,3.956,34.53C164.381,149.256,146.738,161.11,126.31,161.11z"/>
				<path style="fill:#FD8A02;" d="M168.296,130.985c-7.363,22.281-33.535,33.671-58.461,25.433      c-24.92-8.235-39.151-32.976-31.788-55.257c0.699-2.115,1.568-4.127,2.585-6.042c-3.04,20.43,10.764,41.406,33.314,48.857      c22.557,7.454,46.142-1.165,55.874-19.384C169.496,126.736,168.995,128.87,168.296,130.985z"/>
				<path style="fill:#FD8A02;" d="M157.301,121.242c-4.228,12.793-22.12,18.382-39.964,12.486      c-17.844-5.897-28.883-21.048-24.655-33.84c4.227-12.793,22.12-18.383,39.964-12.486      C150.49,93.299,161.528,108.45,157.301,121.242z"/>
				<g style="opacity:0.18;">
					<path style="fill:#000E3F;" d="M77.48,123.517l4.109-12.435c-0.457-1.719-0.803-3.461-1.032-5.219       c-0.567,0.132-1.055,0.541-1.251,1.134l-3.071,9.293C76.427,118.729,76.849,121.145,77.48,123.517z"/>
					<path style="fill:#000E3F;" d="M81.705,133.817c0.73,1.288,1.525,2.547,2.386,3.772l4.114-12.45       c-0.86-1.223-1.659-2.478-2.389-3.764L81.705,133.817z"/>
					<path style="fill:#000E3F;" d="M96.476,134.193c-0.966-0.824-1.897-1.677-2.787-2.561l-4.112,12.442       c0.89,0.884,1.821,1.736,2.787,2.559L96.476,134.193z"/>
					<path style="fill:#000E3F;" d="M105.673,140.441c-1.045-0.555-2.061-1.143-3.052-1.759l-4.111,12.44       c0.99,0.616,2.008,1.201,3.053,1.756L105.673,140.441z"/>
					<path style="fill:#000E3F;" d="M111.488,156.923l4.11-12.439c-0.551-0.163-1.102-0.327-1.652-0.509       c-0.548-0.181-1.086-0.377-1.623-0.574l-4.11,12.439c0.538,0.197,1.074,0.396,1.622,0.577       C110.385,156.6,110.937,156.76,111.488,156.923z"/>
					<path style="fill:#000E3F;" d="M126.203,146.475c-1.163-0.096-2.329-0.23-3.499-0.406l-4.11,12.437       c1.169,0.176,2.335,0.313,3.498,0.409L126.203,146.475z"/>
					<path style="fill:#000E3F;" d="M137.577,146.135c-1.241,0.179-2.497,0.311-3.764,0.396l-4.111,12.44       c1.267-0.085,2.522-0.214,3.763-0.394L137.577,146.135z"/>
					<path style="fill:#000E3F;" d="M150.011,142.589c-1.352,0.598-2.742,1.129-4.162,1.599l-4.114,12.45       c1.422-0.471,2.81-1.009,4.164-1.607L150.011,142.589z"/>
					<path style="fill:#000E3F;" d="M155.43,149.277c1.92-1.529,3.699-3.217,5.306-5.061l4.112-12.443       c-1.609,1.846-3.386,3.539-5.308,5.069L155.43,149.277z"/>
				</g>
				<path style="opacity:0.75;fill:#FFFFFF;" d="M92.317,88.036c6.194-6.359,15.933-11.097,26.547-11.375      c11.066-0.161,18.864,3.572,26.944,10.299c0.572,0.477,0.649,1.326,0.173,1.898c-2.26,2.711-15.848-12.436-39.874-4.592      c-11.227,3.76-12.663,7.436-13.961,5.319C91.834,89.08,91.921,88.441,92.317,88.036z"/>
			</g>
			<g>
				<path style="fill:#000E3F;" d="M135.757,103.379c1.962,0.959,3.339,2.538,3.977,5.285c0.163,0.475,0.441,3.496,0.328,3.726      c0.411,0.201,2.807,1.428,3.219,1.63l0.185,0.091c0.73,0.357,1.008,1.058,0.382,2.337c-0.29,0.593-0.557,1.253-0.893,1.939      l-0.625,1.279c-1.629,3.33-3.971-2.056-6.379,0.556c-3.626,3.713-6.523,2.806-10.587,0.819      c-1.824-0.892-2.328-1.139-1.302-3.238c0.336-0.686,0.696-1.189,1.009-1.716c0.852-1.394,1.176-3.326,3.049-2.41      c0.501,0.245,0.934,0.402,1.435,0.646c0.96,0.469,2.167,0.661,2.949-0.938c0.468-0.957,0.34-2.434-0.616-2.902      c-3.882-1.898-9.232,2.446-13.448,3.664c-2.286,0.633-5.127,0.544-7.319-0.528c-1.509-0.738-2.725-1.953-3.308-3.654      c-0.536-1.562-0.645-3.651-0.364-5.269c0.019-0.386-0.252-0.293-0.571-0.449c-0.23-0.112-3.264-1.312-3.49-1.422      c-0.916-0.448,0.029-1.911,0.564-3.005c-0.111,0.226,1.605-3.63,2.514-3.636l3.742,1.83c0.411,0.201,0.682,0.108,0.931-0.28      c1.343-2.173,4.339-2.859,6.09-2.852c1.747,0.008,2.915,0.635,4.557,1.438c0.912,0.446,0.896,1.173,0.427,2.134l-0.357,0.73      c-0.446,0.912-0.711,1.688-1.157,2.6c-1.92,3.926-4.192-0.805-5.62,2.117c-0.47,0.96-0.09,2.616,1.004,3.151      c2.647,1.295,7.235-1.952,10.309-3.615C129.243,101.893,133.247,102.151,135.757,103.379z"/>
				<path style="fill:#000E3F;" d="M120.035,73.047c5.407,0,10.969,0.863,16.469,2.68c24.922,8.236,39.158,32.976,31.794,55.258      c-5.738,17.363-22.9,28.111-41.991,28.111c-5.407,0-10.969-0.862-16.469-2.679c-24.923-8.236-39.158-32.976-31.795-55.258      C83.783,83.795,100.944,73.048,120.035,73.047 M120.035,69.021c-21.3,0-39.712,12.407-45.814,30.874      c-3.926,11.88-2.462,24.724,4.123,36.168c6.5,11.296,17.236,19.882,30.23,24.176c5.789,1.914,11.755,2.883,17.733,2.883      c21.299,0,39.712-12.407,45.814-30.874c3.926-11.88,2.462-24.724-4.123-36.168c-6.5-11.296-17.236-19.882-30.231-24.176      C131.978,69.991,126.013,69.021,120.035,69.021L120.035,69.021z"/>
			</g>
		</g>
	</g>
	<g>
		<g>
			<path style="fill:#FC09B2;" d="M42.143,200.89c-1.903-1.009-10.65-7.16-12.649-9.62c-2.682-3.299,4.031-4.039,24.05-11.881     c12.05-4.721,12.496-4.121,13.097-2.192c1.186,3.812,7.681,33.684,7.631,35.672c-0.032,1.303-0.945,2.093-2.229,1.841     c-4.566-0.896-13.303-4.663-14.709-5.459c-0.695-0.394-1.086-0.306-1.65,0.375c-17.683,21.358-25.15,61.767-13.212,90.156     c5.4,12.843,10.242,13.644,8.938,16.025c-0.539,0.985-1.394,1.799-2.641,1.835c-27.23,0.784-11.463-6.49-26.511,13.731     c-1.118,1.503-2.722,1.577-3.964-0.126c-20.146-27.638-20.837-57.207-6.752-88.525C26.064,210.431,45.11,202.464,42.143,200.89z"/>
			<path style="opacity:0.5;fill:#FFFFFF;" d="M20.276,302.667c-4.217-5.332-6.638-11.974-7.692-18.654     c-1.081-6.715-0.815-13.563,0.414-20.207c1.295-6.656,3.698-13.107,7.154-18.903c3.428-5.802,7.854-11.012,13.128-15.077     c0.769-0.593,1.875-0.451,2.468,0.319c0.51,0.661,0.476,1.568-0.029,2.187l-0.01,0.012c-3.975,4.865-7.379,10.035-10.071,15.532     c-2.666,5.503-4.675,11.283-5.795,17.251c-1.19,5.971-1.59,12.108-1.177,18.164c0.449,6.056,1.796,12.031,4.4,17.634l0.009,0.018     c0.386,0.829,0.026,1.813-0.803,2.198C21.563,303.471,20.741,303.254,20.276,302.667z"/>
		</g>
		<path style="fill:#000E3F;" d="M63.648,174.035c1.439-0.254,2.249-0.122,2.966,0.223c1.231,0.591,1.597,1.762,1.792,2.392    c1.055,3.39,7.777,33.773,7.714,36.267c-0.031,1.204-0.515,2.242-1.364,2.921c-0.834,0.669-1.924,0.913-3.07,0.687    c-4.552-0.893-12.487-4.271-14.808-5.426c-18.141,22.304-23.802,61.572-12.703,87.968c2.914,6.93,5.645,10.209,7.276,12.167    c1.418,1.702,2.758,3.31,1.58,5.462c-0.962,1.752-2.456,2.739-4.21,2.795c-8.042,0.231-12.341-0.224-14.91-0.496    c-0.803-0.085-1.629-0.173-1.998-0.155c-0.152,0.247-0.395,0.774-0.613,1.25c-0.94,2.041-2.689,5.841-7.561,12.388    c-0.91,1.222-2.12,1.888-3.42,1.885c-1.323-0.007-2.573-0.726-3.52-2.025c-19.804-27.168-22.076-56.729-6.945-90.372    c10.059-22.366,22.209-33.213,28.049-38.426c0.729-0.651,1.472-1.313,2.014-1.837c-3.218-2.066-9.94-6.904-11.859-9.266    c-0.872-1.073-1.164-2.157-0.867-3.222c0.664-2.383,3.721-3.48,11.891-6.413c3.641-1.307,8.173-2.934,13.787-5.133    C58.543,175.447,61.682,174.382,63.648,174.035z M64.833,177.604c-1.814,0.045-8.372,2.628-10.614,3.507    c-5.663,2.219-10.222,3.855-13.886,5.17c-4.425,1.589-8.302,2.981-9.398,3.831c1.758,2.153,10.195,8.148,12.074,9.144l0,0    c0.719,0.381,1.183,1.034,1.275,1.789c0.192,1.584-1.011,2.658-3.916,5.251c-5.649,5.043-17.404,15.534-27.14,37.183    c-14.537,32.326-12.392,60.679,6.56,86.679c0.291,0.399,0.512,0.5,0.555,0.506c0.028-0.005,0.204-0.088,0.434-0.395    c4.641-6.237,6.284-9.807,7.167-11.726c1.574-3.42,2.469-3.636,6.36-3.226c2.476,0.262,6.62,0.701,14.414,0.477    c0.144-0.004,0.564-0.019,1.009-0.763c-0.183-0.316-0.674-0.904-1.114-1.432c-1.763-2.118-4.716-5.661-7.843-13.1    c-11.648-27.702-5.596-68.996,13.492-92.052c1.428-1.723,2.955-1.387,3.986-0.804c1.399,0.792,9.869,4.413,14.153,5.253    c-0.051-2.212-6.259-31.09-7.522-35.149C64.861,177.698,64.847,177.65,64.833,177.604z"/>
	</g>
	<g>
		<g>
			<path style="fill:#915EFD;" d="M85.884,368.848c-2.247,2.257-4.084,4.278-6.044,5.152c-1.944,0.866-3.764-1.42-2.618-3.001     c1.874-2.587,6.191-5.486,5.878-6.248c-0.309-0.752-1.338-0.384-2.062-0.374c-4.026,0.059-6.475,0.427-9.117-0.011     c-2.006-0.332-1.818-3.6-0.102-4.051c1.657-0.433,3.534-0.276,12.151-0.639c2.856-0.121,0.636-2.354-1.503-5.415     c-1.214-1.737-2.095-4.445-0.199-5.371c1.564-0.764,2.566,0.607,3.611,2.013c5.497,7.402,4.012,7.605,6.712-3.298     c0.496-2.003,1.279-4.422,3.307-3.78c2.068,0.655,1.275,2.995,0.35,7.708c-0.122,0.619-0.447,1.206-0.519,1.827     c-0.159,1.372-0.832,2.669-0.599,4.095c1.691,0.187,2.548-1.314,3.844-1.931c2.077-0.989,3.012-2.779,5.421-2.357     c0.938,0.164,1.553,1.1,1.223,1.975c-1.611,4.27-8.587,5.426-4.648,7.117c5.092,2.184,6.35,2.502,8.27,3.833     c1.81,1.256,0.717,3.792-1.439,3.439c-3.577-0.585-9.7-3.943-10.35-3.236c-0.678,0.737,5.162,6.919,5.314,9.379     c0.11,1.778-1.413,2.621-2.752,1.819c-2.036-1.219-2.453-2.327-6.086-7.237c-0.282-0.382-0.567-0.941-1.161-0.711     c-0.532,0.206-0.556,0.806-0.614,1.294c-0.292,2.472-0.87,8.054-0.935,8.311c-0.614,2.427-4.499,2.2-4.29-0.555     c0.725-9.572,1.888-12.136-0.987-9.694C85.921,368.885,85.903,368.866,85.884,368.848z"/>
			<path style="fill:#915EFD;" d="M45.084,440.747c-2.603,2.471-5.793,5.946-7.521,3.818c-1.204-1.483,0.157-2.631,1.719-4.066     c0.895-0.822,3.669-2.875,3.469-3.406c-0.274-0.726-0.645-0.262-7.128-0.352c-1.897-0.027-4.078-0.129-3.86-2.012     c0.298-2.569,1.233-1.906,11.874-2.054c2.502-0.035,0.614-2.043-1.181-4.774c-1.019-1.55-1.722-3.941-0.041-4.704     c1.39-0.631,2.235,0.602,3.108,1.85c4.626,6.611,3.321,6.753,5.954-2.718c0.483-1.739,1.229-3.837,2.987-3.224     c3.036,1.057-1.371,9.227-1.01,11.904c1.474,0.206,2.261-1.086,3.41-1.594c1.842-0.814,2.7-2.357,4.801-1.928     c2.189,0.447,0.784,2.972-1.06,4.303c-4.751,3.428-4.554,2.312,2.989,5.918c1.51,0.723,3.309,1.757,2.594,3.256     c-0.77,1.614-2.666,0.852-4.484,0.13c-8.072-3.205-8.124-4.342-2.845,3.89c2.331,3.635-0.838,6.032-3.957,1.324     c-4.634-6.993-4.002-6.494-5.17,1.942c-0.11,0.793-0.07,3.482-2.584,2.999c-0.926-0.178-1.508-0.878-1.396-1.951     c0.871-8.348,1.958-10.571-0.623-8.505C45.115,440.78,45.1,440.764,45.084,440.747z"/>
			<path style="fill:#915EFD;" d="M161.076,432.953c-1.332,2.653-2.369,4.978-3.85,6.322c-1.47,1.333-3.746-0.161-3.192-1.894     c0.905-2.835,3.883-6.661,3.384-7.245c-0.493-0.575-1.297,0.05-1.934,0.27c-3.547,1.225-5.609,2.264-8.076,2.646     c-1.873,0.291-2.658-2.658-1.27-3.556c1.339-0.865,3.032-1.267,10.572-4.105c2.494-0.939-0.123-2.269-2.908-4.356     c-1.581-1.185-3.149-3.325-1.74-4.697c1.165-1.135,2.457-0.204,3.783,0.73c7.022,4.952,5.767,5.565,4.982-4.875     c-0.144-1.917-0.155-4.288,1.827-4.31c2.076-0.023,2.025,2.475,2.555,6.723c0.073,0.584-0.045,1.198,0.073,1.769     c0.259,1.261,0.04,2.605,0.662,3.8c1.552-0.326,1.873-1.905,2.841-2.829c1.551-1.481,1.858-3.337,4.113-3.666     c0.878-0.128,1.695,0.521,1.658,1.392c-0.182,4.246-6.024,7.306-2.042,7.655c6.124,0.536,10.032,0.336,9.786,2.82     c-0.188,1.895-2.363,1.816-4.445,1.751c-9.266-0.295-9.747-1.444-1.445,4.926c3.539,2.715,1.435,6.417-3.486,2.757     c-7.177-5.337-6.354-5.049-4.478,3.814c0.122,0.576,0.312,1.148,0.352,1.73c0.163,2.325-3.342,3.261-3.96,0.759     c-2.138-8.652-1.849-11.312-3.698-8.295C161.119,432.975,161.097,432.964,161.076,432.953z"/>
		</g>
		<g>
			<path style="fill:#915EFD;" d="M444.664,190.348c2.963-1.167,5.456-2.283,7.602-2.298c2.129-0.015,2.88,2.81,1.196,3.798     c-2.754,1.619-7.871,2.545-7.889,3.369c-0.018,0.813,1.072,0.888,1.739,1.168c3.712,1.56,6.104,2.204,8.349,3.664     c1.705,1.108,0.223,4.027-1.53,3.752c-1.691-0.267-3.348-1.163-11.389-4.284c-2.665-1.034-1.526,1.902-0.793,5.563     c0.416,2.078,0.138,4.912-1.97,5c-1.739,0.073-2.108-1.585-2.501-3.291c-2.07-8.984-0.628-8.575-7.471,0.331     c-1.257,1.636-2.944,3.539-4.544,2.138c-1.632-1.429,0.032-3.255,2.769-7.202c0.36-0.519,0.893-0.926,1.208-1.466     c0.695-1.193,1.832-2.111,2.189-3.512c-1.474-0.849-2.86,0.183-4.295,0.229c-2.299,0.074-3.873,1.339-5.911-0.013     c-0.793-0.527-0.982-1.63-0.329-2.299c3.187-3.266,10.042-1.53,7.11-4.658c-3.79-4.041-4.815-4.837-6.04-6.826     c-1.155-1.877,0.862-3.761,2.697-2.574c3.043,1.969,7.307,7.499,8.185,7.112c0.916-0.404-1.956-8.407-1.109-10.723     c0.612-1.673,2.345-1.835,3.25-0.564c1.376,1.933,1.315,3.115,2.675,9.07c0.106,0.462,0.143,1.089,0.78,1.117     c0.569,0.025,0.832-0.516,1.081-0.94c1.259-2.148,4.025-7.03,4.187-7.24c1.535-1.977,5.004-0.212,3.708,2.228     c-4.501,8.479-6.593,10.362-2.981,9.277C444.645,190.299,444.655,190.324,444.664,190.348z"/>
			<path style="fill:#915EFD;" d="M456.864,106.74c3.375-1.22,7.691-3.126,8.42-0.484c0.509,1.841-1.198,2.347-3.204,3.036     c-1.149,0.395-4.514,1.164-4.543,1.73c-0.039,0.775,0.486,0.498,6.389,3.179c1.728,0.785,3.684,1.753,2.73,3.39     c-1.302,2.234-1.893,1.253-11.703-2.876c-2.306-0.971-1.382,1.625-0.832,4.847c0.312,1.829-0.001,4.301-1.848,4.326     c-1.527,0.021-1.807-1.447-2.107-2.941c-1.589-7.911-0.336-7.518-6.544,0.104c-1.14,1.4-2.664,3.023-4.029,1.757     c-2.358-2.185,4.953-7.904,5.696-10.502c-1.268-0.779-2.507,0.089-3.763,0.094c-2.014,0.008-3.418,1.078-5.171-0.158     c-1.827-1.287,0.473-3.038,2.695-3.518c5.726-1.237,5.099-0.293-0.367-6.62c-1.094-1.267-2.327-2.936-1.072-4.022     c1.352-1.17,2.784,0.288,4.161,1.678c6.111,6.171,5.703,7.234,4.166-2.424c-0.679-4.264,3.185-5.191,4.156,0.373     c1.443,8.264,1.064,7.554,5.516,0.293c0.418-0.682,1.46-3.162,3.569-1.713c0.777,0.534,1.029,1.409,0.497,2.346     c-4.144,7.299-6.031,8.9-2.838,8.042C456.848,106.697,456.856,106.718,456.864,106.74z"/>
			<path style="fill:#915EFD;" d="M366.239,72.091c2.284-1.897,4.165-3.611,6.061-4.249c1.881-0.633,3.368,1.648,2.165,3.015     c-1.966,2.235-6.228,4.546-6.004,5.281c0.221,0.724,1.208,0.474,1.88,0.528c3.741,0.299,6.046,0.173,8.459,0.812     c1.833,0.485,1.37,3.501-0.262,3.767c-1.573,0.257-3.286-0.054-11.332-0.476c-2.661-0.14-0.797,2.128,0.918,5.156     c0.974,1.719,1.552,4.309-0.288,5.001c-1.522,0.573-2.333-0.798-3.173-2.185c-4.449-7.351-3.053-7.409-6.518,2.47     c-0.637,1.814-1.577,3.991-3.402,3.217c-1.911-0.811-0.864-3.08,0.354-7.183c0.168-0.564,0.521-1.08,0.642-1.649     c0.268-1.259,1.007-2.403,0.916-3.747c-1.552-0.323-2.48,0.995-3.737,1.454c-2.014,0.735-3.039,2.313-5.237,1.71     c-0.856-0.235-1.344-1.157-0.961-1.94c1.869-3.817,8.447-4.279,4.938-6.195c-5.396-2.946-9.057-4.328-7.835-6.505     c0.931-1.661,2.893-0.717,4.775,0.178c8.372,3.984,8.351,5.23,3.297-3.934c-2.154-3.905,1.257-6.455,4.298-1.129     c4.437,7.766,3.798,7.172,5.631-1.699c0.119-0.577,0.174-1.177,0.371-1.726c0.782-2.196,4.368-1.648,3.931,0.892     c-1.509,8.784-2.84,11.105,0.064,9.082C366.208,72.054,366.223,72.072,366.239,72.091z"/>
		</g>
	</g>
</g>















</svg>
